<svg width="126" height="165" viewBox="0 0 126 165" fill="none" xmlns="http://www.w3.org/2000/svg">
<path d="M94.2056 36.3509C92.8403 36.3509 91.4968 36.2646 90.1782 36.0987C88.2454 35.5346 86.2623 35.0889 84.2361 34.7726C81.8076 34.3921 79.3179 34.1941 76.7814 34.1941C50.3939 34.1941 29 55.5989 29 82.0002C29 108.402 50.3939 129.807 76.7814 129.807C79.3179 129.807 81.8076 129.609 84.2361 129.228C86.2623 128.912 88.2454 128.466 90.1782 127.902C91.4968 127.736 92.8403 127.65 94.2056 127.65C110.325 127.65 123.676 139.519 126 155L126 9.00024C123.676 24.4818 110.325 36.3509 94.2056 36.3509Z" fill="black" fill-opacity="0.4"/>
<path d="M99.5005 81.6585C99.5005 95.535 88.1018 106.817 74.0005 106.817C59.8992 106.817 48.5005 95.535 48.5005 81.6585C48.5005 67.7819 59.8992 56.5002 74.0005 56.5002C88.1018 56.5002 99.5005 67.7819 99.5005 81.6585Z" stroke="white" stroke-width="3"/>
<path d="M78.8507 82.2542L73.2607 87.0701C72.6125 87.6285 71.608 87.168 71.608 86.3124L71.608 77.4617C71.608 76.646 72.5319 76.1734 73.1933 76.6508L78.7833 80.6857C79.3072 81.064 79.3403 81.8324 78.8507 82.2542Z" fill="white"/>
<g clip-path="url(#clip0_53_13947)">
<path d="M63.2698 147.31C63.6198 145.49 64.4998 144.24 65.9098 143.55C67.3198 142.87 69.1698 142.74 71.4498 143.18L77.8398 144.4L74.0198 164.43L67.9898 163.28C67.1498 163.12 66.3398 162.89 65.5598 162.6C64.7798 162.31 64.0998 161.91 63.5398 161.41C62.9698 160.91 62.5498 160.28 62.2898 159.52C62.0198 158.76 61.9898 157.84 62.1998 156.76C62.3898 155.75 62.8298 154.87 63.4998 154.13C64.1798 153.39 65.0698 152.93 66.1898 152.76C64.9898 152.12 64.1398 151.38 63.6498 150.54C63.1598 149.7 63.0398 148.63 63.2898 147.31L63.2698 147.31ZM65.4098 156.95C65.2998 157.54 65.3198 158.04 65.4698 158.45C65.6198 158.86 65.8498 159.2 66.1598 159.47C66.4698 159.74 66.8298 159.94 67.2498 160.09C67.6698 160.23 68.0998 160.35 68.5398 160.43L71.3898 160.97L72.4498 155.41L69.5998 154.87C69.1598 154.79 68.7198 154.74 68.2798 154.71C67.8398 154.69 67.4298 154.75 67.0398 154.88C66.6498 155.01 66.3198 155.25 66.0298 155.58C65.7398 155.91 65.5398 156.37 65.4298 156.95L65.4098 156.95ZM66.3498 148.24C66.1598 149.24 66.3698 150.05 66.9798 150.67C67.5898 151.28 68.5198 151.71 69.7798 151.95L72.9898 152.56L74.1098 146.65L70.8998 146.04C69.6398 145.8 68.6098 145.86 67.8198 146.21C67.0298 146.56 66.5298 147.24 66.3398 148.24L66.3498 148.24Z" fill="white"/>
<path d="M53.0898 159.69L50.1698 158.29L56.2498 145.63L44.9998 155.81L41.3398 154.05L50.1698 135.67L53.0898 137.07L46.6898 150.39L58.5398 139.68L61.9198 141.3L53.0898 159.68L53.0898 159.69Z" fill="white"/>
<path d="M46.0099 136.98C45.2499 136.95 44.5799 136.98 43.9899 137.1C43.3999 137.22 42.7399 137.53 42.0299 138.03C41.3199 138.54 40.4599 139.3 39.4699 140.32C38.4799 141.35 37.2199 142.75 35.6999 144.52L32.4199 148.34L25.3799 142.3L36.7699 129.03L34.9799 127.49L40.1199 121.5L42.3299 123.39L39.0799 127.17L45.7099 132.86L48.9599 129.08L51.1599 130.97L46.0199 136.96L46.0099 136.98ZM33.2299 142.44C34.4299 141.05 35.4699 139.87 36.3499 138.9C37.2399 137.93 38.0599 137.13 38.7999 136.51C39.5499 135.89 40.2699 135.42 40.9599 135.12C41.6499 134.82 42.4099 134.65 43.2399 134.61L39.2099 131.15L29.7099 142.21L31.8399 144.04L33.2199 142.44L33.2299 142.44Z" fill="white"/>
<path d="M27.7101 112.93L35.0601 123.69L18.2201 135.19L10.8701 124.43L13.2701 122.79L18.7901 130.88L23.4601 127.69L19.1501 121.38L21.5501 119.74L25.8601 126.05L30.8301 122.66L25.3001 114.57L27.7001 112.93L27.7101 112.93Z" fill="white"/>
<path d="M16.7501 114.89C15.4601 115.34 14.1701 115.64 12.8801 115.79C11.5801 115.94 10.3801 115.88 9.26008 115.63C8.14008 115.37 7.14008 114.87 6.25008 114.13C5.36008 113.39 4.69008 112.35 4.22008 111.03C3.75008 109.7 3.63008 108.47 3.85008 107.34C4.07008 106.21 4.54008 105.18 5.24008 104.27C5.95008 103.36 6.85008 102.56 7.96008 101.87C9.07008 101.18 10.2601 100.61 11.5501 100.16C12.8401 99.7098 14.1201 99.3998 15.4101 99.2498C16.7001 99.0898 17.9101 99.1398 19.0401 99.3898C20.1701 99.6398 21.1801 100.14 22.0701 100.88C22.9601 101.62 23.6401 102.67 24.1101 104.01C24.5901 105.36 24.7101 106.6 24.4901 107.73C24.2701 108.86 23.7901 109.89 23.0701 110.8C22.3501 111.71 21.4401 112.51 20.3301 113.19C19.2201 113.87 18.0301 114.44 16.7501 114.89ZM15.6801 111.84C16.5501 111.53 17.3901 111.16 18.2101 110.72C19.0301 110.28 19.7201 109.78 20.2901 109.22C20.8601 108.66 21.2601 108.03 21.4901 107.32C21.7201 106.62 21.6801 105.83 21.3701 104.97C21.0601 104.11 20.6001 103.47 19.9801 103.06C19.3601 102.65 18.6501 102.41 17.8601 102.33C17.0601 102.25 16.2101 102.3 15.3001 102.47C14.3901 102.64 13.5001 102.88 12.6301 103.19C11.7601 103.5 10.9301 103.86 10.1201 104.3C9.31008 104.73 8.62008 105.23 8.04008 105.79C7.46008 106.35 7.06008 106.99 6.84008 107.7C6.62008 108.41 6.65008 109.19 6.95008 110.04C7.45008 111.45 8.46008 112.29 9.99008 112.58C11.5201 112.87 13.4101 112.62 15.6801 111.82L15.6801 111.84Z" fill="white"/>
<path d="M9.08022 78.2598C7.74022 78.0099 6.47022 77.6299 5.27022 77.1099C4.07022 76.5899 3.06022 75.9399 2.22022 75.1599C1.38022 74.3799 0.760218 73.4399 0.360218 72.3599C-0.0397819 71.2799 -0.109782 70.0399 0.150218 68.6599C0.410218 67.2799 0.920218 66.1499 1.68022 65.2799C2.44022 64.4099 3.35022 63.7599 4.42022 63.3199C5.49022 62.8799 6.67022 62.6399 7.97022 62.5999C9.27022 62.5499 10.5902 62.6599 11.9302 62.9099C13.2702 63.1599 14.5402 63.5399 15.7302 64.0499C16.9202 64.5599 17.9502 65.1999 18.8002 65.9899C19.6502 66.7699 20.2802 67.7099 20.6802 68.7899C21.0802 69.8799 21.1402 71.1199 20.8802 72.5199C20.6202 73.9199 20.1102 75.0599 19.3502 75.9299C18.5902 76.7999 17.6702 77.4499 16.5902 77.8799C15.5102 78.3099 14.3202 78.5399 13.0302 78.5899C11.7402 78.6299 10.4202 78.5199 9.07022 78.2799L9.08022 78.2598ZM9.68022 75.0799C10.5802 75.2499 11.5002 75.3499 12.4302 75.3799C13.3602 75.4099 14.2102 75.3199 14.9802 75.1199C15.7502 74.9199 16.4202 74.5699 16.9602 74.0699C17.5102 73.5699 17.8702 72.8699 18.0302 71.9699C18.2002 71.0699 18.1102 70.2899 17.7802 69.6299C17.4502 68.9699 16.9602 68.4099 16.3002 67.9399C15.6502 67.4699 14.8902 67.0899 14.0102 66.7799C13.1302 66.4699 12.2402 66.2399 11.3402 66.0699C10.4402 65.8999 9.53022 65.7999 8.61022 65.7799C7.69022 65.7499 6.84022 65.8399 6.06022 66.0399C5.28022 66.2399 4.62022 66.5899 4.07022 67.0999C3.52022 67.6099 3.16022 68.2999 3.00022 69.1799C2.73022 70.6399 3.18022 71.8899 4.36022 72.8999C5.54022 73.9099 7.31022 74.6399 9.67022 75.0799L9.68022 75.0799Z" fill="white"/>
<path d="M38.1998 37.8798L35.7498 40.7598L25.0498 38.6798L25.3898 40.7398L31.4098 45.8598L29.3098 48.3198L13.7798 35.1098L15.8798 32.6498L21.9698 37.8298L19.9898 27.8098L22.6798 24.6398L24.5098 35.5298L38.1898 37.8698L38.1998 37.8798Z" fill="white"/>
<path d="M50.58 28.6L47.92 30.44L42.86 23.1L37.46 26.83L42.53 34.18L39.87 36.02L28.29 19.23L30.95 17.39L35.81 24.44L41.21 20.71L36.35 13.66L39.01 11.82L50.59 28.61L50.58 28.6Z" fill="white"/>
<path d="M46.31 7.63983L49.35 6.54984L54.09 19.7698L54.75 4.60983L58.57 3.23984L65.45 22.4398L62.4 23.5298L57.41 9.60983L56.7 25.5698L53.17 26.8298L46.29 7.62984L46.31 7.63983Z" fill="white"/>
<path d="M79.9798 2.88991L70.2198 3.7099L71.6798 21.1299L68.4598 21.3999L66.7598 1.07991L79.7498 -0.0100866L79.9898 2.88991L79.9798 2.88991Z" fill="white"/>
<path d="M97.4201 22.4099L84.6001 20.0899L88.2301 0.0199126L101.05 2.3399L100.53 5.1999L90.8901 3.44991L89.8801 9.01991L97.4001 10.3799L96.8801 13.2399L89.3601 11.8799L88.2901 17.7999L97.9301 19.5499L97.4101 22.4099L97.4201 22.4099Z" fill="white"/>
</g>
<defs>
<clipPath id="clip0_53_13947">
<rect width="164.42" height="101.05" fill="white" transform="translate(0 164.42) rotate(-90)"/>
</clipPath>
</defs>
</svg>
