<svg width="78" height="74" viewBox="0 0 78 74" fill="none" xmlns="http://www.w3.org/2000/svg">
<g clip-path="url(#clip0_16_9856)">
<path d="M-0.000110991 37.0272C-0.0280652 33.2199 0.467346 29.5009 2.02812 25.9914C3.20065 23.3565 5.08911 21.2396 7.03037 19.149C8.04915 18.051 8.87069 16.7685 9.78541 15.5712C10.0184 15.2657 10.2451 14.9509 10.5122 14.6779C12.0311 13.1209 13.5157 11.5266 15.0998 10.0378C16.9821 8.26827 19.2339 7.07102 21.6131 6.08623C22.5294 5.70782 23.3541 5.10299 24.2766 4.74475C25.4444 4.2919 26.6713 3.98793 27.8687 3.60952C28.0581 3.54904 28.2321 3.43738 28.4153 3.35674C28.9371 3.13031 29.3999 2.64024 30.0631 3.03261C30.1718 3.09619 30.4513 3.014 30.5616 2.90699C31.363 2.13002 32.346 2.22307 33.3291 2.282C33.4549 2.28975 33.5884 2.2913 33.7064 2.25718C34.6817 1.97648 35.6446 1.63995 36.6323 1.41042C37.6045 1.184 38.5953 0.990141 39.5877 0.911048C41.8473 0.731149 44.1116 0.590022 46.3775 0.510929C47.623 0.467505 48.8747 0.583819 50.1233 0.616387C52.7961 0.684624 55.4533 0.999446 58.0313 1.65235C60.2396 2.21221 62.4185 2.97988 64.5073 3.89333C66.7949 4.89518 68.9645 6.19479 70.7194 8.00928C72.1435 9.48259 73.417 11.0676 74.4497 12.8898C76.5525 16.601 77.5557 20.6022 77.8663 24.774C78.062 27.3871 78.034 30.0437 77.8089 32.6554C77.5914 35.16 77.1488 37.6708 76.5152 40.1041C75.79 42.8894 74.8193 45.6205 73.8145 48.322C73.0629 50.3428 72.1885 52.3325 71.1806 54.2385C70.269 55.96 69.1617 57.5884 68.0327 59.1826C67.0123 60.6249 65.8957 62.0083 64.7247 63.3327C64.1051 64.0353 63.2929 64.5734 62.5443 65.155C61.6979 65.8141 60.881 66.5337 59.9554 67.0594C58.244 68.0302 56.4814 68.9158 54.7047 69.7641C53.3645 70.4046 51.9869 70.98 50.5923 71.4917C49.5829 71.8608 48.5284 72.1245 47.477 72.3525C45.778 72.7185 44.0728 73.0845 42.3521 73.3186C41.0926 73.4908 39.8036 73.4536 38.527 73.5032C38.322 73.5109 38.1154 73.4908 37.9089 73.4753C36.3683 73.3543 34.8231 73.2768 33.2902 73.0922C32.2513 72.9666 31.2139 72.7448 30.2044 72.4672C28.1746 71.9105 26.1215 71.3956 24.1539 70.6589C22.3042 69.9657 20.4717 69.1469 18.7789 68.1357C16.4665 66.757 14.1758 65.2914 12.0963 63.5917C9.99662 61.8765 8.03983 59.9441 6.5536 57.6209C5.37486 55.7785 4.07188 53.9951 3.10436 52.0472C2.20672 50.2405 1.55911 48.2817 1.01866 46.3308C0.180038 43.2957 0.0293962 40.1615 -0.000110991 37.0272ZM18.0164 10.1774C17.4868 10.1417 17.0752 10.3169 16.8376 10.8008C17.3595 10.8132 17.9123 10.8768 17.9884 10.1479C18.6485 10.1448 20.3692 9.02199 20.3583 8.53502C19.8085 8.79556 19.251 8.99873 18.768 9.31355C18.4605 9.51361 18.2633 9.88271 18.0164 10.1774ZM70.0143 50.9833C69.9537 50.9337 69.8932 50.8841 69.8326 50.836C69.6276 50.9973 69.4148 51.1508 69.2176 51.3229C68.0528 52.3403 66.9642 53.4647 65.7125 54.3611C63.1143 56.2221 60.4415 57.9869 57.4178 59.1144C54.9051 60.0511 52.4202 61.0964 49.8516 61.8439C46.3278 62.8675 42.6891 63.3544 39.0115 63.4428C38.2925 63.4599 37.5703 63.3916 36.8513 63.3901C35.2532 63.3854 33.6381 63.5591 32.0634 63.373C28.5784 62.9605 25.0934 62.4782 21.6489 61.8191C19.192 61.3492 16.7755 60.5877 14.7333 59.026C12.2159 57.1014 10.8958 54.4526 11.8245 51.1523C11.9705 50.6359 12.2609 50.1071 12.8262 50.4048C13.6307 50.8298 14.3792 51.4036 15.0408 52.0301C15.3002 52.2752 15.4586 52.9265 15.3188 53.2382C14.9569 54.0416 15.4151 54.3673 15.9276 54.741C17.9713 56.2314 20.3335 56.8688 22.7531 57.4674C25.4972 58.1467 28.2631 58.5856 31.0679 58.8027C32.9952 58.9516 34.9318 59.1315 36.8591 59.0896C39.0907 59.0415 41.3162 58.7174 43.5494 58.6011C46.1197 58.4662 48.62 57.9513 51.0303 57.1324C53.8801 56.1662 56.7065 55.0993 59.4476 53.8648C62.0675 52.6861 64.5151 51.1741 66.7359 49.3006C68.9489 47.4334 70.9088 45.3615 72.3423 42.8491C75.0398 38.1252 76.1207 33.0245 75.8365 27.595C75.6129 23.2991 73.8036 19.6918 70.929 16.6785C69.4816 15.1618 67.6071 13.9676 65.7513 12.9472C63.9172 11.9376 61.8967 11.2164 59.8902 10.579C58.3869 10.1014 56.7376 10.0921 55.2265 9.62992C53.2899 9.0375 51.3083 9.25617 49.3577 9.01268C47.9056 8.83123 46.4365 8.73818 44.9735 8.71647C43.3693 8.69321 41.7604 8.74749 40.1608 8.8576C38.7491 8.9553 37.3374 9.12589 35.9428 9.36007C34.4488 9.61131 32.9626 9.92613 31.495 10.3014C30.06 10.6674 28.8564 11.6832 27.2288 11.5995C26.033 11.5375 24.9754 12.2772 23.9054 12.7781C23.0342 13.186 22.1862 13.6497 21.3553 14.1351C20.4204 14.681 19.3489 14.8594 18.4621 15.6426C17.3486 16.6274 15.895 17.2213 14.6199 18.034C13.539 18.7225 12.4162 19.3863 11.4673 20.2346C10.2529 21.3202 9.19993 22.5873 8.06468 23.7628C7.24624 24.6111 6.29424 25.3586 5.6016 26.2969C4.29397 28.068 3.34663 30.0422 2.87451 32.218C1.62434 37.9608 1.966 43.564 4.43374 48.9517C7.21829 55.0279 11.7733 59.4913 17.3703 62.9869C21.2202 65.3922 25.4056 66.9586 29.8022 68.0256C34.0792 69.0631 38.4074 69.4865 42.7838 69.0259C45.5901 68.7312 48.3948 68.3296 51.052 67.2812C51.5443 67.0873 52.0351 66.8842 52.5414 66.7306C53.1502 66.5461 53.8071 66.4825 54.3832 66.2313C55.093 65.9211 55.7577 65.4962 56.4115 65.0743C58.0716 64.0089 59.7706 62.9931 61.3469 61.8129C62.6359 60.8467 63.9094 59.7906 64.9406 58.5654C66.3958 56.8362 67.6475 54.9318 68.9334 53.0676C69.3729 52.4287 69.6556 51.6827 70.0096 50.9864L70.0143 50.9833ZM65.0385 8.23105C58.0856 4.67031 50.8237 3.47925 43.214 4.18954C43.7669 4.35083 44.3384 4.43147 44.9114 4.46249C45.8168 4.51212 46.7253 4.50436 47.6292 4.56795C49.5782 4.70442 51.5583 4.71528 53.4608 5.09834C54.3165 5.27048 55.2607 5.10299 56.0714 5.59151C56.2158 5.67836 56.5248 5.49226 56.6398 5.46434C59.3125 6.46309 61.8983 7.42927 64.4825 8.39389C64.5679 8.42646 64.6611 8.46989 64.7465 8.46213C64.8071 8.45748 64.863 8.37528 65.0385 8.23105ZM53.8304 3.55369C53.8412 3.4715 53.8521 3.39086 53.863 3.30866C53.307 3.07603 52.751 2.83875 52.1919 2.61233C52.1081 2.57821 52.0025 2.59062 51.9077 2.59682C51.2399 2.64335 50.569 2.75966 49.9059 2.72864C48.6573 2.66971 47.4118 2.51928 46.1647 2.42778C46.0094 2.41692 45.8324 2.51463 45.6926 2.60302C45.6615 2.62319 45.7143 2.89769 45.7749 2.91785C45.9473 2.97523 46.1445 2.98763 46.3278 2.97368C46.9086 2.9256 47.5003 2.75191 48.0671 2.81239C49.9929 3.0171 51.9093 3.29936 53.8288 3.55369H53.8304ZM34.3556 4.05152C34.6243 3.96622 34.8433 3.85766 35.0715 3.8344C35.8512 3.75375 36.6463 3.13807 37.4228 3.90264C37.5051 3.98328 37.8654 3.88713 38.0161 3.76926C38.2506 3.58781 38.4167 3.31797 38.6823 3.00159C37.6262 3.09619 36.6339 3.11791 35.6695 3.2978C35.2222 3.38155 34.483 3.09154 34.3541 4.05152H34.3556ZM32.0556 3.22491C32.3848 4.25003 31.6363 4.30741 31.0306 4.49351C30.3582 4.70132 29.695 4.93395 29.0272 5.15727C29.0521 5.23481 29.0769 5.31236 29.1018 5.38835C30.251 4.89983 31.5742 5.04871 32.7653 4.33997C32.492 3.91039 32.273 3.56765 32.0556 3.22491ZM40.9823 2.89458C41.9126 2.95196 42.7947 3.00624 43.7389 3.06518C43.2528 2.50067 41.7837 2.44794 40.9823 2.89458ZM25.7053 6.18238C25.7566 6.31265 25.8094 6.44293 25.8606 6.5732C26.5673 6.29715 27.2723 6.02265 27.9789 5.74659C27.9417 5.64579 27.9059 5.54498 27.8687 5.44418C27.1465 5.69076 26.4259 5.9358 25.7038 6.18238H25.7053ZM51.1809 1.94546C51.5009 1.97028 51.7835 2.06178 52.0258 1.99819C52.5429 1.86172 52.5072 1.4678 52.4063 1.02891C52.0227 1.31582 51.6888 1.56706 51.1809 1.94701V1.94546ZM47.522 1.31737H45.9488C46.4738 1.50812 47.1058 1.7392 47.6416 1.93616C47.6137 1.79038 47.5764 1.59652 47.5236 1.31737H47.522ZM41.0568 4.16783L41.0413 4.36324H42.5633C42.5633 4.2981 42.5633 4.23297 42.5633 4.16783H41.0568Z" fill="black"/>
<path d="M16.3081 36.047C16.9107 35.833 17.5133 35.6174 18.2075 35.3708C17.9807 35.2917 17.8348 35.2406 17.6313 35.1692C18.2416 34.3473 19.1346 34.4465 19.9313 34.3147C20.582 34.2077 21.3104 34.4465 21.8508 33.8587C21.8866 33.82 22.003 33.8339 22.076 33.851C23.8899 34.2697 25.6899 33.7238 27.4976 33.7657C28.8099 33.7952 30.1237 33.8774 31.4345 33.8556C32.5899 33.8355 33.7423 33.6618 34.8977 33.6308C36.0625 33.5998 37.2288 33.6726 38.3935 33.6742C38.7197 33.6742 39.0442 33.5501 39.3719 33.5362C40.8286 33.4741 42.2869 33.4416 43.7436 33.3764C44.4301 33.3454 45.1134 33.271 45.7967 33.2074C46.9537 33.1004 48.1092 32.9887 49.2646 32.874C49.3019 32.8709 49.3329 32.8057 49.4851 32.6444C48.6294 32.5142 47.8669 32.3885 47.1013 32.2846C45.3992 32.0536 43.694 31.8349 41.9919 31.6085C40.4885 31.4084 38.9635 31.2983 37.4897 30.9664C36.5454 30.7539 35.6742 30.2143 34.688 29.7847C35.9475 28.3424 37.5176 28.2493 39.0504 28.1299C39.7338 28.0756 40.4311 28.2214 41.1222 28.2524C41.8117 28.285 42.5043 28.2648 43.1923 28.3098C44.1397 28.3734 45.0854 28.4664 46.0297 28.5642C46.9646 28.6603 47.9026 28.7394 48.8282 28.8914C51.9762 29.4094 55.1195 29.9615 58.2659 30.4903C59.5129 30.6997 60.7615 30.9152 62.0148 31.0719C62.8814 31.1804 63.3784 31.593 63.5104 32.463C63.5476 32.7127 63.6703 32.95 63.7682 33.1872C64.1657 34.1534 63.6703 35.0963 62.7556 35.543C61.3905 36.2098 60.1077 37.0473 58.7659 37.7638C57.2005 38.5981 55.5869 39.3426 54.0308 40.1955C51.2121 41.7417 48.2365 43.077 46.258 45.7972C45.8355 46.3772 45.0094 46.2345 44.7236 45.5661C44.0915 44.0819 44.2515 43.0739 45.6958 41.8658C47.1214 40.6732 48.7009 39.662 50.2461 38.6199C51.4124 37.8336 52.6315 37.1233 53.8103 36.2378C53.495 36.2378 53.1782 36.2222 52.8629 36.2393C49.6202 36.4161 46.3776 36.5991 43.1349 36.7774C41.5166 36.8658 39.8984 36.976 38.277 37.0225C36.4957 37.0721 34.7113 37.0675 32.9285 37.0721C31.9159 37.0737 30.9033 37.069 29.8939 37.0225C29.2773 36.9946 28.667 36.8565 28.052 36.8162C27.8237 36.8007 27.5877 36.9729 27.3547 36.9713C26.9028 36.9682 26.4509 36.8814 25.9989 36.8689C24.9988 36.8395 23.9971 36.855 22.997 36.8162C21.0013 36.7402 19.0042 36.6487 17.0101 36.5402C16.7694 36.5262 16.5364 36.3649 16.2988 36.2703C16.3019 36.1959 16.305 36.1214 16.3081 36.047Z" fill="black"/>
</g>
<defs>
<clipPath id="clip0_16_9856">
<rect width="78" height="73" fill="white" transform="translate(0 0.5)"/>
</clipPath>
</defs>
</svg>
