<svg width="86" height="66" viewBox="0 0 86 66" fill="none" xmlns="http://www.w3.org/2000/svg">
<g clip-path="url(#clip0_16_9853)">
<path d="M22.8701 5.09285C23.8383 4.25578 25.0368 4.02749 26.345 3.80985C26.1758 3.99096 26.0599 4.11424 25.8251 4.36536C26.4655 4.03206 27.0921 4.22839 27.4428 3.49177C27.5907 3.17977 28.533 3.08541 29.0774 3.15998C29.948 3.27869 30.962 3.04888 31.2441 2.48576C32.3846 2.18594 33.4916 1.89525 34.7663 1.56042C34.5986 1.77653 34.5269 1.86633 34.3607 2.0794C34.9112 1.98352 35.3488 1.90742 35.7879 1.8298C35.7803 1.76436 35.7726 1.69892 35.765 1.63195C35.6247 1.60455 35.486 1.57716 35.3472 1.54976C35.4967 1.25451 36.3338 1.31995 36.5198 1.53911C36.933 1.37931 37.2837 1.16167 37.6557 1.11144C39.7721 0.826841 41.8885 0.545281 44.014 0.338297C45.5327 0.190668 47.0651 0.0795662 48.5899 0.105439C49.7426 0.125225 50.8877 0.467662 52.0435 0.525496C55.7944 0.709651 59.4752 1.23168 63.0325 2.47967C65.2602 3.26043 67.5077 3.9727 69.5341 5.2557C70.2309 5.69706 71.1747 5.73055 71.9264 6.10951C72.7071 6.50217 73.41 7.06225 74.1099 7.59493C74.3981 7.81409 74.5933 8.15348 74.7656 8.36199C75.6652 9.09404 76.5556 9.71804 77.3256 10.4668C78.5119 11.6205 79.6402 12.838 80.7457 14.0708C81.6484 15.0768 82.3208 16.2304 82.7309 17.5332C82.9749 18.3064 83.0603 19.3443 83.6031 19.7598C84.4341 20.396 84.0118 21.227 84.367 21.889C84.6888 22.4887 84.9358 23.1385 85.1401 23.7899C85.2895 24.2678 85.3002 24.7868 85.3962 25.283C86.491 30.9309 86.1449 36.4677 83.998 41.8296C83.3165 43.5341 82.5785 45.2509 81.6026 46.7957C79.8598 49.5519 77.9508 52.2046 75.3633 54.2836C74.6405 54.865 74.055 55.6168 73.3353 56.2013C72.7117 56.7066 72.0103 57.1327 71.2982 57.5101C70.1836 58.1022 69.0583 58.6881 67.8919 59.1645C65.1549 60.2816 62.3631 61.2663 59.649 62.4352C57.9626 63.1626 56.1359 63.2403 54.4389 63.8262C52.3301 64.5537 50.1619 64.7455 47.9586 64.8048C47.5256 64.817 47.1063 65.1046 46.6671 65.164C45.3162 65.3497 43.9591 65.5004 42.6021 65.6358C41.4478 65.75 40.2905 65.9037 39.1348 65.8991C36.84 65.8885 34.53 65.9204 32.255 65.6723C30.1081 65.438 27.9475 65.0453 25.9775 64.0469C25.0215 63.5614 24.0746 63.05 23.1628 62.4869C22.96 62.3606 22.8365 61.9694 22.8274 61.694C22.7908 60.691 22.8075 59.6865 22.8243 58.6836C22.8289 58.4401 22.864 58.1737 22.9692 57.9591C23.2101 57.4675 23.5013 57.0018 23.8139 56.4554C22.838 56.0734 21.9079 55.7082 20.9504 55.3338C20.9732 55.4844 20.99 55.594 21.0083 55.7234C19.1237 55.3292 17.6142 54.1953 15.9735 53.34C15.1273 52.8987 14.2765 52.4588 13.4653 51.9596C12.1265 51.1362 10.8046 50.2824 9.49784 49.4073C7.39671 48.001 5.48007 46.3726 3.82112 44.4595C1.62546 41.93 0.324828 38.9637 0.11441 35.6505C-0.0670376 32.777 -0.00299734 29.8762 0.147955 26.9967C0.271461 24.6559 1.07349 22.4354 2.01427 20.2956C2.69737 18.7432 3.68847 17.3978 5.12023 16.4192C5.31387 16.2868 5.53801 16.0539 5.56088 15.8469C5.67067 14.8637 6.44372 14.468 7.11767 13.9749C7.28387 13.8532 7.43635 13.7131 7.60102 13.5883C7.83889 13.4072 8.07675 13.2261 8.32224 13.0557C9.19136 12.4575 10.1703 11.9736 10.9128 11.2476C12.7303 9.47301 15.1105 8.68312 17.2528 7.27684C17.2421 7.51731 17.236 7.61928 17.2254 7.86431C17.9237 7.5447 18.5611 7.25249 19.1984 6.96028C19.1816 6.91005 19.1649 6.85831 19.1496 6.80808C18.8691 6.85374 18.5885 6.8994 18.3079 6.94506C19.6985 6.00145 21.1867 5.3181 22.8533 5.07459C23.6873 4.92696 24.5229 4.77781 25.357 4.63018L25.2822 4.31514C24.4802 4.57539 23.6782 4.83564 22.8762 5.09742L22.8701 5.09285ZM33.7493 58.8647C33.702 58.9103 33.6563 58.9575 33.609 59.0032C33.9033 59.2756 34.1854 59.7641 34.4949 59.7824C36.073 59.8768 37.6588 59.8433 39.243 59.8692C39.9902 59.8813 40.7464 60.0153 41.4814 59.9376C42.8704 59.7915 44.2412 59.408 45.6288 59.3471C48.3032 59.2299 50.9426 58.9651 53.5499 58.3426C54.6676 58.0763 55.8203 57.9485 56.9303 57.6608C58.6808 57.2073 60.4251 56.7233 62.142 56.1617C65.1748 55.1694 68.0703 53.8499 70.8256 52.2427C74.2715 50.2307 77.2235 47.6312 79.6875 44.4975C82.5541 40.854 84.1322 36.7904 83.8959 32.0587C83.7038 28.2066 82.737 24.6209 80.7152 21.3442C79.8186 19.8922 78.8016 18.5134 77.8181 17.1162C76.4565 15.1833 74.7198 13.6066 72.8596 12.1821C71.7114 11.3024 70.4444 10.5719 69.2078 9.8124C67.959 9.04534 66.7468 8.16109 65.4004 7.61928C63.4655 6.84157 61.4574 6.17191 59.4203 5.73968C57.1331 5.25418 54.785 5.01371 52.4506 4.79759C50.7672 4.64083 49.0625 4.64083 47.37 4.67888C45.9916 4.70932 44.6163 4.89348 43.241 5.01675C41.4265 5.1796 39.6044 5.28918 37.8006 5.53574C36.4451 5.72141 35.117 6.10342 33.7706 6.36215C33.0677 6.49761 32.2413 6.36215 31.6634 6.68785C30.6631 7.25401 29.5943 7.43056 28.5254 7.69385C27.7478 7.88562 26.9625 8.06825 26.2062 8.32851C25.3204 8.63442 24.4177 8.94185 23.6019 9.39234C22.7008 9.89002 21.638 9.71652 20.7445 10.3679C19.6589 11.1578 18.3491 11.6372 17.1705 12.3084C16.0879 12.9248 15.0831 13.6781 13.9868 14.2687C11.788 15.4543 9.95374 17.1193 8.11792 18.7508C6.12962 20.5178 4.55606 22.6546 3.51312 25.1399C2.61656 27.2813 2.03104 29.4866 2.02799 31.8258C2.02495 35.1893 3.54971 37.8481 5.88413 40.1219C8.80254 42.9649 12.1723 45.1793 15.7265 47.1396C18.5382 48.6905 21.3178 50.3007 24.1265 51.8561C27.6639 53.8133 31.0062 56.0476 34.0451 58.7216C34.0756 58.749 34.0817 58.8038 34.1061 58.8647H33.7493ZM25.0307 56.7218C25.3631 57.638 27.5694 58.676 28.3181 58.3685C27.4825 57.3975 26.6088 56.4296 25.0307 56.7218Z" fill="black"/>
<path d="M38.6942 32.9475C39.1912 33.5989 40.2144 33.7146 40.9798 33.4558C41.4677 33.2915 42.0426 33.3584 42.5778 33.3737C43.1678 33.3904 43.7549 33.5076 44.3434 33.5015C44.6118 33.4985 44.8786 33.3052 45.1927 33.3189C45.1226 33.3737 45.0525 33.4284 44.9838 33.4832C44.993 33.5243 45.0006 33.5639 45.0098 33.605C45.5602 33.5137 46.1076 33.3782 46.6611 33.3447C47.2695 33.3082 47.8839 33.3843 48.4954 33.3767C49.5033 33.363 50.5126 33.3356 51.519 33.2823C51.7584 33.2702 52.0313 33.1865 52.2204 33.0449C52.4872 32.8455 52.6702 32.6096 52.8684 33.1073C52.8882 33.156 53.364 33.1347 53.4768 33.0099C53.7009 32.7588 53.829 32.5396 54.0852 32.9551C54.1294 33.0267 54.291 33.1164 54.3108 33.0982C55.0046 32.494 55.9271 33.1058 56.6712 32.6401C56.935 32.4757 57.4442 32.0374 57.7279 32.7542C57.7431 32.7907 58.0709 32.7603 58.2112 32.6827C58.7906 32.36 59.367 32.3037 60.047 32.2961C61.1311 32.2855 62.2244 31.9841 63.2917 31.7208C63.9459 31.5595 64.2828 31.7695 64.3758 32.3737C64.4628 32.9384 64.5146 33.5198 64.4902 34.089C64.4643 34.7099 63.8605 35.0767 63.2353 35.1148C61.366 35.2289 59.5012 35.4131 57.6348 35.5546C54.6006 35.7844 51.5663 36.0325 48.5289 36.2106C47.1841 36.2897 45.8286 36.1908 44.4791 36.2182C42.6708 36.2562 40.8654 36.3551 39.0571 36.3917C38.3755 36.4054 37.6924 36.3156 37.0093 36.2821C36.7226 36.2684 36.4345 36.279 36.1463 36.279C36.1341 36.3491 36.1234 36.4175 36.1112 36.4876C36.8675 36.8056 37.6284 37.11 38.3785 37.4433C39.3956 37.8969 40.4217 38.3382 41.4052 38.8572C41.6949 39.0094 41.8581 39.4021 42.0776 39.6852C42.0914 39.7034 42.0944 39.7339 42.0959 39.7582C42.1295 40.5055 42.6113 41.3395 41.8062 41.9422C41.0316 42.5205 40.4812 41.758 39.8987 41.475C35.82 39.4949 31.5522 38.0719 27.1395 37.0659C25.2915 36.6443 23.4328 36.2745 21.5893 35.8362C21.3499 35.7798 21.013 35.4709 20.9947 35.2578C20.926 34.4238 20.9032 33.573 20.9886 32.742C21.0465 32.1759 21.5893 32.0617 22.0925 32.0176C24.6328 31.7954 27.173 31.5641 29.7148 31.3525C30.5001 31.2871 31.299 31.3312 32.0751 31.2155C32.7796 31.1105 33.452 30.797 34.1565 30.6813C35.3946 30.4759 36.6495 30.3754 37.8906 30.1821C38.4715 30.0923 39.0311 29.8732 39.609 29.7499C39.9308 29.6814 40.2815 29.7347 40.5986 29.651C40.9295 29.5642 41.2222 29.3253 41.5531 29.2537C41.9541 29.1685 42.3917 29.2522 42.7882 29.1563C44.4593 28.753 46.1442 28.3832 47.7803 27.8612C49.6664 27.26 51.5175 26.5401 53.3579 25.8096C54.1142 25.5098 54.4923 25.5828 54.7332 26.3773C54.8628 26.808 54.9375 27.263 54.9711 27.712C55.0305 28.508 54.6631 29.0239 53.9098 29.2416C51.6593 29.8899 49.4148 30.5641 47.1475 31.1516C45.8148 31.4971 44.441 31.6797 43.0931 31.9643C41.6492 32.2672 40.2128 32.6036 38.6957 32.9414L38.6942 32.9475Z" fill="black"/>
</g>
<defs>
<clipPath id="clip0_16_9853">
<rect width="86" height="65.7952" fill="white" transform="translate(0 0.102417)"/>
</clipPath>
</defs>
</svg>
