<svg width="300" height="509" viewBox="0 0 300 509" fill="none" xmlns="http://www.w3.org/2000/svg">
<g clip-path="url(#clip0_99_14332)">
<g filter="url(#filter0_b_99_14332)">
<rect x="19" y="20" width="261" height="473" fill="black"/>
</g>
<g clip-path="url(#clip1_99_14332)">
<path d="M297.787 22.4962C297.787 22.4962 297.744 22.4242 297.719 22.3642C298.137 21.5964 298.06 22.0283 297.787 22.4962Z" fill="black"/>
<path d="M295.095 291.4C291.839 288.353 290.908 296.354 287.293 291.772C288.72 292.204 292.976 287.609 295.095 291.4Z" fill="black"/>
<path d="M287.293 291.772H287.259L286.917 291.304C287.071 291.496 287.157 291.616 287.293 291.772Z" fill="black"/>
<path d="M295.599 89.989C294.959 89.845 294.471 89.5811 294.001 89.3052C294.377 89.3292 294.83 89.4851 295.599 89.989Z" fill="black"/>
<path d="M290.404 39.7113L290.891 40.9589C290.558 40.4671 290.447 40.0712 290.404 39.7113Z" fill="black"/>
<path d="M290.447 116.094C290.729 116.765 291.233 117.005 290.737 117.929C290.549 117.845 290.421 117.761 290.293 117.653C290.797 117.317 291.028 116.873 290.447 116.106V116.094Z" fill="black"/>
<path d="M290.429 143.266C290.147 143.122 289.942 142.93 289.695 142.762C289.771 142.498 289.823 142.174 289.891 141.898L290.429 143.266Z" fill="black"/>
<path d="M261.683 117.197L262.222 121.516C261.871 120.304 261.683 118.745 261.683 117.197Z" fill="black"/>
<path d="M265.17 474.372L264.734 475.368C264.648 474.984 264.76 474.636 265.17 474.372Z" fill="black"/>
<path d="M261.683 134.328C262.965 135.096 263.717 135.912 264.204 136.764C263.922 136.944 263.683 137.148 263.264 137.268L261.683 134.34V134.328Z" fill="black"/>
<path d="M264.478 263.532C263.221 264.696 262.939 262.86 261.145 262.668C261.675 264.048 265.264 264.432 262.999 266.291L260.692 265.871C266.947 273.081 256.454 286.709 266.264 292.048C262.572 298.946 268.921 303.817 263.375 312.202C265.426 314.853 267.349 309.131 267.93 312.706L264.324 320.468C258.274 327.99 272.314 340.034 267.426 349.272L267.768 348.876C269.366 348.66 271.305 350.603 270.758 352.115C269.622 352.643 269.032 351.623 267.674 350.711C264.973 359.097 264.854 360.932 264.315 367.566C266.699 364.699 266.392 370.218 269.707 370.506C267.537 372.245 266.264 369.498 264.452 373.385C264.144 378.903 267.016 384.002 268.178 388.584C265.23 390.444 266.041 392.879 262.393 392.999C262.179 399.237 260.726 402.716 260.76 410.37L262.017 410.562C257.462 412.626 264.324 417.196 261.7 418.624C263.307 418.408 263.973 417.592 265.238 417.796L263.768 421.275C265.144 419.632 269.46 418.696 269.947 421.551C266.751 424.526 267.768 420.735 265.161 422.187L269.383 423.087C268.921 425.33 264.144 425.966 262.863 423.219C262.914 430.884 260.889 438.442 261.589 445.268L264.349 444.549C263.333 448.327 263.35 453.438 265.768 455.681C264.956 455.789 263.486 456.713 262.581 456.113C259.128 460.264 265.913 457.169 263.785 460.528C264.443 459.58 265.05 458.705 266.238 458.549L262.854 467.75C264.905 467.846 269.502 473.436 267.691 477.323C266.537 477.479 264.973 476.364 264.743 475.368L263.717 477.863L268.502 479.783L264.307 483.382L268.306 483.442C267.682 485.505 264.461 486.597 263.213 488H294.651C295.044 486.921 295.471 485.853 296.266 484.893C287.336 480.238 300.966 466.394 291.002 457.865L297.855 457.325C297.719 454.062 299.077 449.875 293.942 448.351L294.044 449.071C288.806 449.395 293.933 445.808 292.771 443.769C293.344 442.233 296.762 440.686 297.796 442.017C294.318 433.344 297.924 420.471 291.72 415.073C293.959 406.387 299.402 399.825 298.693 390.444L297.881 390.552C296.958 387.385 295.104 381.051 289.387 381.063C290.72 374.308 298.573 370.002 296.035 361.94L293.856 363.679C292.728 361.64 295.454 358.353 296.121 357.537C296.01 356.829 294.873 357.345 294.07 357.441C292.122 355.51 295.198 354.37 295.762 352.823L293.822 353.446C289.9 347.028 297.633 336.891 296.676 328.637C296.104 330.161 293.933 329.345 293.019 328.745C299.394 325.362 297.873 316.065 299.342 312.61L296.847 314.745C301.026 308.003 290.148 308.915 294.369 302.233L298.026 306.072C296.941 303.349 298.172 301.033 301.009 301.681C298.898 298.514 296.146 301.297 295.54 296.511C293.762 296.307 294.318 299.954 292.01 298.382L287.276 291.76C286.764 291.568 286.636 290.728 287.14 288.545C295.07 289.121 287.567 283.062 295.292 286.385C295.881 277.004 290.643 269.086 294.318 261.037C286.601 257.738 294.027 245.069 284.106 245.873C284.021 241.326 285.995 237.631 290.019 234.836C290.806 235.748 289.549 236.9 289.062 237.823C291.592 236.636 292.002 231.153 291.968 228.874C289.712 231.861 287.772 236.696 283.969 239.035C284.935 234.908 288.644 229.138 289.883 226.834L284.764 225.779C288.515 222.3 280.628 222.863 285.678 219.372L287.208 220.032C286.841 213.638 291.942 213.566 292.6 207.616L290.575 207.88C289.772 205.84 294.557 202.805 289.925 200.814L289.729 204.689C286.157 204.293 284.576 201.33 282.773 199.998C283.713 195.883 288.618 198.546 289.097 196.495C285.747 195.619 287.293 196.279 284.004 197.707C285.2 193.112 286.618 186.922 290.917 183.659C290.387 183.455 289.643 183.683 289.643 183.683C289.045 178.908 295.095 174.697 292.233 171.77L291.737 172.694C286.815 168.867 296.394 162.797 287.969 162.005C286.405 160.193 288.302 166.12 284.166 163.216C281.508 157.53 291.241 159.461 288.857 154.459C289.122 155.143 288.609 154.927 287.849 155.155C288.037 151.532 288.857 146.733 289.72 142.738C282.859 137.832 291.429 127.73 283.44 122.104C286.046 123.748 286.644 121.18 287.712 120.748C287.447 120.796 287.046 120.832 286.738 120.688C286.524 118.637 289.208 118.385 290.336 117.617C287.9 115.938 292.959 111.931 291.352 110.863C293.13 110.839 292.66 109.196 292.634 107.36C290.643 111.031 288.832 108.536 286.046 110.191C285.174 104.721 293.856 103.917 292.472 98.2189L289.097 95.0758C294.215 94.4399 292.139 89.1494 294.036 89.2694C292.438 88.2977 291.515 86.8701 288.951 87.074C290.19 84.7947 287.567 81.3876 290.609 80.4399L291.942 82.7073C290.011 75.6533 297.36 71.4425 293.95 66.008L286.285 66.116C283.149 62.505 290.498 59.4339 285.858 56.3028C288.43 57.3945 287.661 57.6344 290.182 55.319C290.712 56.6867 288.721 59.2179 288.763 61.5093L293.267 56.6507L291.088 64.2205C294.104 60.9814 293.352 61.2094 296.445 62.541C298.915 57.9343 292.771 57.5744 295.762 53.1956C294.702 51.6001 291.942 53.2436 290.378 51.4321C292.788 47.9771 286.653 44.822 287.969 42.2068C287.755 42.4707 287.43 42.6506 286.892 42.5787C287.618 40.0594 287.319 38.2479 289.618 37.5161L290.464 39.6755C290.259 37.78 293.378 37.4681 291.592 33.8451C293.352 31.7577 297.155 30.5701 297.197 32.8494C297.693 31.9257 295.625 29.8983 293.318 30.6181C293.224 24.9677 301.496 27.9188 297.847 22.4724C297.616 22.8443 297.223 23.2401 296.77 23.0362C296.428 22.1844 296.3 21.4167 296.36 20.7449C295.001 23.2761 290.686 18.6814 291.934 23.804C287.849 23.1802 291.088 19.4732 289.524 17.6617C292.284 14.8905 295.386 17.3498 297.403 15.9582C296.121 15.9822 296.104 14.8305 295.574 13.4749L298.659 14.7945C298.65 13.6429 298.625 12.5032 299.368 11.1236L298.129 13.4389C297.864 12.2273 296.591 10.7157 295.668 8.9762H269.135C268.938 9.69599 268.802 10.4398 268.733 11.1956C268.93 10.5238 269.784 10.8357 270.459 10.6317C271.553 14.4946 269.041 16.81 266.528 19.1253C268.041 18.6574 268.537 17.7337 269.827 17.7097C269.887 22.2804 267.058 20.4809 265.614 25.5315C267.639 24.1399 268.673 24.5718 269.195 25.9514C267.417 25.7354 266.152 26.8991 265.648 27.8228C275.279 24.0319 269.579 33.4732 277.202 31.0859C275.159 31.3378 270.955 39.1716 267.101 36.9283L267.819 35.5606C265.161 35.4047 266.212 37.2642 266.016 38.6798C266.46 37.948 267.058 37.1802 267.605 37.1562C264.418 44.2942 267.357 51.792 264.948 59.8058C265.947 59.11 267.691 55.8709 268.485 57.9343C269.895 65.9 264.871 70.5307 262.461 78.5684C268.605 78.9283 263.333 69.8829 269.186 69.571C267.81 78.0406 265.674 86.7501 262.521 96.1554C271.519 99.4425 258.846 105.333 265.871 111.175C262.854 110.623 261.769 113.527 261.683 116.694C264.144 115.602 264.204 118.949 265.982 118.013C263.221 120.784 262.085 128.798 267.956 128.486C262.273 129.206 268.229 134.449 264.213 136.728C266.34 140.231 263.025 144.238 264.743 148.629C261.495 147.225 262.726 151.928 261.871 154.027C262.128 153.643 262.452 153.307 262.786 153.451C265.888 154.771 260.068 158.514 261.906 160.985C263.196 162.113 265.204 160.709 265.495 162.533C262.948 162.569 259.991 169.239 263.102 171.71C263.085 170.57 264.375 170.546 265.358 169.851C261 181.547 266.315 194.036 261.171 205.984L265.452 203.861C270.963 211.323 258.402 208.767 259.017 214.682C261.102 230.877 267.255 247.672 264.478 263.472V263.532Z" fill="black"/>
<path d="M263.375 483.369L264.289 483.381L263.486 484.089L263.375 483.369Z" fill="black"/>
<path d="M266.007 38.6915C265.99 38.8955 265.939 39.0874 265.845 39.2554C265.136 40.587 265.418 39.6872 266.007 38.6915Z" fill="black"/>
<path d="M261.615 116.729C261.615 116.729 261.649 116.729 261.675 116.729C261.658 116.897 261.675 117.041 261.675 117.209L261.615 116.741V116.729Z" fill="black"/>
<path d="M293.651 138.431L289.566 137.807C290.301 136.416 294.89 136.116 293.651 138.431Z" fill="black"/>
<path d="M289.49 219.324C291.532 220.2 292.848 222.479 290.84 223.883C290.558 222.06 288.968 220.248 289.49 219.324Z" fill="black"/>
<path d="M296.146 461.919L297.513 460.288L296.377 463.359L296.146 461.919Z" fill="black"/>
</g>
<g clip-path="url(#clip2_99_14332)">
<path d="M38.787 33.1511C38.787 33.1511 38.7443 33.0811 38.7186 33.0229C39.1373 32.2768 39.0604 32.6965 38.787 33.1511Z" fill="black"/>
<path d="M36.0952 294.432C32.8394 291.471 31.908 299.246 28.2933 294.793C29.7204 295.213 33.9759 290.748 36.0952 294.432Z" fill="black"/>
<path d="M28.2934 294.792H28.2592L27.9174 294.339C28.0712 294.525 28.1566 294.641 28.2934 294.792Z" fill="black"/>
<path d="M36.5994 98.7306C35.9585 98.5907 35.4715 98.3343 35.0015 98.0662C35.3775 98.0895 35.8304 98.241 36.5994 98.7306Z" fill="black"/>
<path d="M31.4038 49.8782L31.8909 51.0905C31.5576 50.6125 31.4465 50.2279 31.4038 49.8782Z" fill="black"/>
<path d="M31.4465 124.095C31.7285 124.748 32.2327 124.981 31.7371 125.879C31.5491 125.797 31.4209 125.715 31.2927 125.611C31.7969 125.284 32.0276 124.853 31.4465 124.107V124.095Z" fill="black"/>
<path d="M31.4295 150.497C31.1475 150.357 30.9424 150.171 30.6946 150.008C30.7715 149.751 30.8228 149.436 30.8911 149.168L31.4295 150.497Z" fill="black"/>
<path d="M2.68323 125.168L3.22158 129.364C2.87122 128.187 2.68323 126.671 2.68323 125.168Z" fill="black"/>
<path d="M6.16973 472.217L5.73392 473.185C5.64847 472.812 5.75956 472.473 6.16973 472.217Z" fill="black"/>
<path d="M2.68323 141.813C3.96502 142.559 4.717 143.352 5.20408 144.179C4.92209 144.354 4.68282 144.552 4.2641 144.669L2.68323 141.825V141.813Z" fill="black"/>
<path d="M5.47751 267.343C4.22135 268.473 3.93936 266.69 2.14485 266.503C2.67466 267.844 6.26367 268.217 3.99917 270.024L1.69195 269.616C7.94709 276.621 -2.5465 289.863 7.26347 295.05C3.57191 301.753 9.92105 306.485 4.37517 314.633C6.42603 317.209 8.34872 311.649 8.92979 315.123L5.32369 322.664C-0.72636 329.973 13.3135 341.676 8.42562 350.652L8.76743 350.267C10.3654 350.057 12.3052 351.946 11.7583 353.414C10.6218 353.927 10.0321 352.936 8.67344 352.05C5.97313 360.198 5.8535 361.982 5.31515 368.428C7.69928 365.642 7.39165 371.004 10.7072 371.284C8.53671 372.974 7.26347 370.305 5.45187 374.081C5.14424 379.443 8.01545 384.397 9.17761 388.85C6.22949 390.657 7.04129 393.023 3.39246 393.14C3.17883 399.201 1.72613 402.582 1.76031 410.018L3.01647 410.205C-1.53816 412.21 5.32369 416.651 2.70029 418.038C4.3068 417.828 4.97334 417.036 6.23804 417.234L4.76825 420.614C6.14404 419.017 10.4594 418.108 10.9465 420.882C7.75055 423.773 8.76743 420.09 6.16113 421.5L10.3825 422.374C9.92105 424.554 5.14424 425.172 3.86245 422.502C3.91372 429.951 1.88849 437.295 2.5892 443.927L5.34933 443.228C4.33244 446.9 4.34953 451.865 6.76784 454.045C5.95604 454.15 4.48625 455.047 3.58046 454.465C0.128167 458.498 6.91311 455.49 4.78534 458.754C5.44332 457.833 6.05004 456.982 7.23783 456.831L3.8539 465.771C5.90477 465.865 10.5021 471.297 8.69053 475.073C7.53692 475.225 5.97313 474.141 5.74241 473.173L4.71698 475.598L9.50233 477.463L5.3066 480.96L9.30579 481.018C8.51108 483.594 3.37537 484.62 3.73427 486.707C3.88809 487.173 4.03336 487.592 4.17008 487.989H34.5058C35.5996 486.194 35.8047 484.131 37.2659 482.429C28.3361 477.906 41.9658 464.454 32.002 456.167L38.8553 455.642C38.7186 452.471 40.0773 448.403 34.9416 446.923L35.0441 447.622C29.8059 447.937 34.9331 444.452 33.7709 442.47C34.3434 440.978 37.7615 439.474 38.7955 440.768C35.3176 432.341 38.9237 419.833 32.7198 414.588C34.9587 406.148 40.402 399.772 39.6928 390.657L38.881 390.762C37.9581 387.684 36.1038 381.53 30.387 381.541C31.72 374.979 39.5731 370.794 37.0352 362.961L34.8561 364.651C33.7282 362.67 36.4541 359.476 37.1206 358.683C37.0095 357.995 35.873 358.497 35.0698 358.59C33.1215 356.713 36.1978 355.606 36.7617 354.102L34.822 354.708C30.8997 348.472 38.6332 338.622 37.6761 330.603C37.1035 332.083 34.9331 331.29 34.0187 330.707C40.3935 327.42 38.8724 318.386 40.3422 315.029L37.847 317.104C42.0256 310.553 31.1475 311.439 35.3689 304.946L39.0262 308.677C37.941 306.031 39.1715 303.781 42.0085 304.41C39.8979 301.333 37.1463 304.037 36.5396 299.386C34.7621 299.188 35.3176 302.732 33.0104 301.205L28.2763 294.77C27.7636 294.584 27.6354 293.768 28.1396 291.646C36.0696 292.206 28.5668 286.319 36.2917 289.548C36.8814 280.433 31.6431 272.74 35.3176 264.918C27.6012 261.712 35.027 249.403 25.106 250.184C25.0205 245.766 26.9945 242.176 31.0193 239.46C31.8055 240.346 30.5493 241.465 30.0622 242.363C32.5916 241.209 33.0018 235.882 32.9676 233.667C30.7117 236.569 28.7719 241.267 24.9693 243.54C25.9349 239.53 29.6435 233.923 30.8826 231.685L25.764 230.659C29.5153 227.279 21.6281 227.827 26.6783 224.435L28.2079 225.076C27.8405 218.863 32.942 218.793 33.6 213.012L31.5748 213.268C30.7715 211.286 35.5569 208.337 30.9253 206.402L30.7288 210.167C27.1569 209.783 25.576 206.904 23.7729 205.61C24.7129 201.611 29.6179 204.199 30.0964 202.206C26.7467 201.355 28.2934 201.996 25.0034 203.383C26.1998 198.919 27.6183 192.904 31.9166 189.733C31.3868 189.535 30.6433 189.757 30.6433 189.757C30.0452 185.117 36.0952 181.026 33.2325 178.182L32.7369 179.079C27.8148 175.361 37.3941 169.463 28.9685 168.693C27.4047 166.933 29.3017 172.692 25.1658 169.871C22.5082 164.346 32.2413 166.222 29.8572 161.361C30.1221 162.026 29.6093 161.816 28.8488 162.038C29.0368 158.517 29.8572 153.855 30.7202 149.973C23.8584 145.206 32.4293 135.391 24.4395 129.924C27.0458 131.521 27.6439 129.026 28.7121 128.607C28.4472 128.653 28.0456 128.688 27.7379 128.548C27.5243 126.555 30.2075 126.31 31.3355 125.564C28.9001 123.932 33.9589 120.039 32.3524 119.002C34.1298 118.978 33.6598 117.381 33.6342 115.598C31.6431 119.165 29.8315 116.74 27.0458 118.349C26.1741 113.034 34.8561 112.253 33.4718 106.716L30.0964 103.662C35.215 103.044 33.1385 97.9034 35.0356 98.02C33.4376 97.0758 32.5147 95.6887 29.9512 95.8868C31.1902 93.6721 28.5668 90.3616 31.6089 89.4408L32.942 91.6438C31.0108 84.7898 38.3597 80.6984 34.9501 75.418L27.285 75.5229C24.1489 72.0143 31.4979 69.0302 26.8578 65.9879C29.4299 67.0486 28.6608 67.2817 31.1817 65.032C31.7115 66.3609 29.7204 68.8204 29.7632 71.0468L34.2665 66.3259L32.0875 73.6812C35.104 70.5339 34.352 70.7554 37.4454 72.0492C39.9149 67.5731 33.7709 67.2234 36.7617 62.9688C35.7021 61.4185 32.942 63.0154 31.3782 61.2553C33.788 57.8982 27.6525 54.8326 28.9685 52.2914C28.7548 52.5479 28.4301 52.7227 27.8917 52.6528C28.6181 50.2049 28.319 48.4448 30.6177 47.7337L31.4637 49.8319C31.2586 47.9902 34.3776 47.6871 32.5916 44.1668C34.352 42.1386 38.1546 40.9846 38.1973 43.1994C38.693 42.3018 36.625 40.3319 34.3178 41.0312C34.2238 35.541 42.4956 38.4085 38.8468 33.1165C38.6161 33.4778 38.223 33.8625 37.7701 33.6643C37.4283 32.8367 37.3001 32.0907 37.3599 31.4379C36.0012 33.8975 31.6858 29.433 32.9335 34.4103C28.8488 33.8042 32.0875 30.2023 30.5237 28.4422C33.2838 25.7495 36.3857 28.1391 38.4024 26.787C37.1206 26.8103 37.1035 25.6913 36.5737 24.3741L39.6586 25.6563C39.65 24.5373 39.6244 23.4299 40.3678 22.0894L39.1288 24.3391C38.8126 22.9287 37.0352 21.0869 36.1721 18.9655H10.4679C10.0578 20.0961 9.75869 21.2734 9.68178 22.5207C9.66469 21.4017 10.673 21.833 11.4506 21.6115C12.5444 25.3649 10.0321 27.6146 7.51983 29.8643C9.03234 29.4097 9.52796 28.5121 10.8183 28.4888C10.8781 32.93 8.04963 31.1815 6.60548 36.0889C8.63071 34.7367 9.66469 35.1564 10.1859 36.4969C8.40853 36.287 7.14383 37.4177 6.63966 38.3153C16.2702 34.6318 10.5705 43.8055 18.1929 41.4859C16.1505 41.7306 11.9463 49.3423 8.09236 47.1626L8.81016 45.8337C6.15258 45.6822 7.20365 47.489 7.00711 48.8644C7.45146 48.1534 8.04963 47.4074 8.59653 47.384C5.40914 54.3197 8.34872 61.605 5.93895 69.3916C6.93875 68.7155 8.68198 65.5682 9.47669 67.5731C10.8867 75.3131 5.86204 79.8125 3.45228 87.6223C9.59633 87.972 4.32389 79.183 10.1774 78.88C8.80162 87.1095 6.6653 95.5721 3.51209 104.711C12.5103 107.905 -0.162373 113.628 6.86184 119.305C3.84536 118.769 2.76011 121.589 2.67466 124.667C5.1357 123.606 5.19551 126.858 6.97293 125.949C4.21281 128.642 3.07629 136.428 8.94689 136.125C3.26428 136.825 9.22033 141.918 5.20406 144.133C7.33183 147.537 4.01626 151.43 5.73386 155.696C2.48666 154.333 3.71718 158.902 2.86265 160.942C3.11901 160.569 3.44373 160.242 3.777 160.382C6.87893 161.665 1.0596 165.301 2.89683 167.703C4.18717 168.798 6.19531 167.435 6.48585 169.206C3.93936 169.241 0.982694 175.722 4.09317 178.124C4.07608 177.016 5.36642 176.993 6.34912 176.317C1.99104 187.682 7.30619 199.816 2.16194 211.426L6.44312 209.363C11.9548 216.613 -0.606726 214.131 0.00853346 219.877C2.09358 235.614 8.24617 251.933 5.46896 267.284L5.47751 267.343Z" fill="black"/>
<path d="M4.37512 480.959L5.28947 480.971L4.48621 481.659L4.37512 480.959Z" fill="black"/>
<path d="M7.00716 48.8873C6.99007 49.0855 6.9388 49.272 6.8448 49.4352C6.13554 50.7291 6.41754 49.8548 7.00716 48.8873Z" fill="black"/>
<path d="M2.61487 124.713C2.61487 124.713 2.64905 124.713 2.67469 124.713C2.65759 124.876 2.67469 125.015 2.67469 125.178L2.61487 124.725V124.713Z" fill="black"/>
<path d="M34.651 145.8L30.5664 145.193C31.3013 143.841 35.8901 143.55 34.651 145.8Z" fill="black"/>
<path d="M30.4896 224.4C32.5319 225.25 33.8479 227.465 31.8397 228.829C31.5577 227.057 29.9683 225.297 30.4896 224.4Z" fill="black"/>
<path d="M37.1462 460.106L38.5135 458.532L37.377 461.505L37.1462 460.106Z" fill="black"/>
</g>
<g clip-path="url(#clip3_99_14332)">
<path d="M8.40342 479.613C8.11121 479.51 7.98739 479.083 7.97253 478.698C8.24493 478.98 8.47276 479.245 8.40342 479.613Z" fill="black"/>
<path d="M15.0104 474.879C14.8668 475.015 14.7479 475.075 14.6191 475.169C14.7677 474.776 14.9163 474.554 15.0104 474.879Z" fill="black"/>
<path d="M27.0999 470.213C27.0999 470.213 27.0702 470.256 27.0455 470.281C26.7285 469.863 26.9068 469.94 27.0999 470.213Z" fill="black"/>
<path d="M138.12 472.896C136.862 476.152 140.166 477.083 138.274 480.698C138.452 479.271 136.555 475.015 138.12 472.896Z" fill="black"/>
<path d="M138.274 480.707V480.741L138.081 481.083C138.16 480.929 138.209 480.843 138.274 480.707Z" fill="black"/>
<path d="M54.969 472.401C54.9095 473.042 54.8006 473.529 54.6866 473.999C54.6966 473.623 54.7609 473.17 54.969 472.401Z" fill="black"/>
<path d="M34.2072 477.588L34.7222 477.1C34.5192 477.434 34.3557 477.545 34.2072 477.588Z" fill="black"/>
<path d="M65.7461 477.553C66.0234 477.271 66.1225 476.767 66.5039 477.263C66.4692 477.451 66.4345 477.579 66.3899 477.707C66.2513 477.203 66.068 476.972 65.751 477.553H65.7461Z" fill="black"/>
<path d="M76.964 477.571C76.9046 477.853 76.8253 478.058 76.756 478.305C76.6471 478.229 76.5133 478.177 76.3994 478.109L76.964 477.571Z" fill="black"/>
<path d="M294.136 503.352C294.384 502.326 294.532 501.198 294.656 500.07C294.483 502.659 296.132 503.591 294.136 503.352Z" fill="black"/>
<path d="M66.2017 506.317L67.9846 505.778C67.4844 506.129 66.8406 506.317 66.2017 506.317Z" fill="black"/>
<path d="M213.659 502.83L214.07 503.266C213.912 503.352 213.768 503.24 213.659 502.83Z" fill="black"/>
<path d="M73.2742 506.317C73.5911 505.035 73.9279 504.283 74.2796 503.796C74.3539 504.078 74.4381 504.317 74.4876 504.736L73.2791 506.317H73.2742Z" fill="black"/>
<path d="M300 502.95C298.588 500.6 296.281 503.198 294.864 498.848C294.75 499.276 294.691 499.677 294.661 500.036C294.914 497.635 294.953 495.2 294.899 493.465C294.136 493.379 293.487 490.44 293.2 493.567C293.665 493.473 293.705 494.738 293.923 495.721L293.126 494.362C292.407 498.866 294.215 495.917 294.215 499.259C292.66 497.789 290.847 494.063 289.654 495.336C289.406 499.746 292.442 496.823 290.852 500.737L292.695 499.054C291.283 506.009 293.814 498.566 292.521 506.009C290.095 507.283 289.807 503.762 287.385 505.052C286.841 502.608 287.564 501.429 287.019 498.977C283.577 494.576 284.31 510.06 281.779 504.189C281.125 501.25 280.868 495.678 279.07 498.626L279.684 503.608C277.336 504.095 278.342 496.447 275.88 499.797C276.316 501.754 277.728 501.446 277.371 502.036C275.776 505.967 276.242 499.207 275.018 499.207L274.766 503.617C272.265 502.925 269.506 499.737 266.738 498.934C266.891 500.241 267.367 501.626 266.718 502.976C263.221 500.771 259.259 503.514 255.886 506.129L254.598 502.318C254.301 502.361 254.044 504.035 254.366 504.779C253.053 506.223 254.296 502.361 253.667 500.865C252.919 500.6 252.682 503.053 253.152 504.198C250.834 500.968 246.55 497.242 244.104 501.318L244.579 502.446C242.677 503.993 242.435 494.644 240.666 498.19L241.003 498.866C236.878 500.515 232.311 497.028 229.161 502.779C228.562 497.293 225.075 505.223 224.808 497.575C222.45 501.369 223.124 502.728 219.806 505.283C218.919 505.633 218.483 500.506 217.389 499.712L217.364 503.711L215.878 499.515L215.086 504.3L214.055 503.275C214.466 503.044 214.927 501.48 214.863 500.327C213.258 498.515 210.95 503.113 210.91 505.163L207.112 501.779C207.176 502.967 207.538 503.583 207.929 504.232C206.547 502.104 207.825 508.881 206.106 505.437C206.354 504.531 205.973 503.053 205.928 502.249C205.002 504.668 202.892 504.685 201.332 503.668L201.629 506.428C198.811 507.129 195.686 505.104 192.526 505.155C193.66 503.873 193.398 499.096 192.471 498.635L192.1 502.856C191.501 500.25 193.071 501.267 191.837 498.071C190.654 498.558 191.045 502.873 191.724 504.249L190.287 502.779C190.203 504.044 190.54 504.711 190.629 506.317C190.04 503.694 188.148 510.555 187.301 506.001L187.222 507.257C184.062 507.291 182.625 505.838 180.05 505.625C180 501.976 178.995 502.788 178.227 499.84C176.335 501.002 174.235 503.873 171.952 503.565C170.348 501.754 171.482 500.481 170.764 498.31C170.645 501.634 168.367 501.318 169.55 503.702C166.811 503.164 166.054 503.044 162.592 500.344C162.968 498.977 163.389 498.387 163.171 497.259C162.542 496.712 161.74 498.652 161.834 500.25L161.997 500.592C158.184 495.704 153.216 509.744 150.106 503.694L146.901 500.088C145.425 500.66 147.788 502.583 146.693 504.642C143.231 499.096 141.226 505.445 138.373 501.754C136.169 511.555 130.543 501.062 127.566 507.325L127.739 505.018C126.972 502.754 126.808 506.343 126.244 506.872C126.323 505.078 127.081 504.796 126.6 503.54C120.082 500.754 113.144 506.915 106.457 509C104.011 509.615 105.071 497.054 101.99 502.566L102.867 506.847C97.9338 501.703 92.778 507.026 87.9491 502.66C88.2364 503.651 88.2463 504.933 88.7168 504.916C87.6965 508.026 84.9428 505.069 84.928 502.523C84.1752 502.813 84.7546 504.822 84.2891 506.112C83.2639 507.949 81.7186 502.138 81.1788 505.232C81.1193 505.565 81.258 505.89 81.4165 506.146C80.5498 505.292 78.6083 506.531 79.1878 503.275C77.3751 504.993 75.7209 501.677 74.2747 503.805C73.3336 499.788 71.1693 505.736 70.8721 500.062C71.0009 505.932 67.6925 504.796 66.5484 502.036C66.9298 503.813 65.5529 503.873 66.0036 506.334C64.6961 506.249 63.4975 505.163 63.7254 502.147C61.3134 509.171 58.8816 496.499 57.5245 505.497C53.6367 502.343 50.041 500.207 46.5493 498.831C46.6731 504.685 50.4124 499.412 50.2638 505.556C46.9455 503.147 45.0338 498.122 41.7452 499.532C40.8933 500.327 42.2305 502.07 42.5178 503.07C39.2044 500.66 36.1139 503.6 33.167 500.412C33.1769 500.959 33.4939 501.549 33.796 502.002C33.2166 501.805 32.4439 502.856 32.5083 500.199L33.0729 500.916C33.9991 497.054 30.765 492.85 30.661 490.816C31.6466 498.438 27.7488 492.73 29.3138 502.369C28.9325 501.865 28.452 500.609 28.5412 498.823C27.9716 499.344 27.7933 500.378 28.3679 502.403C26.2877 500.959 27.0257 498.131 25.1387 498.19C25.1436 499.481 25.525 499.976 25.7231 501.489C24.7672 498.977 23.8113 496.464 22.2166 497.558C22.3107 498.336 22.1274 499.344 22.6029 499.327C19.869 498.934 17.9374 492.636 14.9361 495.063C15.8226 500.66 13.9158 496.9 13.7573 501.745L12.1427 500.301L12.7915 497.951C11.38 498.037 10.127 494.507 8.91355 496.088L9.96353 498.088L7.31382 497.174L8.8145 495.336C7.38316 492.841 8.96803 489.209 7.086 490.56C7.46736 491.047 5.66952 490.619 4.93652 493.473C4.93652 493.473 4.93652 493.473 4.93652 493.491C4.362 492.226 3.77262 490.901 3 491.141V473.332C4.48582 473.025 4.57497 479.878 6.51148 478.408C6.23413 479.946 5.97659 484.057 7.58622 485.509C9.09185 484.937 9.43854 479.049 8.48762 477.819C8.12607 477.69 7.95272 478.177 7.96758 478.699C7.48222 478.135 6.84331 477.477 7.43764 475.81L7.6308 477.349C8.37866 475.776 10.4489 475.939 9.96353 473.418C10.9392 474.674 10.5975 475.631 9.95362 476.383C11.6772 474.768 12.747 476.588 14.6141 475.178C14.2972 476.024 14.005 477.836 14.3219 477.819C17.2391 475.913 15.6047 480.741 17.5808 481.416C18.7051 479.066 17.1796 475.81 19.1657 477.776C20.3791 476.186 19.4232 473.691 18.9379 472.435C20.7506 475.4 22.3255 470.487 23.3606 469.94L22.4048 468.701C22.9743 469.436 23.4448 469.419 23.9203 469.41L23.3755 472.495C23.9352 471.956 24.4106 471.939 24.4007 470.666C24.9802 472.683 23.9599 475.785 25.104 478.545C25.8519 476.981 27.3823 480.22 27.6398 476.135C25.525 477.383 27.4219 473.067 26.3769 471.709C26.6592 471.777 26.9712 471.64 27.3228 471.299C27.407 470.846 27.2436 470.453 27.0901 470.222C29.3386 466.573 28.1252 474.845 30.453 474.751C30.1558 472.452 30.9928 470.384 31.3742 470.871C30.4331 470.914 30.9235 474.717 31.7852 476.477C33.281 474.682 33.4097 477.81 34.1923 477.605L33.3008 478.451C33.6029 480.75 34.3507 480.45 35.3908 481.177C35.4156 480.638 35.3413 480.314 35.2373 480.1C36.317 481.416 37.6195 475.281 39.0459 477.69C39.7938 476.127 39.1202 473.366 39.774 472.307C41.5817 475.289 41.7303 469.154 43.6322 471.623C43.0824 474.717 42.9883 473.965 44.3255 476.981L41.2004 474.802L43.2062 479.305C42.2652 479.348 41.2152 477.357 40.6506 477.887C41.6065 480.408 41.5074 479.639 41.0567 482.211C42.3494 477.571 43.6123 484.92 45.1081 481.784L45.0635 474.118C47.3071 470.709 49.0455 478.049 51.9577 476.127L51.0216 477.46C51.4129 480.502 52.8195 477.887 53.7605 479.117C53.6713 476.554 54.2607 475.622 54.6668 474.033C54.6173 475.93 56.7965 473.862 57.0639 478.972L58.3616 475.597C60.7141 474.212 61.0459 482.894 63.3044 482.023C62.6258 479.237 63.6511 477.425 62.1355 475.434C62.8883 475.409 63.5669 474.939 63.5817 476.716C64.0225 475.11 65.6718 480.169 66.3701 477.733C66.6871 478.861 66.7911 481.544 67.638 481.331C67.6925 481.014 67.6826 480.621 67.6628 480.356C67.8411 481.425 68.901 482.014 68.2224 484.629C70.5453 476.639 74.7204 485.21 76.7411 478.348C78.3854 479.211 80.3715 480.032 81.8672 480.22C81.7731 479.451 81.8672 478.947 81.5799 479.211C83.6403 476.827 82.8478 486.56 85.1954 483.903C86.394 479.767 83.9473 481.664 84.6952 480.1C85.0221 471.675 87.5281 481.254 89.1081 476.332L88.7267 475.836C89.9352 472.973 91.6736 479.032 93.6448 478.425C93.6448 478.425 93.5507 477.682 93.6349 477.152C94.982 481.45 97.5376 482.869 99.4345 484.065C98.8451 480.767 98.5727 482.322 98.9343 478.972C99.7861 479.451 98.6866 484.356 100.38 485.296C100.93 483.493 102.158 481.912 102.317 478.34L100.717 478.143C101.539 473.512 102.787 478.306 103.634 477.494L103.525 475.469C105.977 476.127 106.012 481.22 108.652 480.861L108.379 482.39C109.82 487.441 109.588 479.553 111.024 483.305L111.46 478.186C112.411 479.425 114.793 483.134 116.497 484.099C115.531 480.305 113.535 478.357 112.302 476.101C113.243 476.067 115.506 476.477 115.996 479.006C115.615 478.511 115.14 477.255 114.763 478.049C115.922 482.074 117.443 484.057 119.32 483.963C118.988 474.033 124.218 481.459 125.58 473.751C128.903 477.425 132.172 472.187 136.045 472.777C134.673 480.502 137.174 472.999 136.937 480.929C137.838 481.433 138.185 481.305 138.264 480.792L140.998 476.058C141.647 473.751 140.141 474.306 140.225 472.529C142.201 471.922 141.052 469.171 142.36 467.06C142.092 469.897 143.048 471.128 144.172 470.042L142.588 473.7C145.346 477.921 144.975 467.043 147.753 471.222L146.872 468.726C148.298 470.196 152.136 468.675 153.533 475.05C153.786 474.136 154.118 471.965 153.489 471.393C156.901 470.435 161.081 478.177 163.731 474.247L163.473 472.307C164.107 472.871 164.583 475.947 165.38 473.999C165.34 473.196 165.122 472.059 165.42 471.948C165.756 472.614 167.109 475.349 167.955 474.212L167.237 472.033C170.566 469.495 172.344 477.349 175.132 478.682C175.127 472.973 177.742 471.119 179.05 470.188L179.005 469.376C182.878 468.667 185.587 474.11 189.173 476.349C191.402 470.153 196.716 473.751 200.297 470.273C199.752 471.307 200.386 474.725 201.02 475.298C201.862 474.136 203.343 479.263 203.209 474.024L202.912 474.127C203.546 468.991 205.269 470.35 206.616 470.213L206.839 477.067C210.366 467.103 216.076 480.724 217.998 471.803C218.85 473.52 219.905 473.495 220.747 475.212L220.702 471.538C223.059 470.598 224.238 470.136 227.15 471.017L226.556 468.393C228.2 468.154 228.631 478.981 230.147 479.203L230.602 473.717C233.47 473.802 236.372 468.991 239.205 473.965C239.161 473.161 239.077 471.572 238.611 471.358C239.914 471.222 243.564 467.897 243.376 474.426C243.707 470.777 246.387 474.819 247.848 476.853L247.605 473.238C248.913 477.853 248.952 479.117 250.78 480.399C251.166 479.981 251.161 478.015 250.75 478.246C251.998 476.981 251.78 481.775 253.454 479.929L252.806 477.622C254.286 477.34 254.172 478.579 254.985 481.271C255.916 482.724 257.798 480.356 258.016 477.092C258.214 479.083 259.026 481.749 259.903 480.809C260.022 479.57 259.705 478.81 259.541 478.434C262.023 475.973 263.226 482.638 264.935 479.083C264.969 477.887 265.083 477.289 265.222 476.93C263.414 477.007 261.933 477.186 261.815 477.417C261.834 474.144 263.394 473.529 262.136 468.957C263.414 471.469 265.598 476.93 267.149 475.366C267.223 475.041 267.297 474.725 267.352 474.212L267.193 473.836C267.55 473.503 267.872 473.811 268.174 474.375C268.669 473.828 268.981 473.418 269.457 473.375C269.64 470.615 271.279 471.888 272.077 471.751C272.012 475.358 273.023 474.836 272.106 477.733C272.131 477.528 271.859 477.374 271.398 477.246C271.279 477.135 271.14 477.084 271.061 476.87C271.076 476.964 271.096 477.075 271.116 477.195C270.596 477.092 269.917 477.007 269.145 476.947C269.774 478.801 270.427 480.356 271.304 478.331C271.71 480.673 272.161 483.082 272.413 484.219C273.498 479.135 275.593 476.383 275.885 473.247C278.307 475.289 281.591 474.597 283.116 481.45C283.805 482.33 283.909 479.485 284.166 478.408C283.77 477.725 283.294 477.827 283.082 476.844C284.458 478.605 287.163 477.528 287.489 482.313C289.223 480.151 286.514 477.904 288.901 478.69L288.579 477.229C292.833 470.299 295.647 485.937 300.01 481.613V503.044L300 502.95ZM264.504 495.012C264.687 495.849 263.9 496.584 263.404 497.644C263.81 497.498 264.316 497.473 264.851 497.498C264.969 496.234 264.841 494.943 264.504 495.012ZM266.738 497.703V497.772C267.079 497.857 267.371 497.934 267.555 497.977C267.386 497.926 267.149 497.857 266.738 497.695V497.703ZM270.601 473.76C270.616 473.896 270.645 474.05 270.665 474.204C270.616 473.503 270.556 472.854 270.457 472.375C269.927 471.862 269.754 472.572 269.679 473.324C269.927 473.384 270.219 473.512 270.601 473.76Z" fill="black"/>
<path d="M271.398 477.16C271.472 477.237 271.517 477.391 271.616 477.425C271.507 477.741 271.408 478.023 271.299 478.246C271.235 477.852 271.17 477.451 271.111 477.1C271.205 477.126 271.304 477.135 271.393 477.16H271.398Z" fill="black"/>
<path d="M217.369 504.625L217.374 503.71L217.666 504.514L217.369 504.625Z" fill="black"/>
<path d="M33.7861 501.993C33.8703 502.01 33.9496 502.061 34.0189 502.155C34.5687 502.865 34.1972 502.583 33.7861 501.993Z" fill="black"/>
<path d="M4.93652 493.473C5.24359 494.131 5.54571 494.781 5.86268 495.199C5.3476 495.481 4.95138 495.55 4.93652 493.473Z" fill="black"/>
<path d="M66.0037 506.385C66.0037 506.385 66.0037 506.351 66.0037 506.325C66.073 506.342 66.1324 506.325 66.2018 506.325L66.0086 506.385H66.0037Z" fill="black"/>
<path d="M7.20486 495.131C6.68978 495.857 6.26384 495.704 5.86267 495.191C6.28365 494.943 6.77892 494.576 7.20486 495.131Z" fill="black"/>
<path d="M74.9681 474.349L74.7105 478.434C74.136 477.699 74.0122 473.11 74.9681 474.349Z" fill="black"/>
<path d="M108.359 478.51C108.721 476.468 109.662 475.152 110.241 477.16C109.488 477.442 108.741 479.032 108.359 478.51Z" fill="black"/>
<path d="M208.513 471.854L207.84 470.486L209.108 471.623L208.513 471.854Z" fill="black"/>
</g>
<g clip-path="url(#clip4_99_14332)">
<path d="M24.0759 29.3872C23.8014 29.4898 23.6851 29.917 23.6711 30.3016C23.927 30.0196 24.1411 29.7547 24.0759 29.3872Z" fill="black"/>
<path d="M30.2825 34.1127C30.1475 33.976 30.0359 33.9161 29.9149 33.8221C30.0545 34.2152 30.1941 34.4374 30.2825 34.1127Z" fill="black"/>
<path d="M41.6401 38.787C41.6401 38.787 41.6121 38.7443 41.5888 38.7186C41.2899 39.1373 41.458 39.0604 41.6401 38.787Z" fill="black"/>
<path d="M145.931 36.0952C144.749 32.8394 147.853 31.908 146.075 28.2933C146.243 29.7204 144.461 33.9759 145.931 36.0952Z" fill="black"/>
<path d="M146.076 28.2934V28.2592L145.894 27.9174C145.969 28.0712 146.015 28.1566 146.076 28.2934Z" fill="black"/>
<path d="M67.8202 36.5994C67.7642 35.9585 67.6615 35.4715 67.5541 35.0015C67.5634 35.3775 67.6241 35.8304 67.8202 36.5994Z" fill="black"/>
<path d="M48.3158 31.4038L48.7997 31.8909C48.6089 31.5576 48.4554 31.4465 48.3158 31.4038Z" fill="black"/>
<path d="M77.9432 31.4465C78.2038 31.7285 78.2968 32.2327 78.6551 31.7371C78.6225 31.5491 78.5899 31.4209 78.5481 31.2927C78.4178 31.7969 78.2457 32.0276 77.9479 31.4465H77.9432Z" fill="black"/>
<path d="M88.4813 31.4295C88.4255 31.1475 88.351 30.9424 88.2859 30.6946C88.1836 30.7715 88.0579 30.8228 87.9509 30.8911L88.4813 31.4295Z" fill="black"/>
<path d="M292.491 5.64848C292.724 6.67391 292.864 7.80188 292.98 8.92986C292.817 6.34064 294.366 5.40921 292.491 5.64848Z" fill="black"/>
<path d="M78.3713 2.68323L80.0463 3.22158C79.5764 2.87122 78.9715 2.68323 78.3713 2.68323Z" fill="black"/>
<path d="M216.892 6.16973L217.278 5.73392C217.129 5.64847 216.994 5.75956 216.892 6.16973Z" fill="black"/>
<path d="M85.0151 2.68323C85.3129 3.96502 85.6293 4.717 85.9596 5.20408C86.0294 4.92209 86.1085 4.68282 86.155 4.2641L85.0198 2.68323H85.0151Z" fill="black"/>
<path d="M298 6.04137C296.674 8.39132 294.506 5.79356 293.175 10.1431C293.068 9.71584 293.012 9.31421 292.985 8.95531C293.222 11.3565 293.259 13.7919 293.208 15.5266C292.491 15.6121 291.882 18.5516 291.612 15.4241C292.049 15.5181 292.087 14.2534 292.291 13.2707L291.542 14.6294C290.868 10.126 292.566 13.0741 292.566 9.73293C291.105 11.2027 289.402 14.9285 288.281 13.6552C288.048 9.24585 290.9 12.1683 289.407 8.2546L291.137 9.93801C289.811 2.98217 292.189 10.4251 290.975 2.98217C288.695 1.70892 288.425 5.22957 286.15 3.93924C285.638 6.38318 286.317 7.56243 285.806 10.0149C282.572 14.4157 283.261 -1.06829 280.883 4.80231C280.269 7.74188 280.027 13.3134 278.338 10.3653L278.915 5.38339C276.71 4.89631 277.654 12.5443 275.342 9.19458C275.751 7.23771 277.077 7.54534 276.742 6.95572C275.244 3.02489 275.682 9.7842 274.532 9.7842L274.295 5.37484C271.946 6.06701 269.354 9.25439 266.753 10.0576C266.898 8.75022 267.344 7.36589 266.735 6.01574C263.45 8.22042 259.728 5.47738 256.56 2.86253L255.35 6.67372C255.071 6.631 254.829 4.95612 255.131 4.21268C253.898 2.76853 255.066 6.631 254.475 8.12642C253.773 8.39132 253.549 5.93883 253.991 4.79376C251.814 8.02387 247.79 11.7496 245.491 7.67352L245.938 6.54554C244.151 4.99885 243.923 14.3474 242.262 10.8011L242.579 10.126C238.703 8.47677 234.413 11.9632 231.454 6.21228C230.891 11.6983 227.616 3.76833 227.365 11.4163C225.15 7.62225 225.783 6.26355 222.666 3.70851C221.833 3.35816 221.424 8.48532 220.395 9.28003L220.372 5.28084L218.976 9.47657L218.232 4.69122L217.264 5.71665C217.65 5.94737 218.083 7.51116 218.023 8.66477C216.515 10.4764 214.347 5.87901 214.31 3.82815L210.741 7.21207C210.802 6.02428 211.141 5.40902 211.509 4.75958C210.211 6.88735 211.411 0.110955 209.797 3.5547C210.029 4.4605 209.671 5.93883 209.629 6.74208C208.759 4.32377 206.777 4.30668 205.312 5.32357L205.591 2.56345C202.944 1.86274 200.008 3.88796 197.039 3.83669C198.105 5.11848 197.858 9.89529 196.988 10.3567L196.639 6.13537C196.076 8.74168 197.551 7.72479 196.393 10.9207C195.281 10.4336 195.648 6.11828 196.286 4.74249L194.937 6.21228C194.857 4.94758 195.174 4.28105 195.258 2.67454C194.704 5.29793 192.927 -1.56392 192.131 2.99071L192.057 1.73456C189.088 1.70038 187.739 3.15307 185.32 3.3667C185.273 7.01553 184.329 6.20373 183.608 9.15185C181.83 7.98969 179.858 5.11848 177.713 5.42611C176.205 7.23771 177.271 8.51095 176.596 10.6815C176.484 7.35734 174.344 7.67352 175.456 5.28939C172.883 5.82774 172.172 5.94737 168.919 8.64768C169.273 10.0149 169.668 10.6045 169.464 11.7325C168.873 12.2794 168.119 10.3396 168.208 8.74168L168.361 8.39987C164.779 13.2878 160.112 -0.752117 157.19 5.29793L154.18 8.90404C152.794 8.3315 155.013 6.40882 153.985 4.34941C150.733 9.89529 148.848 3.54615 146.168 7.23771C144.098 -2.56371 138.813 7.92988 136.017 1.66619L136.179 3.97342C135.458 6.23791 135.305 2.6489 134.774 2.11909C134.849 3.9136 135.561 4.19559 135.109 5.45175C128.986 8.23751 122.468 2.07637 116.187 -0.00867845C113.889 -0.623938 114.885 11.9376 111.991 6.42591L112.814 2.14473C108.18 7.28898 103.337 1.96528 98.8007 6.33191C99.0705 5.34066 99.0798 4.05887 99.5218 4.07596C98.5634 0.965482 95.9766 3.92215 95.9626 6.46864C95.2554 6.1781 95.7998 4.16996 95.3625 2.87962C94.3994 1.04239 92.9478 6.85317 92.4406 3.75979C92.3848 3.42652 92.5151 3.1018 92.664 2.84544C91.8498 3.69997 90.026 2.4609 90.5703 5.71665C88.8675 3.99905 87.3135 7.31462 85.955 5.18685C85.071 9.20312 83.0378 3.25561 82.7587 8.92967C82.8796 3.05907 79.7717 4.19559 78.697 6.95572C79.0552 5.1783 77.7618 5.11848 78.1852 2.65745C76.9569 2.7429 75.831 3.82815 76.045 6.84463C73.7792 -0.179584 71.4948 12.493 70.22 3.49488C66.5678 6.64809 63.19 8.7844 59.91 10.1602C60.0263 4.30668 63.5389 9.57911 63.3994 3.43506C60.2822 5.84483 58.4863 10.8694 55.397 9.45948C54.5967 8.66477 55.8529 6.92153 56.1228 5.92174C53.0102 8.3315 50.107 5.39193 47.3387 8.57932C47.348 8.03242 47.6458 7.4428 47.9296 6.9899C47.3853 7.18644 46.6595 6.13537 46.7199 8.79295L47.2503 8.07515C48.1204 11.9376 45.0822 16.1419 44.9845 18.1757C45.9104 10.5533 42.2488 16.2615 43.719 6.62245C43.3608 7.12662 42.9095 8.38278 42.9932 10.1687C42.4582 9.64747 42.2907 8.6135 42.8304 6.58827C40.8763 8.03242 41.5696 10.8609 39.7969 10.8011C39.8016 9.51075 40.1598 9.01513 40.3459 7.50261C39.448 10.0149 38.5501 12.5272 37.0519 11.4334C37.1403 10.6558 36.9682 9.64748 37.4148 9.66457C34.8466 10.0576 33.0321 16.3555 30.2127 13.9287C31.0455 8.3315 29.2542 12.0914 29.1054 7.24625L27.5886 8.69041L28.1981 11.0404C26.8721 10.9549 25.695 14.4841 24.5552 12.9032L25.5415 10.9036L23.0524 11.818L24.4621 13.6552C23.1175 16.1504 24.6063 19.7822 22.8384 18.432C23.1966 17.9449 21.5077 18.3722 20.8192 15.5181C20.8192 15.5181 20.8192 15.5181 20.8192 15.501C20.2795 16.7657 19.7258 18.0902 19 17.8509V35.6336C20.3958 35.9413 20.4795 29.088 22.2987 30.5577C22.0381 29.0196 21.7962 24.9093 23.3083 23.4566C24.7226 24.0292 25.0483 29.9169 24.155 31.1474C23.8154 31.2755 23.6526 30.7885 23.6665 30.2672C23.2106 30.8312 22.6104 31.4892 23.1687 33.1555L23.3501 31.6174C24.0527 33.1897 25.9974 33.0273 25.5415 35.5482C26.4581 34.292 26.137 33.335 25.5322 32.583C27.1513 34.198 28.1562 32.3779 29.9103 33.7879C29.6125 32.9419 29.338 31.1303 29.6357 31.1474C32.3761 33.053 30.8408 28.2249 32.6971 27.5498C33.7533 29.8998 32.3203 33.1555 34.186 31.1901C35.3258 32.7795 34.4279 35.2747 33.9719 36.5309C35.6748 33.5657 37.1543 38.4792 38.1267 39.0261L37.2287 40.2652C37.7638 39.5303 38.2058 39.5474 38.6524 39.5559L38.1406 36.4711C38.6664 37.0094 39.113 37.0265 39.1037 38.2998C39.6481 36.2831 38.6896 33.1811 39.7644 30.421C40.4669 31.9848 41.9045 28.7461 42.1465 32.8308C40.1598 31.5832 41.9418 35.8985 40.9601 37.2572C41.2253 37.1889 41.5184 37.3256 41.8487 37.6674C41.9278 38.1203 41.7743 38.5134 41.63 38.7441C43.7423 42.3929 42.6024 34.1211 44.7891 34.2151C44.51 36.5138 45.2963 38.5818 45.6545 38.0947C44.7705 38.0519 45.2311 34.2493 46.0407 32.489C47.4457 34.2835 47.5667 31.1559 48.3018 31.361L47.4644 30.515C47.7482 28.2163 48.4507 28.5154 49.4277 27.7891C49.451 28.3274 49.3812 28.6522 49.2835 28.8658C50.2978 27.5498 51.5214 33.6853 52.8613 31.2755C53.5639 32.8393 52.9311 35.5995 53.5452 36.6591C55.2434 33.6768 55.383 39.8123 57.1696 37.3427C56.6532 34.2493 56.5648 35.0013 57.821 31.9848L54.8852 34.1638L56.7695 29.6605C55.8855 29.6178 54.8991 31.6088 54.3688 31.079C55.2667 28.5582 55.1736 29.3272 54.7503 26.7551C55.9646 31.3952 57.151 24.0463 58.5561 27.1824L58.5142 34.8475C60.6218 38.257 62.2548 30.9166 64.9905 32.8393L64.1112 31.5063C64.4788 28.4642 65.8001 31.079 66.6841 29.8485C66.6003 32.4121 67.154 33.3435 67.5355 34.9329C67.489 33.0359 69.5361 35.1038 69.7873 29.9938L71.0063 33.3691C73.2163 34.7535 73.528 26.0715 75.6496 26.9431C75.0122 29.7289 75.9752 31.5405 74.5516 33.5315C75.2587 33.5571 75.8961 34.0271 75.9101 32.2497C76.3242 33.8562 77.8735 28.7974 78.5295 31.2328C78.8273 30.1048 78.925 27.4216 79.7205 27.6353C79.7717 27.9514 79.7624 28.3445 79.7438 28.6094C79.9113 27.5413 80.9069 26.9516 80.2695 24.3368C82.4516 32.3266 86.3737 23.7557 88.2719 30.6176C89.8166 29.7545 91.6823 28.9341 93.0873 28.7461C92.999 29.5152 93.0873 30.0194 92.8175 29.7545C94.753 32.1386 94.0086 22.4056 96.2139 25.0631C97.3398 29.1991 95.0414 27.302 95.744 28.8658C96.051 37.2914 98.4052 27.7122 99.8894 32.6342L99.5311 33.1299C100.666 35.9925 102.299 29.9339 104.151 30.5407C104.151 30.5407 104.063 31.2841 104.142 31.8139C105.407 27.5156 107.808 26.0971 109.59 24.9008C109.036 28.1993 108.78 26.644 109.12 29.9938C109.92 29.5152 108.887 24.6102 110.479 23.6703C110.995 25.4733 112.149 27.0542 112.298 30.6261L110.795 30.8226C111.567 35.4542 112.74 30.6603 113.535 31.4721L113.433 33.4973C115.736 32.8393 115.769 27.7464 118.248 28.1053L117.992 26.5757C119.346 21.5254 119.128 29.4127 120.477 25.6613L120.886 30.7799C121.78 29.5409 124.018 25.8322 125.618 24.8666C124.711 28.6607 122.836 30.609 121.677 32.865C122.561 32.8991 124.688 32.489 125.148 29.9596C124.79 30.4552 124.343 31.7114 123.99 30.9166C125.078 26.8918 126.507 24.9093 128.27 25.0033C127.958 34.9329 132.871 27.5071 134.151 35.2149C137.273 31.5405 140.343 36.7787 143.982 36.1891C142.693 28.4642 145.042 35.9669 144.819 28.0369C145.666 27.5327 145.992 27.6609 146.066 28.1736L148.634 32.9077C149.244 35.2149 147.829 34.6595 147.908 36.4369C149.765 37.0436 148.685 39.7952 149.914 41.9059C149.662 39.0688 150.56 37.8383 151.617 38.9236L150.128 35.2662C152.719 31.0448 152.37 41.923 154.98 37.7443L154.152 40.2395C155.492 38.7697 159.098 40.2908 160.41 33.916C160.647 34.8304 160.959 37.0009 160.368 37.5734C163.574 38.5305 167.5 30.7885 169.989 34.7193L169.748 36.6591C170.343 36.0951 170.79 33.0188 171.539 34.9671C171.502 35.7704 171.297 36.9069 171.576 37.018C171.892 36.3514 173.163 33.617 173.958 34.7535L173.283 36.9325C176.41 39.4705 178.08 31.6174 180.7 30.2843C180.695 35.9925 183.152 37.8469 184.38 38.7783L184.338 39.5901C187.976 40.2994 190.521 34.856 193.89 32.6172C195.983 38.8125 200.976 35.2149 204.339 38.6928C203.828 37.6589 204.423 34.2408 205.019 33.6682C205.81 34.8304 207.201 29.7032 207.075 34.9415L206.796 34.8389C207.391 39.9746 209.011 38.6159 210.276 38.7527L210.485 31.8994C213.798 41.8631 219.162 28.242 220.968 37.1632C221.768 35.4456 222.759 35.4713 223.55 33.7537L223.508 37.4281C225.722 38.3681 226.83 38.8296 229.566 37.9494L229.007 40.5728C230.552 40.8121 230.957 29.9852 232.38 29.763L232.808 35.2491C235.502 35.1636 238.229 39.9746 240.89 35.0013C240.848 35.8045 240.769 37.394 240.332 37.6076C241.555 37.7443 244.984 41.0684 244.807 34.5398C245.119 38.1887 247.636 34.1468 249.009 32.113L248.781 35.7276C250.009 31.1132 250.046 29.8485 251.763 28.5667C252.126 28.9854 252.121 30.9508 251.735 30.7201C252.907 31.9848 252.703 27.1909 254.275 29.0367L253.666 31.3439C255.057 31.6259 254.95 30.3868 255.713 27.6951C256.588 26.2424 258.356 28.6094 258.56 31.8737C258.746 29.8827 259.509 27.2165 260.333 28.1565C260.445 29.3956 260.147 30.1561 259.993 30.5321C262.324 32.9931 263.455 26.3278 265.06 29.8827C265.092 31.079 265.199 31.6772 265.33 32.0361C263.632 31.9592 262.24 31.7797 262.129 31.549C262.147 34.8218 263.613 35.4371 262.431 40.0088C263.632 37.4965 265.683 32.0361 267.14 33.5999C267.209 33.9246 267.279 34.2408 267.33 34.7535L267.181 35.1295C267.516 35.4627 267.819 35.1551 268.103 34.5911C268.568 35.138 268.861 35.5482 269.308 35.5909C269.48 38.351 271.02 37.0778 271.769 37.2145C271.708 33.6084 272.657 34.1297 271.797 31.2328C271.82 31.4379 271.564 31.5917 271.131 31.7199C271.02 31.831 270.89 31.8823 270.815 32.0959C270.829 32.0019 270.848 31.8908 270.866 31.7712C270.378 31.8737 269.74 31.9592 269.015 32.019C269.605 30.1647 270.22 28.6094 271.043 30.6347C271.425 28.2932 271.848 25.8835 272.085 24.747C273.104 29.8314 275.072 32.583 275.347 35.7191C277.622 33.6768 280.706 34.3689 282.139 27.5156C282.786 26.6355 282.884 29.481 283.126 30.5577C282.754 31.2414 282.307 31.1388 282.107 32.1215C283.4 30.3612 285.941 31.4379 286.248 26.6526C287.876 28.8145 285.331 31.0619 287.574 30.2758L287.271 31.737C291.268 38.6672 293.91 23.0294 298.009 27.3533V6.04137H298ZM264.655 13.9799C264.827 13.1425 264.088 12.4076 263.622 11.348C264.004 11.4933 264.478 11.5189 264.981 11.4933C265.092 12.758 264.971 14.0483 264.655 13.9799ZM266.753 11.2882V11.2198C267.074 11.1344 267.349 11.0574 267.521 11.0147C267.363 11.066 267.14 11.1344 266.753 11.2967V11.2882ZM270.382 35.232C270.396 35.0953 270.424 34.9415 270.443 34.7877C270.396 35.4884 270.341 36.1378 270.247 36.6163C269.75 37.1291 269.587 36.4198 269.517 35.6678C269.75 35.608 270.024 35.4798 270.382 35.232Z" fill="black"/>
<path d="M271.131 31.8396C271.201 31.7627 271.243 31.6089 271.336 31.5747C271.234 31.2586 271.141 30.9766 271.038 30.7544C270.978 31.1475 270.917 31.5491 270.862 31.8995C270.95 31.8738 271.043 31.8653 271.127 31.8396H271.131Z" fill="black"/>
<path d="M220.377 4.37512L220.381 5.28947L220.656 4.48621L220.377 4.37512Z" fill="black"/>
<path d="M47.9203 7.00716C47.9994 6.99007 48.0738 6.9388 48.139 6.8448C48.6554 6.13554 48.3065 6.41754 47.9203 7.00716Z" fill="black"/>
<path d="M20.8191 15.5267C21.1076 14.8688 21.3914 14.2193 21.6891 13.8006C21.2053 13.5186 20.833 13.4502 20.8191 15.5267Z" fill="black"/>
<path d="M78.1852 2.61487C78.1852 2.61487 78.1852 2.64905 78.1852 2.67469C78.2505 2.65759 78.3066 2.67469 78.372 2.67469L78.1899 2.61487H78.1852Z" fill="black"/>
<path d="M22.9501 13.869C22.4662 13.1427 22.0661 13.2965 21.6892 13.8092C22.0847 14.057 22.5499 14.4244 22.9501 13.869Z" fill="black"/>
<path d="M86.6063 34.651L86.3644 30.5664C85.8247 31.3013 85.7084 35.8901 86.6063 34.651Z" fill="black"/>
<path d="M117.974 30.4896C118.314 32.5319 119.198 33.8479 119.742 31.8397C119.035 31.5577 118.332 29.9683 117.974 30.4896Z" fill="black"/>
<path d="M212.058 37.1462L211.425 38.5135L212.616 37.377L212.058 37.1462Z" fill="black"/>
</g>
</g>
<defs>
<filter id="filter0_b_99_14332" x="11" y="12" width="277" height="489" filterUnits="userSpaceOnUse" color-interpolation-filters="sRGB">
<feFlood flood-opacity="0" result="BackgroundImageFix"/>
<feGaussianBlur in="BackgroundImageFix" stdDeviation="4"/>
<feComposite in2="SourceAlpha" operator="in" result="effect1_backgroundBlur_99_14332"/>
<feBlend mode="normal" in="SourceGraphic" in2="effect1_backgroundBlur_99_14332" result="shape"/>
</filter>
<clipPath id="clip0_99_14332">
<rect width="300" height="509" fill="white"/>
</clipPath>
<clipPath id="clip1_99_14332">
<rect width="42" height="479" fill="white" transform="translate(259 9)"/>
</clipPath>
<clipPath id="clip2_99_14332">
<rect width="42" height="469" fill="white" transform="translate(0 19)"/>
</clipPath>
<clipPath id="clip3_99_14332">
<rect width="297" height="42" fill="white" transform="translate(3 467)"/>
</clipPath>
<clipPath id="clip4_99_14332">
<rect width="279" height="42" fill="white" transform="translate(19)"/>
</clipPath>
</defs>
</svg>
