<svg width="667" height="470" viewBox="0 0 667 470" fill="none" xmlns="http://www.w3.org/2000/svg">
<g filter="url(#filter0_b_93_14328)">
<rect x="22" y="24" width="620" height="420" fill="black"/>
</g>
<g clip-path="url(#clip0_93_14328)">
<path d="M663.252 22.5099C663.252 22.5099 663.202 22.4432 663.172 22.3876C663.66 21.6759 663.571 22.0763 663.252 22.5099Z" fill="black"/>
<path d="M660.111 271.765C656.313 268.941 655.226 276.358 651.009 272.11C652.674 272.51 657.639 268.251 660.111 271.765Z" fill="black"/>
<path d="M651.009 272.11H650.969L650.57 271.676C650.75 271.854 650.849 271.965 651.009 272.11Z" fill="black"/>
<path d="M660.699 85.0713C659.952 84.9379 659.383 84.6933 658.835 84.4375C659.274 84.4597 659.802 84.6043 660.699 85.0713Z" fill="black"/>
<path d="M654.638 38.4673L655.206 39.6238C654.817 39.1678 654.688 38.8009 654.638 38.4673Z" fill="black"/>
<path d="M654.688 109.268C655.017 109.891 655.605 110.113 655.027 110.97C654.807 110.892 654.658 110.814 654.508 110.714C655.097 110.403 655.366 109.991 654.688 109.279V109.268Z" fill="black"/>
<path d="M654.668 134.455C654.339 134.322 654.1 134.144 653.81 133.988C653.9 133.744 653.96 133.443 654.04 133.188L654.668 134.455Z" fill="black"/>
<path d="M621.13 110.292L621.758 114.295C621.35 113.172 621.13 111.726 621.13 110.292Z" fill="black"/>
<path d="M625.198 441.368L624.69 442.291C624.59 441.935 624.719 441.612 625.198 441.368Z" fill="black"/>
<path d="M621.13 126.171C622.626 126.883 623.503 127.639 624.071 128.428C623.742 128.595 623.463 128.784 622.975 128.895L621.13 126.182V126.171Z" fill="black"/>
<path d="M624.39 245.933C622.925 247.012 622.596 245.311 620.502 245.133C621.12 246.412 625.308 246.767 622.666 248.491L619.974 248.102C627.272 254.785 615.029 267.417 626.474 272.366C622.167 278.76 629.575 283.274 623.104 291.047C625.497 293.505 627.74 288.201 628.418 291.514L624.211 298.709C617.153 305.681 633.532 316.846 627.83 325.408L628.229 325.041C630.093 324.841 632.356 326.642 631.718 328.044C630.392 328.533 629.704 327.588 628.119 326.743C624.969 334.515 624.829 336.217 624.201 342.366C626.982 339.709 626.624 344.824 630.492 345.091C627.959 346.703 626.474 344.156 624.36 347.759C624.002 352.875 627.351 357.601 628.707 361.848C625.268 363.572 626.215 365.829 621.958 365.941C621.709 371.723 620.014 374.948 620.054 382.042L621.519 382.22C616.205 384.133 624.211 388.37 621.15 389.693C623.025 389.493 623.802 388.737 625.278 388.926L623.563 392.151C625.168 390.627 630.203 389.76 630.771 392.406C627.042 395.164 628.229 391.65 625.188 392.996L630.113 393.83C629.575 395.909 624.002 396.498 622.506 393.952C622.566 401.058 620.203 408.063 621.021 414.391L624.241 413.723C623.054 417.226 623.074 421.963 625.896 424.043C624.949 424.143 623.234 424.999 622.177 424.443C618.149 428.291 626.065 425.422 623.583 428.535C624.351 427.657 625.058 426.845 626.444 426.7L622.496 435.229C624.889 435.318 630.252 440.5 628.139 444.103C626.793 444.248 624.969 443.214 624.699 442.291L623.503 444.604L629.086 446.383L624.191 449.719L628.857 449.774C628.129 451.687 624.37 452.699 622.915 454H659.593C660.051 452.999 660.55 452.01 661.477 451.12C651.059 446.805 666.96 433.973 655.336 426.067L663.331 425.566C663.172 422.541 664.757 418.661 658.765 417.248L658.885 417.916C652.773 418.216 658.755 414.891 657.399 413.001C658.067 411.577 662.055 410.143 663.261 411.377C659.204 403.337 663.411 391.405 656.173 386.401C658.785 378.351 665.136 372.268 664.308 363.572L663.361 363.672C662.284 360.736 660.121 354.865 653.451 354.876C655.007 348.616 664.169 344.624 661.208 337.151L658.665 338.763C657.349 336.873 660.53 333.826 661.307 333.07C661.178 332.414 659.852 332.892 658.915 332.981C656.642 331.191 660.231 330.134 660.889 328.7L658.626 329.278C654.05 323.329 663.072 313.932 661.955 306.282C661.287 307.694 658.755 306.938 657.688 306.382C665.126 303.246 663.351 294.628 665.066 291.425L662.155 293.405C667.03 287.155 654.339 288 659.264 281.807L663.531 285.365C662.264 282.841 663.7 280.695 667.01 281.295C664.547 278.359 661.337 280.939 660.629 276.502C658.556 276.313 659.204 279.694 656.512 278.237L650.989 272.099C650.391 271.921 650.241 271.143 650.829 269.119C660.081 269.652 651.328 264.037 660.34 267.117C661.028 258.421 654.917 251.082 659.204 243.62C650.201 240.562 658.865 228.82 647.29 229.565C647.191 225.35 649.494 221.925 654.189 219.334C655.106 220.179 653.641 221.247 653.073 222.103C656.024 221.002 656.502 215.92 656.462 213.808C653.83 216.577 651.567 221.058 647.131 223.226C648.257 219.401 652.584 214.052 654.03 211.917L648.058 210.939C652.435 207.714 643.233 208.237 649.125 205.001L650.909 205.612C650.481 199.685 656.432 199.619 657.2 194.103L654.837 194.348C653.9 192.457 659.483 189.644 654.079 187.798L653.85 191.39C649.683 191.023 647.839 188.276 645.735 187.042C646.832 183.228 652.554 185.696 653.112 183.795C649.204 182.983 651.009 183.595 647.171 184.918C648.566 180.659 650.221 174.921 655.236 171.896C654.618 171.707 653.751 171.919 653.751 171.919C653.053 167.493 660.111 163.59 656.771 160.876L656.193 161.733C650.451 158.185 661.626 152.559 651.796 151.825C649.972 150.146 652.185 155.639 647.36 152.948C644.26 147.677 655.615 149.467 652.833 144.83C653.142 145.464 652.544 145.264 651.657 145.475C651.876 142.117 652.833 137.669 653.84 133.966C645.835 129.418 655.834 120.055 646.513 114.84C649.553 116.363 650.251 113.983 651.497 113.583C651.188 113.627 650.72 113.661 650.361 113.527C650.112 111.626 653.242 111.392 654.558 110.681C651.717 109.124 657.619 105.41 655.744 104.42C657.818 104.398 657.27 102.874 657.24 101.173C654.917 104.576 652.803 102.263 649.553 103.797C648.536 98.7266 658.665 97.9816 657.05 92.6996L653.112 89.7861C659.084 89.1968 656.662 84.2929 658.875 84.4041C657.011 83.5033 655.934 82.18 652.943 82.3691C654.389 80.2563 651.328 77.0982 654.877 76.2197L656.432 78.3214C654.179 71.7828 662.753 67.8797 658.775 62.8423L649.832 62.9424C646.174 59.5953 654.747 56.7486 649.334 53.8462C652.335 54.8582 651.438 55.0806 654.379 52.9344C654.997 54.2021 652.674 56.5484 652.724 58.6723L657.978 54.1687L655.435 61.1855C658.955 58.1831 658.077 58.3943 661.686 59.6287C664.567 55.3586 657.399 55.025 660.889 50.9662C659.652 49.4872 656.432 51.0106 654.608 49.3315C657.419 46.129 650.261 43.2044 651.796 40.7802C651.547 41.0249 651.168 41.1917 650.54 41.1249C651.388 38.7897 651.039 37.1106 653.721 36.4323L654.708 38.4339C654.468 36.6769 658.107 36.3878 656.024 33.0296C658.077 31.0947 662.514 29.9938 662.564 32.1066C663.142 31.2504 660.729 29.3711 658.037 30.0383C657.928 24.8008 667.578 27.5363 663.321 22.4878C663.052 22.8325 662.593 23.1995 662.065 23.0104C661.666 22.2209 661.517 21.5092 661.587 20.8865C660.001 23.2328 654.967 18.9739 656.422 23.7221C651.657 23.1439 655.435 19.7078 653.611 18.0287C656.831 15.46 660.45 17.7396 662.803 16.4496C661.307 16.4719 661.287 15.4044 660.669 14.1478L664.268 15.371C664.258 14.3035 664.228 13.2471 665.096 11.9683L663.65 14.1144C663.341 12.9913 661.856 11.5902 660.779 9.97778H629.824C629.594 10.645 629.435 11.3344 629.355 12.035C629.584 11.4123 630.581 11.7014 631.369 11.5123C632.645 15.093 629.714 17.2392 626.783 19.3853C628.548 18.9516 629.126 18.0954 630.631 18.0732C630.701 22.3099 627.401 20.6419 625.716 25.3234C628.079 24.0335 629.285 24.4338 629.894 25.7126C627.82 25.5124 626.344 26.5911 625.756 27.4473C636.992 23.9334 630.342 32.6849 639.235 30.472C636.852 30.7055 631.947 37.9669 627.451 35.8874L628.288 34.6197C625.188 34.4752 626.414 36.1988 626.185 37.5109C626.703 36.8326 627.401 36.1209 628.039 36.0987C624.321 42.7151 627.75 49.6651 624.939 57.0933C626.105 56.4483 628.139 53.4459 629.066 55.3586C630.711 62.7423 624.849 67.0346 622.038 74.485C629.206 74.8186 623.054 66.4341 629.884 66.145C628.278 73.9957 625.786 82.0688 622.107 90.7869C632.605 93.8338 617.82 99.2938 626.015 104.709C622.496 104.198 621.23 106.889 621.13 109.824C624.002 108.812 624.071 111.915 626.145 111.048C622.925 113.616 621.599 121.045 628.448 120.755C621.818 121.423 628.767 126.282 624.081 128.395C626.564 131.642 622.696 135.356 624.699 139.426C620.911 138.125 622.347 142.484 621.35 144.43C621.649 144.074 622.028 143.763 622.416 143.896C626.035 145.119 619.246 148.589 621.39 150.88C622.895 151.925 625.238 150.624 625.577 152.314C622.606 152.347 619.156 158.53 622.785 160.821C622.765 159.764 624.271 159.742 625.417 159.097C620.333 169.939 626.534 181.515 620.532 192.591L625.527 190.622C631.957 197.539 617.302 195.171 618.02 200.653C620.452 215.665 627.63 231.233 624.39 245.878V245.933Z" fill="black"/>
<path d="M623.104 449.708L624.171 449.719L623.234 450.375L623.104 449.708Z" fill="black"/>
<path d="M626.175 37.522C626.155 37.711 626.095 37.8889 625.986 38.0446C625.158 39.2789 625.487 38.4449 626.175 37.522Z" fill="black"/>
<path d="M621.051 109.858C621.051 109.858 621.091 109.858 621.12 109.858C621.101 110.013 621.12 110.147 621.12 110.302L621.051 109.869V109.858Z" fill="black"/>
<path d="M658.426 129.974L653.661 129.396C654.518 128.106 659.872 127.828 658.426 129.974Z" fill="black"/>
<path d="M653.571 204.956C655.954 205.768 657.489 207.881 655.146 209.182C654.817 207.491 652.963 205.812 653.571 204.956Z" fill="black"/>
<path d="M661.337 429.825L662.932 428.313L661.606 431.159L661.337 429.825Z" fill="black"/>
</g>
<g clip-path="url(#clip1_93_14328)">
<path d="M45.2514 34.9744C45.2514 34.9744 45.2015 34.9103 45.1716 34.8568C45.6601 34.1729 45.5704 34.5576 45.2514 34.9744Z" fill="black"/>
<path d="M42.1112 274.528C38.3128 271.814 37.2261 278.942 33.009 274.859C34.6739 275.244 39.6387 271.151 42.1112 274.528Z" fill="black"/>
<path d="M33.009 274.858H32.9691L32.5703 274.443C32.7498 274.613 32.8495 274.72 33.009 274.858Z" fill="black"/>
<path d="M42.6993 95.1006C41.9515 94.9724 41.3833 94.7373 40.835 94.4915C41.2736 94.5128 41.802 94.6518 42.6993 95.1006Z" fill="black"/>
<path d="M36.6379 50.3105L37.2062 51.422C36.8174 50.9838 36.6878 50.6312 36.6379 50.3105Z" fill="black"/>
<path d="M36.6878 118.356C37.0167 118.954 37.6049 119.168 37.0267 119.991C36.8074 119.916 36.6578 119.841 36.5083 119.745C37.0965 119.446 37.3657 119.051 36.6878 118.367V118.356Z" fill="black"/>
<path d="M36.6677 142.562C36.3387 142.434 36.0994 142.263 35.8103 142.113C35.9 141.878 35.9598 141.59 36.0396 141.344L36.6677 142.562Z" fill="black"/>
<path d="M3.13037 119.339L3.75845 123.187C3.3497 122.107 3.13037 120.718 3.13037 119.339Z" fill="black"/>
<path d="M7.19802 437.53L6.68958 438.417C6.58988 438.075 6.71949 437.765 7.19802 437.53Z" fill="black"/>
<path d="M3.13037 134.601C4.62579 135.285 5.50311 136.011 6.07137 136.77C5.74238 136.93 5.46323 137.112 4.97472 137.219L3.13037 134.611V134.601Z" fill="black"/>
<path d="M6.39046 249.691C4.92495 250.728 4.59596 249.093 2.50237 248.922C3.12047 250.151 7.30766 250.493 4.66574 252.149L1.97398 251.775C9.27164 258.198 -2.97088 270.339 8.47409 275.095C4.16727 281.24 11.5746 285.579 5.1044 293.049C7.49708 295.411 9.74021 290.313 10.4181 293.498L6.21101 300.413C-0.847379 307.114 15.5325 317.844 9.82993 326.073L10.2287 325.72C12.093 325.528 14.3561 327.259 13.718 328.606C12.3921 329.076 11.7042 328.168 10.119 327.355C6.96869 334.826 6.82912 336.461 6.20104 342.371C8.98253 339.817 8.62363 344.733 12.4918 344.989C9.95954 346.539 8.47409 344.092 6.36056 347.554C6.00165 352.47 9.3514 357.012 10.7072 361.095C7.26778 362.751 8.21488 364.921 3.95791 365.028C3.70867 370.585 2.01386 373.684 2.05374 380.503L3.51925 380.674C-1.79448 382.512 6.21101 386.584 3.15038 387.856C5.02465 387.663 5.80226 386.937 7.27775 387.118L5.563 390.218C7.16808 388.753 12.2027 387.92 12.7709 390.463C9.04235 393.114 10.2287 389.737 7.18802 391.03L12.1129 391.831C11.5746 393.83 6.00165 394.396 4.50623 391.949C4.56605 398.778 2.20328 405.511 3.02078 411.592L6.24092 410.951C5.05455 414.317 5.07449 418.87 7.89586 420.868C6.94876 420.965 5.234 421.788 4.17724 421.253C0.149569 424.951 8.06534 422.194 5.58294 425.186C6.35059 424.342 7.05842 423.562 8.44418 423.423L4.49626 431.62C6.88894 431.705 12.2525 436.686 10.139 440.148C8.79311 440.287 6.96869 439.293 6.69952 438.406L5.50318 440.629L11.0861 442.339L6.19107 445.545L10.8568 445.599C9.92963 447.961 3.93797 448.901 4.35669 450.814C4.53614 451.242 4.70562 451.626 4.86513 451.99H40.2568C41.5329 450.344 41.7722 448.452 43.4769 446.892C33.0588 442.745 48.9601 430.412 37.3357 422.814L45.3313 422.333C45.1717 419.426 46.7569 415.696 40.7652 414.339L40.8849 414.98C34.7736 415.268 40.7553 412.073 39.3994 410.256C40.0674 408.888 44.0552 407.509 45.2615 408.696C41.2039 400.969 45.411 389.502 38.1732 384.692C40.7852 376.955 47.1357 371.109 46.3083 362.751L45.3612 362.848C44.2845 360.026 42.1211 354.383 35.4515 354.394C37.0067 348.377 46.1687 344.54 43.2078 337.359L40.6655 338.908C39.3496 337.091 42.5298 334.163 43.3075 333.436C43.1778 332.806 41.8519 333.265 40.9148 333.351C38.6417 331.63 42.2307 330.615 42.8887 329.236L40.6257 329.792C36.0497 324.074 45.0721 315.044 43.9555 307.691C43.2875 309.048 40.7553 308.321 39.6885 307.787C47.1258 304.773 45.3512 296.491 47.0659 293.413L44.1549 295.315C49.0299 289.309 36.3388 290.121 41.2637 284.168L45.5306 287.588C44.2645 285.162 45.7001 283.1 49.01 283.677C46.5475 280.855 43.3374 283.335 42.6295 279.071C40.5559 278.889 41.2039 282.138 38.5121 280.738L32.989 274.838C32.3909 274.667 32.2413 273.919 32.8295 271.974C42.0812 272.487 33.328 267.09 42.3404 270.051C43.0283 261.693 36.917 254.64 41.2039 247.468C32.2015 244.529 40.8649 233.244 29.2904 233.96C29.1907 229.909 31.4936 226.618 36.1892 224.128C37.1064 224.94 35.6409 225.966 35.0727 226.789C38.0236 225.731 38.5022 220.847 38.4623 218.816C35.8303 221.477 33.5673 225.784 29.1308 227.868C30.2574 224.192 34.5842 219.051 36.0297 216.999L30.058 216.059C34.4346 212.959 25.2328 213.462 31.1247 210.352L32.9093 210.94C32.4806 205.243 38.4324 205.179 39.2 199.878L36.8373 200.113C35.9001 198.297 41.483 195.593 36.0796 193.819L35.8503 197.271C31.683 196.918 29.8387 194.278 27.7351 193.092C28.8318 189.426 34.5542 191.799 35.1125 189.971C31.2045 189.191 33.009 189.779 29.1707 191.051C30.5665 186.957 32.2214 181.443 37.236 178.536C36.6179 178.354 35.7506 178.557 35.7506 178.557C35.0527 174.304 42.1111 170.553 38.7713 167.945L38.1931 168.768C32.4507 165.359 43.6265 159.951 33.7966 159.246C31.9722 157.632 34.1854 162.911 29.3601 160.325C26.2596 155.259 37.6149 156.98 34.8334 152.523C35.1424 153.132 34.5443 152.94 33.657 153.143C33.8763 149.916 34.8334 145.641 35.8403 142.082C27.8348 137.711 37.8342 128.712 28.5127 123.7C31.5534 125.164 32.2513 122.877 33.4975 122.492C33.1884 122.535 32.7199 122.567 32.361 122.439C32.1117 120.611 35.2421 120.387 36.5581 119.703C33.7168 118.207 39.6187 114.637 37.7445 113.686C39.8181 113.665 39.2698 112.2 39.2399 110.565C36.917 113.836 34.8035 111.613 31.5534 113.087C30.5365 108.214 40.6655 107.498 39.0505 102.422L35.1125 99.6215C41.0843 99.0551 38.6617 94.3421 40.8749 94.4489C39.0106 93.5833 37.9339 92.3115 34.9431 92.4932C36.3886 90.4626 33.328 87.4274 36.8771 86.5832L38.4324 88.603C36.1793 82.319 44.753 78.5677 40.7752 73.7264L31.8326 73.8226C28.1738 70.6058 36.7475 67.8698 31.3341 65.0805C34.3349 66.053 33.4377 66.2668 36.3787 64.2041C36.9968 65.4225 34.6739 67.6775 34.7237 69.7187L39.9776 65.3904L37.4354 72.134C40.9547 69.2485 40.0773 69.4515 43.6863 70.6378C46.5675 66.5339 39.3994 66.2133 42.8887 62.3125C41.6525 60.8911 38.4324 62.3552 36.608 60.7415C39.4194 57.6636 32.2613 54.8528 33.7966 52.523C33.5473 52.7581 33.1685 52.9184 32.5404 52.8543C33.3878 50.61 33.0389 48.9962 35.7207 48.3443L36.7077 50.268C36.4684 48.5794 40.1072 48.3016 38.0236 45.074C40.0773 43.2144 44.5138 42.1564 44.5636 44.187C45.1418 43.3641 42.7292 41.5579 40.0375 42.1992C39.9278 37.1655 49.5783 39.7945 45.3213 34.9425C45.0521 35.2738 44.5935 35.6265 44.0651 35.4448C43.6664 34.686 43.5168 34.0021 43.5866 33.4036C42.0015 35.6586 36.9669 31.5654 38.4224 36.1288C33.657 35.5731 37.4354 32.2707 35.611 30.657C38.8312 28.1882 42.4501 30.3791 44.8029 29.1394C43.3075 29.1608 43.2875 28.1348 42.6694 26.9271L46.2684 28.1027C46.2584 27.0767 46.2285 26.0615 47.0959 24.8324L45.6503 26.8951C45.2814 25.6019 43.2078 23.9133 42.2008 21.9683H12.2126C11.7341 23.0049 11.3852 24.0843 11.2954 25.2279C11.2755 24.2019 12.4519 24.5973 13.3591 24.3943C14.6352 27.8355 11.7042 29.8982 8.77317 31.9608C10.5378 31.544 11.116 30.7211 12.6214 30.6997C12.6912 34.7715 9.39128 33.1685 7.70644 37.6678C10.0692 36.4281 11.2755 36.8128 11.8836 38.0418C9.81 37.8495 8.33451 38.8861 7.74631 39.709C18.9819 36.3319 12.3323 44.7427 21.2251 42.616C18.8423 42.8404 13.9374 49.8191 9.44112 47.8206L10.2786 46.6023C7.17805 46.4634 8.4043 48.1199 8.175 49.381C8.69341 48.729 9.39128 48.0451 10.0293 48.0237C6.31071 54.3826 9.74021 61.0621 6.92882 68.2011C8.09524 67.5813 10.129 64.6957 11.0562 66.5339C12.7011 73.6302 6.83909 77.7555 4.0277 84.9159C11.1958 85.2366 5.04458 77.1784 11.8737 76.9005C10.2686 84.4457 7.77622 92.2046 4.09748 100.583C14.5953 103.512 -0.189394 108.759 8.00552 113.964C4.48629 113.472 3.22017 116.058 3.12047 118.88C5.99169 117.907 6.06147 120.889 8.13512 120.056C4.91498 122.524 3.58904 129.663 10.4381 129.385C3.80837 130.027 10.7571 134.697 6.07144 136.728C8.55384 139.848 4.68568 143.418 6.68955 147.329C2.90115 146.079 4.33675 150.268 3.3398 152.139C3.63889 151.797 4.01773 151.497 4.40654 151.626C8.02546 152.801 1.23624 156.136 3.37968 158.337C4.88507 159.342 7.2279 158.091 7.56686 159.716C4.59596 159.748 1.14652 165.69 4.77541 167.891C4.75547 166.876 6.26086 166.855 7.40735 166.235C2.32292 176.655 8.52393 187.78 2.52231 198.425L7.51702 196.533C13.9473 203.181 -0.707806 200.904 0.00999639 206.173C2.44255 220.601 9.62058 235.563 6.38049 249.638L6.39046 249.691Z" fill="black"/>
<path d="M5.10449 445.545L6.17123 445.556L5.2341 446.186L5.10449 445.545Z" fill="black"/>
<path d="M8.17498 49.4021C8.15504 49.5838 8.09522 49.7548 7.98556 49.9044C7.15809 51.0907 7.48708 50.2891 8.17498 49.4021Z" fill="black"/>
<path d="M3.05078 118.922C3.05078 118.922 3.09066 118.922 3.12057 118.922C3.10063 119.072 3.12057 119.2 3.12057 119.349L3.05078 118.933V118.922Z" fill="black"/>
<path d="M40.4263 138.255L35.6609 137.7C36.5183 136.46 41.8719 136.193 40.4263 138.255Z" fill="black"/>
<path d="M35.571 210.319C37.9537 211.1 39.489 213.13 37.1462 214.38C36.8172 212.756 34.9629 211.142 35.571 210.319Z" fill="black"/>
<path d="M43.3374 426.425L44.9325 424.983L43.6066 427.708L43.3374 426.425Z" fill="black"/>
</g>
<g clip-path="url(#clip2_93_14328)">
<path d="M33.2799 435.715C32.6699 435.595 32.4114 435.097 32.3804 434.648C32.949 434.977 33.4246 435.286 33.2799 435.715Z" fill="black"/>
<path d="M47.0722 430.192C46.7723 430.351 46.5242 430.421 46.2554 430.531C46.5655 430.072 46.8757 429.813 47.0722 430.192Z" fill="black"/>
<path d="M72.3097 424.749C72.3097 424.749 72.2477 424.798 72.196 424.828C71.5343 424.34 71.9065 424.43 72.3097 424.749Z" fill="black"/>
<path d="M304.069 427.879C301.443 431.677 308.339 432.764 304.39 436.981C304.762 435.316 300.802 430.351 304.069 427.879Z" fill="black"/>
<path d="M304.39 436.991V437.031L303.986 437.43C304.152 437.25 304.255 437.15 304.39 436.991Z" fill="black"/>
<path d="M130.487 427.301C130.363 428.048 130.136 428.617 129.898 429.165C129.919 428.726 130.053 428.198 130.487 427.301Z" fill="black"/>
<path d="M87.1462 433.352L88.2215 432.784C87.7976 433.173 87.4564 433.302 87.1462 433.352Z" fill="black"/>
<path d="M152.985 433.312C153.564 432.983 153.771 432.395 154.567 432.973C154.495 433.193 154.422 433.342 154.329 433.492C154.04 432.903 153.657 432.634 152.995 433.312H152.985Z" fill="black"/>
<path d="M176.403 433.332C176.279 433.661 176.113 433.901 175.969 434.19C175.741 434.1 175.462 434.04 175.224 433.96L176.403 433.332Z" fill="black"/>
<path d="M629.759 463.41C630.275 462.214 630.586 460.898 630.844 459.582C630.482 462.603 633.925 463.689 629.759 463.41Z" fill="black"/>
<path d="M153.936 466.87L157.658 466.241C156.614 466.65 155.27 466.87 153.936 466.87Z" fill="black"/>
<path d="M461.76 462.802L462.618 463.31C462.287 463.41 461.987 463.281 461.76 462.802Z" fill="black"/>
<path d="M168.7 466.869C169.362 465.374 170.065 464.497 170.799 463.928C170.954 464.257 171.13 464.537 171.233 465.025L168.711 466.869H168.7Z" fill="black"/>
<path d="M642 462.942C639.053 460.2 634.235 463.231 631.278 458.157C631.041 458.655 630.917 459.124 630.855 459.542C631.382 456.741 631.465 453.9 631.351 451.876C629.759 451.776 628.404 448.347 627.805 451.995C628.776 451.886 628.859 453.361 629.314 454.508L627.649 452.923C626.15 458.176 629.924 454.737 629.924 458.635C626.678 456.92 622.894 452.574 620.402 454.059C619.885 459.203 626.223 455.794 622.904 460.36L626.75 458.396C623.803 466.511 629.087 457.828 626.388 466.511C621.322 467.996 620.722 463.889 615.667 465.394C614.529 462.543 616.039 461.167 614.901 458.306C607.716 453.172 609.246 471.236 603.963 464.387C602.598 460.958 602.06 454.458 598.307 457.897L599.589 463.71C594.689 464.278 596.787 455.355 591.649 459.263C592.559 461.546 595.505 461.187 594.761 461.875C591.432 466.461 592.404 458.575 589.85 458.575L589.323 463.72C584.101 462.912 578.343 459.193 572.563 458.256C572.884 459.782 573.876 461.397 572.522 462.972C565.222 460.4 556.951 463.6 549.91 466.651L547.222 462.204C546.602 462.254 546.064 464.208 546.736 465.075C543.996 466.76 546.592 462.254 545.279 460.509C543.717 460.2 543.221 463.062 544.203 464.397C539.365 460.629 530.421 456.282 525.314 461.038L526.306 462.354C522.336 464.158 521.83 453.252 518.139 457.389L518.842 458.176C510.229 460.101 500.697 456.033 494.121 462.742C492.87 456.342 485.591 465.594 485.033 456.671C480.112 461.098 481.518 462.683 474.591 465.664C472.74 466.072 471.83 460.091 469.545 459.163L469.493 463.829L466.392 458.934L464.738 464.517L462.587 463.321C463.445 463.052 464.407 461.227 464.272 459.881C460.922 457.768 456.104 463.131 456.022 465.524L448.092 461.576C448.226 462.962 448.981 463.68 449.798 464.437C446.913 461.955 449.581 469.861 445.993 465.843C446.51 464.786 445.714 463.062 445.621 462.124C443.687 464.946 439.283 464.966 436.026 463.779L436.646 466.999C430.764 467.817 424.24 465.454 417.643 465.514C420.011 464.019 419.463 458.446 417.53 457.907L416.754 462.832C415.503 459.792 418.781 460.978 416.206 457.249C413.735 457.818 414.552 462.852 415.968 464.457L412.97 462.742C412.794 464.218 413.497 464.996 413.683 466.87C412.453 463.809 408.504 471.815 406.736 466.501L406.57 467.967C399.974 468.006 396.976 466.312 391.599 466.062C391.496 461.805 389.397 462.752 387.795 459.313C383.845 460.669 379.461 464.019 374.695 463.66C371.345 461.546 373.713 460.061 372.214 457.528C371.966 461.407 367.21 461.038 369.681 463.819C363.963 463.191 362.381 463.052 355.154 459.901C355.94 458.306 356.819 457.618 356.364 456.302C355.051 455.664 353.376 457.927 353.572 459.792L353.914 460.19C345.953 454.488 335.582 470.868 329.09 463.809L322.4 459.602C319.319 460.27 324.251 462.513 321.966 464.916C314.739 458.446 310.552 465.853 304.596 461.546C299.996 472.981 288.25 460.739 282.037 468.046L282.399 465.355C280.796 462.713 280.455 466.9 279.276 467.518C279.442 465.424 281.023 465.095 280.021 463.63C266.414 460.38 251.929 467.568 237.972 470C232.864 470.718 235.077 456.063 228.646 462.493L230.476 467.488C220.178 461.486 209.415 467.697 199.335 462.603C199.935 463.759 199.955 465.255 200.937 465.235C198.808 468.864 193.059 465.414 193.028 462.443C191.457 462.782 192.666 465.125 191.694 466.631C189.554 468.774 186.328 461.995 185.201 465.604C185.077 465.993 185.367 466.371 185.698 466.67C183.888 465.674 179.835 467.119 181.045 463.321C177.261 465.325 173.808 461.456 170.789 463.939C168.824 459.253 164.306 466.192 163.686 459.572C163.955 466.421 157.048 465.095 154.66 461.875C155.456 463.949 152.582 464.019 153.523 466.89C150.793 466.79 148.291 465.524 148.767 462.005C143.732 470.2 138.655 455.415 135.822 465.913C127.706 462.234 120.2 459.742 112.911 458.137C113.169 464.966 120.975 458.815 120.665 465.983C113.738 463.171 109.747 457.309 102.882 458.954C101.104 459.881 103.895 461.915 104.495 463.081C97.5782 460.27 91.1267 463.7 84.975 459.981C84.9957 460.619 85.6573 461.307 86.288 461.835C85.0784 461.606 83.4655 462.832 83.5999 459.732L84.7785 460.569C86.7119 456.063 79.9605 451.158 79.7434 448.785C81.8009 457.678 73.6641 451.018 76.9312 462.264C76.1351 461.676 75.1322 460.21 75.3183 458.127C74.1293 458.735 73.7571 459.941 74.9565 462.304C70.6141 460.619 72.1546 457.319 68.2154 457.389C68.2258 458.894 69.0219 459.473 69.4354 461.237C67.44 458.306 65.4446 455.375 62.1154 456.651C62.3118 457.558 61.9293 458.735 62.9218 458.715C57.2147 458.256 53.1825 450.909 46.917 453.74C48.7677 460.27 44.7872 455.883 44.4564 461.536L41.0858 459.851L42.4402 457.11C39.4936 457.209 36.8779 453.092 34.3448 454.936L36.5367 457.269L31.0053 456.203L34.138 454.059C31.15 451.148 34.4585 446.911 30.5297 448.486C31.3258 449.054 27.5727 448.556 26.0426 451.886C26.0426 451.886 26.0426 451.886 26.0426 451.906C24.8432 450.43 23.6129 448.885 22 449.164V428.388C25.1017 428.029 25.2878 436.024 29.3304 434.31C28.7514 436.104 28.2138 440.899 31.5739 442.594C34.717 441.926 35.4407 435.057 33.4556 433.622C32.7009 433.472 32.339 434.04 32.37 434.649C31.3568 433.991 30.0231 433.223 31.2638 431.279L31.667 433.073C33.2282 431.239 37.5499 431.428 36.5367 428.487C38.5735 429.953 37.8601 431.069 36.516 431.947C40.114 430.063 42.3472 432.186 46.245 430.541C45.5833 431.528 44.9733 433.642 45.635 433.622C51.7247 431.398 48.3128 437.031 52.4381 437.819C54.785 435.077 51.6006 431.279 55.7466 433.572C58.2796 431.717 56.2842 428.806 55.271 427.341C59.055 430.8 62.3429 425.068 64.5037 424.43L62.5083 422.984C63.6973 423.842 64.6795 423.822 65.672 423.812L64.5347 427.411C65.703 426.783 66.6956 426.763 66.6749 425.277C67.8846 427.63 65.7547 431.249 68.143 434.469C69.7042 432.645 72.899 436.423 73.4366 431.658C69.0219 433.113 72.9817 428.079 70.8002 426.493C71.3895 426.573 72.0409 426.414 72.7749 426.015C72.9507 425.487 72.6095 425.028 72.289 424.759C76.9829 420.502 74.4499 430.152 79.3092 430.043C78.6888 427.361 80.4361 424.948 81.2322 425.516C79.2678 425.566 80.2914 430.003 82.0904 432.056C85.2128 429.963 85.4816 433.612 87.1152 433.372L85.2541 434.359C85.8848 437.041 87.446 436.692 89.6172 437.54C89.6689 436.912 89.5138 436.533 89.2967 436.283C91.5506 437.819 94.2698 430.661 97.2474 433.472C98.8086 431.648 97.4025 428.428 98.7672 427.191C102.541 430.671 102.851 423.513 106.821 426.394C105.674 430.003 105.477 429.125 108.269 432.645L101.745 430.102L105.932 435.356C103.968 435.406 101.776 433.083 100.597 433.701C102.593 436.642 102.386 435.745 101.445 438.746C104.144 433.333 106.78 441.906 109.902 438.247L109.809 429.305C114.493 425.327 118.122 433.891 124.201 431.648L122.247 433.203C123.064 436.752 126 433.701 127.965 435.137C127.779 432.146 129.009 431.059 129.857 429.205C129.753 431.418 134.302 429.006 134.861 434.968L137.57 431.03C142.481 429.415 143.173 439.544 147.888 438.527C146.471 435.277 148.612 433.163 145.448 430.84C147.019 430.81 148.436 430.262 148.467 432.336C149.387 430.461 152.83 436.363 154.288 433.522C154.949 434.838 155.167 437.968 156.935 437.719C157.048 437.35 157.028 436.892 156.986 436.583C157.358 437.829 159.571 438.517 158.155 441.567C163.004 432.246 171.719 442.245 175.938 434.24C179.37 435.247 183.516 436.204 186.639 436.423C186.442 435.526 186.639 434.938 186.039 435.247C190.34 432.465 188.686 443.82 193.586 440.72C196.088 435.895 190.981 438.108 192.542 436.283C193.225 426.454 198.456 437.629 201.754 431.887L200.958 431.309C203.481 427.969 207.11 435.037 211.225 434.329C211.225 434.329 211.028 433.462 211.204 432.844C214.016 437.859 219.351 439.514 223.311 440.909C222.081 437.061 221.512 438.876 222.267 434.968C224.045 435.526 221.75 441.248 225.286 442.345C226.433 440.241 228.998 438.397 229.328 434.23L225.989 434C227.705 428.597 230.311 434.19 232.079 433.243L231.851 430.88C236.969 431.648 237.041 437.589 242.552 437.171L241.983 438.955C244.992 444.847 244.506 435.645 247.504 440.022L248.414 434.05C250.399 435.496 255.372 439.823 258.929 440.949C256.913 436.523 252.746 434.25 250.172 431.618C252.136 431.578 256.861 432.056 257.885 435.007C257.089 434.429 256.096 432.964 255.31 433.891C257.73 438.586 260.904 440.899 264.822 440.79C264.13 429.205 275.048 437.869 277.891 428.876C284.828 433.163 291.652 427.052 299.737 427.74C296.873 436.752 302.094 427.999 301.598 437.251C303.48 437.839 304.204 437.689 304.369 437.091L310.076 431.568C311.431 428.876 308.287 429.524 308.463 427.451C312.589 426.743 310.19 423.533 312.919 421.07C312.361 424.38 314.356 425.816 316.703 424.549L313.395 428.816C319.154 433.741 318.378 421.05 324.179 425.925L322.338 423.014C325.316 424.729 333.329 422.954 336.244 430.392C336.771 429.325 337.464 426.793 336.151 426.125C343.275 425.008 352.001 434.04 357.532 429.454L356.995 427.191C358.318 427.849 359.311 431.438 360.975 429.165C360.892 428.228 360.437 426.902 361.058 426.773C361.761 427.55 364.583 430.74 366.351 429.415L364.852 426.872C371.8 423.911 375.512 433.073 381.333 434.629C381.322 427.969 386.781 425.806 389.511 424.719L389.418 423.772C397.503 422.944 403.158 429.295 410.644 431.907C415.296 424.679 426.39 428.876 433.865 424.819C432.728 426.025 434.051 430.013 435.375 430.681C437.132 429.325 440.224 435.306 439.945 429.195L439.324 429.315C440.648 423.323 444.246 424.908 447.058 424.749L447.523 432.744C454.884 421.12 466.805 437.011 470.817 426.603C472.595 428.607 474.797 428.577 476.555 430.581L476.462 426.294C481.383 425.197 483.844 424.659 489.923 425.686L488.683 422.625C492.115 422.346 493.015 434.977 496.179 435.237L497.13 428.836C503.116 428.936 509.175 423.323 515.089 429.125C514.996 428.188 514.82 426.334 513.848 426.085C516.567 425.925 524.187 422.047 523.794 429.664C524.487 425.407 530.08 430.122 533.13 432.495L532.624 428.278C535.353 433.662 535.436 435.137 539.251 436.632C540.057 436.144 540.047 433.851 539.189 434.12C541.794 432.645 541.339 438.238 544.834 436.084L543.48 433.392C546.571 433.063 546.333 434.509 548.029 437.649C549.972 439.344 553.901 436.583 554.356 432.774C554.77 435.097 556.465 438.208 558.295 437.111C558.543 435.665 557.882 434.778 557.541 434.339C562.72 431.468 565.233 439.244 568.8 435.097C568.872 433.701 569.11 433.004 569.399 432.585C565.626 432.675 562.534 432.884 562.286 433.153C562.328 429.335 565.584 428.617 562.958 423.283C565.626 426.214 570.185 432.585 573.421 430.76C573.576 430.382 573.731 430.013 573.845 429.415L573.514 428.976C574.259 428.587 574.931 428.946 575.561 429.604C576.595 428.966 577.247 428.487 578.239 428.438C578.622 425.217 582.044 426.703 583.709 426.543C583.574 430.75 585.683 430.142 583.771 433.522C583.822 433.283 583.254 433.103 582.292 432.954C582.044 432.824 581.755 432.764 581.589 432.515C581.62 432.625 581.661 432.754 581.703 432.894C580.617 432.774 579.201 432.675 577.588 432.605C578.901 434.768 580.266 436.583 582.096 434.22C582.944 436.951 583.884 439.763 584.412 441.089C586.676 435.157 591.049 431.947 591.659 428.288C596.715 430.671 603.57 429.863 606.754 437.859C608.191 438.886 608.409 435.566 608.946 434.31C608.119 433.512 607.127 433.632 606.682 432.485C609.556 434.539 615.201 433.283 615.884 438.866C619.502 436.343 613.847 433.721 618.83 434.639L618.158 432.934C627.039 424.849 632.912 443.093 642.021 438.048V463.052L642 462.942ZM567.9 453.68C568.283 454.657 566.639 455.515 565.605 456.751C566.453 456.581 567.507 456.551 568.624 456.581C568.872 455.106 568.603 453.6 567.9 453.68ZM572.563 456.821V456.9C573.277 457 573.887 457.09 574.269 457.14C573.918 457.08 573.421 457 572.563 456.811V456.821ZM580.628 428.886C580.659 429.046 580.721 429.225 580.762 429.405C580.659 428.587 580.535 427.829 580.328 427.271C579.222 426.673 578.86 427.5 578.705 428.378C579.222 428.447 579.832 428.597 580.628 428.886Z" fill="black"/>
<path d="M582.292 432.854C582.447 432.943 582.54 433.123 582.747 433.163C582.52 433.532 582.313 433.861 582.085 434.12C581.951 433.661 581.817 433.193 581.693 432.784C581.889 432.814 582.096 432.824 582.282 432.854H582.292Z" fill="black"/>
<path d="M469.504 464.896L469.514 463.829L470.124 464.766L469.504 464.896Z" fill="black"/>
<path d="M86.2673 461.825C86.4431 461.845 86.6085 461.905 86.7533 462.014C87.9009 462.842 87.1255 462.513 86.2673 461.825Z" fill="black"/>
<path d="M26.0425 451.885C26.6835 452.653 27.3142 453.411 27.9759 453.899C26.9006 454.228 26.0735 454.308 26.0425 451.885Z" fill="black"/>
<path d="M153.523 466.949C153.523 466.949 153.523 466.91 153.523 466.88C153.667 466.9 153.792 466.88 153.936 466.88L153.533 466.949H153.523Z" fill="black"/>
<path d="M30.7779 453.82C29.7027 454.667 28.8135 454.488 27.9761 453.889C28.8549 453.6 29.8888 453.172 30.7779 453.82Z" fill="black"/>
<path d="M172.236 429.574L171.699 434.339C170.499 433.482 170.241 428.128 172.236 429.574Z" fill="black"/>
<path d="M241.942 434.429C242.697 432.046 244.661 430.511 245.871 432.854C244.299 433.183 242.738 435.037 241.942 434.429Z" fill="black"/>
<path d="M451.018 426.663L449.612 425.068L452.258 426.394L451.018 426.663Z" fill="black"/>
</g>
<g clip-path="url(#clip3_93_14328)">
<path d="M33.2799 34.2852C32.6699 34.4048 32.4114 34.9033 32.3804 35.3519C32.949 35.0229 33.4246 34.7138 33.2799 34.2852Z" fill="black"/>
<path d="M47.0722 39.7982C46.7723 39.6387 46.5242 39.5689 46.2554 39.4592C46.5655 39.9178 46.8757 40.177 47.0722 39.7982Z" fill="black"/>
<path d="M72.3097 45.2514C72.3097 45.2514 72.2477 45.2015 72.196 45.1716C71.5343 45.6601 71.9065 45.5704 72.3097 45.2514Z" fill="black"/>
<path d="M304.069 42.1112C301.443 38.3128 308.339 37.2261 304.39 33.009C304.762 34.6739 300.802 39.6387 304.069 42.1112Z" fill="black"/>
<path d="M304.39 33.009V32.9691L303.986 32.5703C304.152 32.7498 304.255 32.8495 304.39 33.009Z" fill="black"/>
<path d="M130.487 42.6993C130.363 41.9515 130.136 41.3833 129.898 40.835C129.919 41.2736 130.053 41.802 130.487 42.6993Z" fill="black"/>
<path d="M87.1462 36.6379L88.2215 37.2062C87.7976 36.8174 87.4564 36.6878 87.1462 36.6379Z" fill="black"/>
<path d="M152.985 36.6878C153.564 37.0167 153.771 37.6049 154.567 37.0267C154.495 36.8074 154.422 36.6578 154.329 36.5083C154.04 37.0965 153.657 37.3657 152.995 36.6878H152.985Z" fill="black"/>
<path d="M176.403 36.6677C176.279 36.3387 176.113 36.0994 175.969 35.8103C175.741 35.9 175.462 35.9598 175.224 36.0396L176.403 36.6677Z" fill="black"/>
<path d="M629.759 6.58981C630.275 7.78615 630.586 9.10212 630.844 10.4181C630.482 7.39734 633.925 6.31066 629.759 6.58981Z" fill="black"/>
<path d="M153.936 3.13037L157.658 3.75845C156.614 3.3497 155.27 3.13037 153.936 3.13037Z" fill="black"/>
<path d="M461.76 7.19802L462.618 6.68958C462.287 6.58988 461.987 6.71949 461.76 7.19802Z" fill="black"/>
<path d="M168.7 3.13037C169.362 4.62579 170.065 5.50311 170.799 6.07137C170.954 5.74238 171.13 5.46323 171.233 4.97472L168.711 3.13037H168.7Z" fill="black"/>
<path d="M642 7.04837C639.053 9.78998 634.235 6.75925 631.278 11.8337C631.041 11.3352 630.917 10.8667 630.855 10.448C631.382 13.2494 631.465 16.0907 631.351 18.1145C629.759 18.2142 628.404 21.6437 627.805 17.9949C628.776 18.1045 628.859 16.629 629.314 15.4825L627.649 17.0677C626.15 11.8138 629.924 15.2533 629.924 11.3552C626.678 13.0699 622.894 17.4166 620.402 15.9312C619.885 10.7869 626.223 14.1965 622.904 9.63046L626.75 11.5945C623.803 3.47929 629.087 12.1627 626.388 3.4793C621.322 1.99384 620.722 6.10127 615.667 4.59588C614.529 7.44715 616.039 8.82294 614.901 11.6842C607.716 16.8185 609.246 -1.24624 603.963 5.60279C602.598 9.0323 602.06 15.5324 598.307 12.0929L599.589 6.28072C594.689 5.71246 596.787 14.6351 591.649 10.7271C592.559 8.4441 595.505 8.803 594.761 8.1151C591.432 3.52914 592.404 11.415 589.85 11.415L589.323 6.27075C584.101 7.07828 578.343 10.7969 572.563 11.734C572.884 10.2087 573.876 8.59364 572.522 7.01846C565.222 9.59059 556.951 6.39038 549.91 3.33972L547.222 7.78611C546.602 7.73626 546.064 5.78224 546.736 4.9149C543.996 3.23006 546.592 7.73626 545.279 9.48092C543.717 9.78998 543.221 6.92874 544.203 5.59283C539.365 9.36129 530.421 13.708 525.314 8.95254L526.306 7.63657C522.336 5.83209 521.83 16.7387 518.139 12.6014L518.842 11.8138C510.229 9.88967 500.697 13.9572 494.121 7.24776C492.87 13.6482 485.591 4.39649 485.033 13.3192C480.112 8.89272 481.518 7.30758 474.591 4.3267C472.74 3.91795 471.83 9.89964 469.545 10.8268L469.493 6.16109L466.392 11.0561L464.738 5.47319L462.587 6.66953C463.445 6.9387 464.407 8.76312 464.272 10.109C460.922 12.2225 456.104 6.85895 456.022 4.46627L448.092 8.41419C448.226 7.02843 448.981 6.31063 449.798 5.55295C446.913 8.03535 449.581 0.129549 445.993 4.14725C446.51 5.20402 445.714 6.92874 445.621 7.86587C443.687 5.0445 439.283 5.02456 436.026 6.21093L436.646 2.99079C430.764 2.17329 424.24 4.53606 417.643 4.47624C420.011 5.97167 419.463 11.5446 417.53 12.083L416.754 7.15803C415.503 10.1987 418.781 9.01236 416.206 12.7409C413.735 12.1727 414.552 7.13809 415.968 5.53301L412.97 7.24776C412.794 5.77228 413.497 4.99466 413.683 3.12039C412.453 6.18102 408.504 -1.82447 406.736 3.48926L406.57 2.02375C399.974 1.98387 396.976 3.67868 391.599 3.92792C391.496 8.18489 389.397 7.23779 387.795 10.6773C383.845 9.32141 379.461 5.97167 374.695 6.33057C371.345 8.4441 373.713 9.92955 372.214 12.4618C371.966 8.58367 367.21 8.95254 369.681 6.17105C363.963 6.79913 362.381 6.9387 355.154 10.0891C355.94 11.6842 356.819 12.3721 356.364 13.688C355.051 14.3261 353.376 12.063 353.572 10.1987L353.914 9.79995C345.953 15.5025 335.582 -0.877368 329.09 6.18102L322.4 10.3881C319.319 9.72019 324.251 7.47706 321.966 5.07441C314.739 11.5446 310.552 4.13728 304.596 8.4441C299.996 -2.9909 288.25 9.25162 282.037 1.944L282.399 4.63575C280.796 7.27767 280.455 3.09049 279.276 2.47238C279.442 4.56597 281.023 4.89496 280.021 6.36048C266.414 9.61053 251.929 2.42253 237.972 -0.0100231C232.864 -0.727826 235.077 13.9273 228.646 7.497L230.476 2.50229C220.178 8.50391 209.415 2.29293 199.335 7.38733C199.935 6.23087 199.955 4.73545 200.937 4.75539C198.808 1.1265 193.059 4.57594 193.028 7.54684C191.457 7.20788 192.666 4.86505 191.694 3.35966C189.554 1.21622 186.328 7.99547 185.201 4.38652C185.077 3.99771 185.367 3.61887 185.698 3.31978C183.888 4.31673 179.835 2.87116 181.045 6.66953C177.261 4.66566 173.808 8.53382 170.789 6.05142C168.824 10.7371 164.306 3.79832 163.686 10.4181C163.955 3.56902 157.048 4.89496 154.66 8.1151C155.456 6.04145 152.582 5.97167 153.523 3.10045C150.793 3.20015 148.291 4.46627 148.767 7.9855C143.732 -0.209413 138.655 14.5753 135.822 4.07746C127.706 7.7562 120.2 10.2486 112.911 11.8537C113.169 5.02457 120.975 11.1757 120.665 4.00768C113.738 6.81907 109.747 12.6811 102.882 11.0362C101.104 10.109 103.895 8.07523 104.495 6.9088C97.5782 9.72019 91.1267 6.29069 84.975 10.0093C84.9957 9.37126 85.6573 8.68336 86.288 8.15498C85.0784 8.38428 83.4655 7.15803 83.5999 10.2585L84.7785 9.42111C86.7119 13.9273 79.9605 18.8323 79.7434 21.205C81.8009 12.3123 73.6641 18.9719 76.9312 7.72629C76.1351 8.31449 75.1322 9.78001 75.3183 11.8636C74.1293 11.2555 73.7571 10.0492 74.9565 7.68642C70.6141 9.37126 72.1546 12.6712 68.2154 12.6014C68.2258 11.096 69.0219 10.5177 69.4354 8.75315C67.44 11.6842 65.4446 14.6152 62.1154 13.3391C62.3118 12.4319 61.9293 11.2555 62.9218 11.2754C57.2147 11.734 53.1825 19.0815 46.917 16.2502C48.7677 9.72019 44.7872 14.1068 44.4564 8.45407L41.0858 10.1389L42.4402 12.8805C39.4936 12.7808 36.8779 16.8982 34.3448 15.0539L36.5367 12.721L31.0053 13.7877L34.138 15.9312C31.15 18.8423 34.4585 23.0793 30.5297 21.5041C31.3258 20.9359 27.5727 21.4343 26.0426 18.1045C26.0426 18.1045 26.0426 18.1045 26.0426 18.0846C24.8432 19.5601 23.6129 21.1053 22 20.8262V41.5727C25.1017 41.9316 25.2878 33.9361 29.3304 35.6508C28.7514 33.8563 28.2138 29.061 31.5739 27.3662C34.717 28.0341 35.4407 34.9031 33.4556 36.3387C32.7009 36.4882 32.339 35.92 32.37 35.3118C31.3568 35.9698 30.0231 36.7375 31.2638 38.6815L31.667 36.887C33.2282 38.7214 37.5499 38.532 36.5367 41.473C38.5735 40.0075 37.8601 38.8909 36.516 38.0136C40.114 39.8978 42.3472 37.7743 46.245 39.4193C45.5833 38.4323 44.9733 36.3188 45.635 36.3387C51.7247 38.5619 48.3128 32.9291 52.4381 32.1416C54.785 34.8832 51.6006 38.6815 55.7466 36.3885C58.2796 38.2429 56.2842 41.154 55.271 42.6195C59.055 39.1601 62.3429 44.8925 64.5037 45.5306L62.5083 46.9761C63.6973 46.1188 64.6795 46.1387 65.672 46.1487L64.5347 42.5497C65.703 43.1778 66.6956 43.1977 66.6749 44.6832C67.8846 42.3304 65.7547 38.7114 68.143 35.4913C69.7042 37.3157 72.899 33.5373 73.4366 38.3027C69.0219 36.8471 72.9817 41.8817 70.8002 43.4669C71.3895 43.3871 72.0409 43.5466 72.7749 43.9454C72.9507 44.4738 72.6095 44.9324 72.289 45.2016C76.9829 49.4585 74.4499 39.8081 79.3092 39.9177C78.6888 42.5995 80.4361 45.0122 81.2322 44.4439C79.2678 44.394 80.2914 39.9576 82.0904 37.9039C85.2128 39.9975 85.4816 36.3487 87.1152 36.5879L85.2541 35.601C85.8848 32.9192 87.446 33.2681 89.6172 32.4207C89.6689 33.0488 89.5138 33.4276 89.2967 33.6768C91.5506 32.1415 94.2698 39.2996 97.2474 36.4882C98.8086 38.3127 97.4025 41.5328 98.7672 42.769C102.541 39.2897 102.851 46.4478 106.821 43.5666C105.674 39.9576 105.477 40.8349 108.269 37.3157L101.745 39.8579L105.932 34.604C103.968 34.5542 101.776 36.8771 100.597 36.2589C102.593 33.3179 102.386 34.2152 101.445 31.2144C104.144 36.6278 106.78 28.0541 109.902 31.7129L109.809 40.6555C114.493 44.6333 118.122 36.0695 124.201 38.3127L122.247 36.7574C123.064 33.2083 126 36.2589 127.965 34.8233C127.779 37.8142 129.009 38.9009 129.857 40.7552C129.753 38.542 134.302 40.9546 134.861 34.9928L137.57 38.9308C142.481 40.5458 143.173 30.4168 147.888 31.4337C146.471 34.6838 148.612 36.7973 145.448 39.1202C147.019 39.1501 148.436 39.6984 148.467 37.6248C149.387 39.499 152.83 33.5971 154.288 36.4384C154.949 35.1224 155.167 31.992 156.935 32.2412C157.048 32.6101 157.028 33.0687 156.986 33.3778C157.358 32.1316 159.571 31.4437 158.155 28.393C163.004 37.7145 171.719 27.7151 175.938 35.7206C179.37 34.7137 183.516 33.7566 186.639 33.5373C186.442 34.4345 186.639 35.0227 186.039 34.7137C190.34 37.4952 188.686 26.1399 193.586 29.2404C196.088 34.0657 190.981 31.8524 192.542 33.6768C193.225 43.5068 198.456 32.331 201.754 38.0734L200.958 38.6516C203.481 41.9914 207.11 34.923 211.225 35.6309C211.225 35.6309 211.028 36.4982 211.204 37.1163C214.016 32.1017 219.351 30.4467 223.311 29.051C222.081 32.8992 221.512 31.0848 222.267 34.9928C224.045 34.4345 221.75 28.7121 225.286 27.6154C226.433 29.719 228.998 31.5633 229.328 35.7306L225.989 35.9599C227.705 41.3633 230.311 35.7704 232.079 36.7175L231.851 39.0803C236.969 38.3127 237.041 32.3708 242.552 32.7896L241.983 31.005C244.992 25.1131 244.506 34.3149 247.504 29.9383L248.414 35.91C250.399 34.4644 255.372 30.1377 258.929 29.0111C256.913 33.4376 252.746 35.7106 250.172 38.3426C252.136 38.3824 256.861 37.9039 257.885 34.9529C257.089 35.5312 256.096 36.9967 255.31 36.0695C257.73 31.3739 260.904 29.061 264.822 29.1706C264.13 40.7552 275.048 32.0917 277.891 41.0842C284.828 36.7973 291.652 42.9086 299.737 42.2207C296.873 33.2083 302.094 41.9615 301.598 32.7098C303.48 32.1216 304.204 32.2712 304.369 32.8693L310.076 38.3924C311.431 41.0842 308.287 40.4362 308.463 42.5098C312.589 43.2176 310.19 46.4278 312.919 48.8903C312.361 45.5804 314.356 44.1448 316.703 45.4109L313.395 41.144C319.154 36.2191 318.378 48.9102 324.179 44.0351L322.338 46.9462C325.316 45.2315 333.329 47.006 336.244 39.5688C336.771 40.6355 337.464 43.1678 336.151 43.8358C343.275 44.9523 352.001 35.92 357.532 40.5059L356.995 42.769C358.318 42.111 359.311 38.522 360.975 40.7951C360.892 41.7322 360.437 43.0581 361.058 43.1877C361.761 42.4101 364.583 39.2199 366.351 40.5458L364.852 43.088C371.8 46.049 375.512 36.887 381.333 35.3318C381.322 41.9914 386.781 44.1548 389.511 45.2414L389.418 46.1886C397.503 47.016 403.158 40.6655 410.644 38.0535C415.296 45.2813 426.39 41.0842 433.865 45.1418C432.728 43.9354 434.051 39.9477 435.375 39.2797C437.132 40.6355 440.224 34.6539 439.945 40.7652L439.324 40.6455C440.648 46.6372 444.246 45.052 447.058 45.2115L447.523 37.216C454.884 48.8404 466.805 32.9491 470.817 43.3572C472.595 41.3534 474.797 41.3833 476.555 39.3794L476.462 43.6663C481.383 44.7629 483.844 45.3013 489.923 44.2744L488.683 47.335C492.115 47.6142 493.015 34.9829 496.179 34.7236L497.13 41.1241C503.116 41.0244 509.175 46.6372 515.089 40.8349C514.996 41.7721 514.82 43.6264 513.848 43.8756C516.567 44.0351 524.187 47.9133 523.794 40.2966C524.487 44.5536 530.08 39.838 533.13 37.4653L532.624 41.6823C535.353 36.2988 535.436 34.8233 539.251 33.3279C540.057 33.8164 540.047 36.1094 539.189 35.8402C541.794 37.3157 541.339 31.7228 544.834 33.8762L543.48 36.568C546.571 36.897 546.333 35.4514 548.029 32.311C549.972 30.6162 553.901 33.3778 554.356 37.1861C554.77 34.8632 556.465 31.7527 558.295 32.8494C558.543 34.295 557.882 35.1822 557.541 35.6209C562.72 38.4921 565.233 30.7159 568.8 34.8632C568.872 36.2589 569.11 36.9568 569.399 37.3755C565.626 37.2858 562.534 37.0764 562.286 36.8073C562.328 40.6256 565.584 41.3434 562.958 46.6771C565.626 43.746 570.185 37.3755 573.421 39.1999C573.576 39.5788 573.731 39.9477 573.845 40.5458L573.514 40.9845C574.259 41.3733 574.931 41.0144 575.561 40.3564C576.595 40.9944 577.247 41.473 578.239 41.5228C578.622 44.743 582.044 43.2575 583.709 43.417C583.574 39.2099 585.683 39.818 583.771 36.4384C583.822 36.6777 583.254 36.8571 582.292 37.0067C582.044 37.1363 581.755 37.1961 581.589 37.4453C581.62 37.3357 581.661 37.206 581.703 37.0665C580.617 37.1861 579.201 37.2858 577.588 37.3556C578.901 35.1922 580.266 33.3778 582.096 35.7405C582.944 33.0089 583.884 30.1975 584.412 28.8716C586.676 34.8034 591.049 38.0136 591.659 41.6724C596.715 39.2897 603.57 40.0972 606.754 32.1017C608.191 31.0748 608.409 34.3947 608.946 35.6508C608.119 36.4484 607.127 36.3287 606.682 37.4752C609.556 35.4215 615.201 36.6777 615.884 31.0948C619.502 33.617 613.847 36.239 618.83 35.3218L618.158 37.0266C627.039 45.1118 632.912 26.8677 642.021 31.9123V7.04837H642ZM567.9 16.31C568.283 15.333 566.639 14.4756 565.605 13.2394C566.453 13.4089 567.507 13.4388 568.624 13.4089C568.872 14.8844 568.603 16.3898 567.9 16.31ZM572.563 13.1696V13.0899C573.277 12.9902 573.887 12.9005 574.269 12.8506C573.918 12.9104 573.421 12.9902 572.563 13.1796V13.1696ZM580.628 41.1041C580.659 40.9446 580.721 40.7651 580.762 40.5857C580.659 41.4032 580.535 42.1609 580.328 42.7192C579.222 43.3173 578.86 42.4899 578.705 41.6126C579.222 41.5428 579.832 41.3932 580.628 41.1041Z" fill="black"/>
<path d="M582.292 37.1462C582.447 37.0565 582.54 36.8771 582.747 36.8372C582.52 36.4683 582.313 36.1393 582.085 35.8801C581.951 36.3387 581.817 36.8073 581.693 37.216C581.889 37.1861 582.096 37.1762 582.282 37.1462H582.292Z" fill="black"/>
<path d="M469.504 5.10449L469.514 6.17123L470.124 5.2341L469.504 5.10449Z" fill="black"/>
<path d="M86.2673 8.17498C86.4431 8.15504 86.6085 8.09522 86.7533 7.98556C87.9009 7.15809 87.1255 7.48708 86.2673 8.17498Z" fill="black"/>
<path d="M26.0425 18.1146C26.6835 17.347 27.3142 16.5893 27.9759 16.1008C26.9006 15.7718 26.0735 15.692 26.0425 18.1146Z" fill="black"/>
<path d="M153.523 3.05078C153.523 3.05078 153.523 3.09066 153.523 3.12057C153.667 3.10063 153.792 3.12057 153.936 3.12057L153.533 3.05078H153.523Z" fill="black"/>
<path d="M30.7779 16.1805C29.7027 15.3331 28.8135 15.5126 27.9761 16.1108C28.8549 16.3999 29.8888 16.8286 30.7779 16.1805Z" fill="black"/>
<path d="M172.236 40.4263L171.699 35.6609C170.499 36.5183 170.241 41.8719 172.236 40.4263Z" fill="black"/>
<path d="M241.942 35.571C242.697 37.9537 244.661 39.489 245.871 37.1462C244.299 36.8172 242.738 34.9629 241.942 35.571Z" fill="black"/>
<path d="M451.018 43.3374L449.612 44.9325L452.258 43.6066L451.018 43.3374Z" fill="black"/>
</g>
<g clip-path="url(#clip4_93_14328)">
<path d="M358.869 64.5349C358.338 64.3023 358.112 64.035 358.132 63.6216C358.246 63.687 358.347 63.7431 358.446 63.8026C358.53 63.8533 358.606 63.922 358.696 63.9585C358.992 64.0792 359.046 64.2478 358.869 64.5349Z" fill="white"/>
<path d="M359.567 64.2828C358.948 64.032 358.525 63.5168 357.884 63.2833C358.047 63.1644 358.136 63.2182 358.231 63.2816C358.415 63.4041 358.596 63.5346 358.792 63.6333C358.902 63.6891 359.042 63.6875 359.186 63.7151C359.119 63.8689 359.247 63.9431 359.404 63.9963C359.513 64.0332 359.623 64.0683 359.567 64.2825L359.567 64.2828Z" fill="white"/>
<path d="M364.839 67.7066C365.32 67.9062 365.667 68.262 366.058 68.552C366.101 68.5841 366.109 68.6628 366.139 68.7319C365.751 68.6675 364.996 68.0735 364.839 67.7067L364.839 67.7066Z" fill="white"/>
<path d="M361.649 65.5883C361.861 65.5513 362.027 65.599 362.17 65.7077C362.434 65.9081 362.662 66.1574 362.981 66.2806C363.024 66.2969 363.049 66.3578 363.089 66.4058C362.987 66.5202 362.893 66.48 362.811 66.4259C362.487 66.2124 362.166 65.9959 361.847 65.7749C361.773 65.7236 361.714 65.651 361.649 65.5886L361.649 65.5883Z" fill="white"/>
<path d="M367.295 69.6976C367.553 69.624 367.687 69.6541 367.786 69.8418C367.859 69.9803 367.947 70.0748 368.097 70.1191C368.269 70.1696 368.28 70.2834 368.198 70.4717C368.083 70.4084 367.935 70.3778 367.891 70.2932C367.781 70.0785 367.575 69.9923 367.408 69.8536C367.362 69.8156 367.335 69.7545 367.295 69.6973L367.295 69.6976Z" fill="white"/>
<path d="M349.254 58.9146C348.84 58.8652 348.47 58.7189 348.144 58.4548C348.248 58.3219 348.384 58.3475 348.481 58.41C348.739 58.5766 349.14 58.5302 349.254 58.9146Z" fill="white"/>
<path d="M310.672 54.547C310.743 54.5089 310.824 54.428 310.886 54.4401C311.105 54.4824 311.256 54.3426 311.433 54.2726C311.464 54.2603 311.499 54.229 311.524 54.2357C311.591 54.2535 311.653 54.287 311.717 54.3145C311.688 54.3674 311.67 54.4539 311.628 54.4684C311.327 54.5709 311.026 54.697 310.699 54.6303L310.671 54.5469L310.672 54.547Z" fill="white"/>
<path d="M330.57 53.2539C331.118 53.1154 331.14 53.1221 331.391 53.4927C331.084 53.5133 330.839 53.4223 330.57 53.2539Z" fill="white"/>
<path d="M360.57 64.8592C360.262 64.7323 359.935 64.6341 359.665 64.3332C359.961 64.3546 360.427 64.6233 360.57 64.8592Z" fill="white"/>
<path d="M360.771 64.9598C361.077 64.9213 361.319 65.0885 361.433 65.3499C361.388 65.3561 361.334 65.381 361.31 65.364C361.127 65.2337 360.95 65.0954 360.771 64.9598Z" fill="white"/>
<path d="M369.263 71.8984C369.537 72.1364 369.812 72.3743 370.109 72.6323C369.839 72.5396 369.479 72.2461 369.263 71.8984Z" fill="white"/>
<path d="M370.759 73.35C370.543 73.2479 370.381 73.0876 370.243 72.9004C370.264 72.877 370.284 72.8534 370.305 72.8299C370.482 72.9752 370.659 73.1202 370.836 73.2656C370.81 73.2938 370.784 73.3217 370.759 73.3502L370.759 73.35Z" fill="white"/>
<path d="M340.732 55.2894C340.457 55.2127 340.12 55.2918 339.888 55.0803C339.899 55.0499 339.91 55.0198 339.921 54.9894C340.191 55.0893 340.462 55.1893 340.732 55.2892L340.732 55.2894Z" fill="white"/>
<path d="M367.184 69.386C366.891 69.4663 366.71 69.3612 366.547 69.0697C366.77 69.1801 366.977 69.2832 367.184 69.386Z" fill="white"/>
<path d="M335.482 53.9708C335.679 54.0003 335.839 54.0244 336.057 54.0571C335.675 54.2339 335.64 54.2292 335.482 53.9708Z" fill="white"/>
<path d="M348.012 58.3675C347.804 58.4463 347.725 58.2803 347.605 58.2079C347.737 58.2538 347.937 58.088 348.012 58.3675Z" fill="white"/>
<path d="M307.067 55.8272C307.179 55.7836 307.275 55.7455 307.391 55.7002C307.293 55.9836 307.283 55.9875 307.067 55.8272Z" fill="white"/>
<path d="M360.779 65.3871C360.635 65.3174 360.491 65.2476 360.348 65.178C360.358 65.1585 360.367 65.1387 360.377 65.1192C360.52 65.1913 360.662 65.2636 360.804 65.3359C360.796 65.3531 360.788 65.3704 360.779 65.3876L360.779 65.3871Z" fill="white"/>
<path d="M360.508 65.8008C360.493 65.7185 360.478 65.6359 360.452 65.4954L360.727 65.6531C360.632 65.7145 360.564 65.7586 360.496 65.8029C360.496 65.803 360.508 65.8008 360.508 65.8008Z" fill="white"/>
<path d="M339.844 54.7564C339.974 54.7942 340.104 54.832 340.234 54.8699C340.229 54.8914 340.223 54.9127 340.218 54.9342C340.088 54.9046 339.957 54.8752 339.827 54.8456C339.833 54.8158 339.838 54.7861 339.844 54.7567L339.844 54.7564Z" fill="white"/>
<path d="M356.331 62.7063C356.532 62.7132 356.624 62.7496 356.654 62.9053C356.493 62.9565 356.439 62.8584 356.331 62.7063Z" fill="white"/>
<path d="M361.183 65.6959C361.122 65.6411 361.06 65.586 360.998 65.5315C361.16 65.486 361.192 65.5705 361.183 65.6959Z" fill="white"/>
<path d="M359.257 64.3523C359.354 64.4272 359.403 64.4639 359.483 64.5258C359.376 64.5593 359.308 64.5801 359.208 64.6118C359.224 64.5226 359.235 64.465 359.257 64.3526L359.257 64.3523Z" fill="white"/>
<path d="M308.153 55.5195C308.109 55.5753 308.064 55.6309 308.019 55.687C308.003 55.6766 307.987 55.6659 307.971 55.6557L308.079 55.4705C308.104 55.4869 308.128 55.5031 308.153 55.5195Z" fill="white"/>
<path d="M357.557 63.2745L357.719 63.3677C357.711 63.3823 357.702 63.3965 357.693 63.4108L357.531 63.3178C357.54 63.3032 357.548 63.2889 357.557 63.2745Z" fill="white"/>
<path d="M351.67 60.2774L351.869 60.3912C351.864 60.4016 351.859 60.4122 351.854 60.4225C351.781 60.3924 351.708 60.3622 351.634 60.3321C351.646 60.3138 351.658 60.2956 351.67 60.2772L351.67 60.2774Z" fill="white"/>
<path d="M360.08 65.0106C360.081 64.9745 360.081 64.9459 360.081 64.9171C360.112 64.9215 360.15 64.9158 360.17 64.9326C360.187 64.9471 360.183 64.9868 360.188 65.015C360.157 65.0136 360.125 65.0124 360.081 65.0105L360.08 65.0106Z" fill="white"/>
<path d="M366.997 70.2219C367.054 70.2685 367.112 70.3155 367.17 70.3621C367.157 70.3779 367.143 70.3935 367.13 70.4095C367.074 70.3616 367.017 70.3138 366.96 70.2659L366.997 70.2219Z" fill="white"/>
<path d="M315.115 53.4774C315.058 53.492 315.001 53.5067 314.944 53.5212C314.937 53.4937 314.93 53.4663 314.922 53.4388C314.977 53.4147 315.031 53.3905 315.085 53.3662C315.095 53.4033 315.105 53.4404 315.115 53.4774Z" fill="white"/>
<path d="M309.906 54.9345C309.924 54.9308 309.943 54.9272 309.961 54.9235C309.961 54.9421 309.962 54.9614 309.957 54.9793C309.956 54.984 309.931 54.9896 309.929 54.9871C309.919 54.9709 309.913 54.9525 309.905 54.9346L309.906 54.9345Z" fill="white"/>
<path d="M313.604 53.7757C313.614 53.8006 313.621 53.8163 313.627 53.8322C313.608 53.8375 313.588 53.8497 313.571 53.8464C313.555 53.8431 313.542 53.8231 313.528 53.8106C313.553 53.799 313.579 53.7876 313.604 53.7759L313.604 53.7757Z" fill="white"/>
<path d="M371.171 73.6343C371.169 73.6468 371.173 73.6809 371.158 73.7036C371.151 73.7143 371.099 73.7133 371.087 73.7001C371.072 73.6834 371.076 73.6487 371.072 73.6215C371.091 73.624 371.11 73.6265 371.171 73.634L371.171 73.6343Z" fill="white"/>
<path d="M334.972 53.9007C335.023 53.9124 335.073 53.9242 335.124 53.9358C335.12 53.9521 335.116 53.9688 335.112 53.9851C335.061 53.9728 335.011 53.9608 334.96 53.9486C334.964 53.9326 334.968 53.9166 334.972 53.9007Z" fill="white"/>
<path d="M346.064 57.0549C346.081 57.0811 346.092 57.0983 346.103 57.1152C346.074 57.1231 346.044 57.1362 346.015 57.136C346.004 57.1359 345.993 57.1047 345.983 57.0874C346.011 57.0762 346.039 57.0651 346.064 57.0548L346.064 57.0549Z" fill="white"/>
<path d="M329.781 53.1513C329.731 53.1549 329.682 53.1584 329.632 53.1619C329.626 53.1484 329.62 53.1348 329.614 53.1214C329.641 53.1046 329.666 53.0788 329.695 53.0737C329.722 53.069 329.752 53.0867 329.781 53.0947L329.781 53.151L329.781 53.1513Z" fill="white"/>
</g>
<defs>
<filter id="filter0_b_93_14328" x="14" y="16" width="636" height="436" filterUnits="userSpaceOnUse" color-interpolation-filters="sRGB">
<feFlood flood-opacity="0" result="BackgroundImageFix"/>
<feGaussianBlur in="BackgroundImageFix" stdDeviation="4"/>
<feComposite in2="SourceAlpha" operator="in" result="effect1_backgroundBlur_93_14328"/>
<feBlend mode="normal" in="SourceGraphic" in2="effect1_backgroundBlur_93_14328" result="shape"/>
</filter>
<clipPath id="clip0_93_14328">
<rect width="49" height="444" fill="white" transform="translate(618 10)"/>
</clipPath>
<clipPath id="clip1_93_14328">
<rect width="49" height="430" fill="white" transform="translate(0 22)"/>
</clipPath>
<clipPath id="clip2_93_14328">
<rect width="620" height="49" fill="white" transform="translate(22 421)"/>
</clipPath>
<clipPath id="clip3_93_14328">
<rect width="620" height="49" fill="white" transform="translate(22)"/>
</clipPath>
<clipPath id="clip4_93_14328">
<rect width="96" height="106" fill="white" transform="translate(385 53) rotate(90)"/>
</clipPath>
</defs>
</svg>
