<svg width="44" height="45" viewBox="0 0 44 45" fill="none" xmlns="http://www.w3.org/2000/svg">
<rect y="0.5" width="44" height="44" rx="22" fill="black"/>
<g clip-path="url(#clip0_35_3705)">
<path d="M36.2704 24.0203C36.0973 23.8298 36.0208 23.5659 35.9221 23.3322C35.7919 23.0239 35.635 22.7297 35.4849 22.431C35.1983 21.8607 34.8301 21.344 34.5275 20.7836C34.2119 20.1991 33.8732 19.6296 33.5515 19.0488C33.2459 18.4972 33.0589 17.8981 32.7161 17.367C32.5482 17.107 32.3841 16.8573 32.2782 16.5651C32.1635 16.2492 32.0425 15.9878 31.834 15.722C31.4368 15.2154 31.3278 14.588 31.0033 14.0426C30.8384 13.7655 30.7742 13.5074 30.662 13.211C30.5528 12.9227 30.3642 12.673 30.2062 12.4107C30.0578 12.1643 29.9805 11.9219 29.8896 11.6523C29.8069 11.4072 29.6454 11.2019 29.5805 10.9514C29.4058 10.2771 28.9831 9.71225 28.756 9.0526C28.7046 8.90325 28.6988 8.74405 28.6385 8.59745C28.585 8.46761 28.4901 8.36524 28.4302 8.23938C28.318 8.00372 28.2729 7.7605 28.09 7.5628C28.0419 7.51083 27.9529 7.4854 27.8852 7.50866C27.6778 7.5798 27.443 7.49765 27.2261 7.51681C27.0507 7.53234 26.8772 7.56872 26.7021 7.58741C26.5375 7.60505 26.3737 7.62726 26.2093 7.64566C25.9571 7.67384 25.7096 7.62474 25.4571 7.64243C25.0197 7.67296 24.5905 7.7772 24.1541 7.81786C23.6511 7.86474 23.155 7.90171 22.6548 7.98105C21.6695 8.13743 20.6872 8.33606 19.7153 8.56194C19.3161 8.65481 18.9366 8.80551 18.5287 8.85643C18.0265 8.91919 17.5302 9.0304 17.0333 9.1259C16.1234 9.30075 15.1965 9.40815 14.2989 9.64229C13.8904 9.74887 13.4868 9.8636 13.0725 9.94762C12.6199 10.0394 12.1554 10.0356 11.7248 10.2123C10.9826 10.517 10.211 10.9518 9.62869 11.507C9.04914 12.0595 8.48072 12.6563 8.24963 13.4377C8.11463 13.894 7.9 14.3148 7.78088 14.7818C7.65028 15.2933 7.6119 15.7287 7.64776 16.2523C7.66041 16.4364 7.64459 16.6181 7.65204 16.8012C7.65543 16.8867 7.66791 16.9677 7.70653 17.0446C7.74614 17.1236 7.77285 17.1672 7.79354 17.2416C7.86397 17.4939 7.96949 17.7176 8.12852 17.9074C8.12963 17.9121 8.13039 17.9172 8.13156 17.9218C8.21717 18.2525 8.32979 18.4895 8.4935 18.7876C8.77516 19.3005 9.03935 19.8989 8.99289 20.4867C8.94525 21.0892 8.98211 21.6467 9.56722 21.9669C9.79931 22.0939 9.98019 22.2716 10.2258 22.3862C10.3593 22.4485 10.5326 22.5072 10.6354 22.6198C10.754 22.7494 10.7878 22.9646 10.8253 23.1312C10.985 23.8406 11.1346 24.5125 11.4449 25.1738C11.5759 25.4532 11.6807 25.7425 11.807 26.0238C11.9584 26.3607 12.1661 26.6631 12.3359 26.99C12.4273 27.166 12.5609 27.3536 12.5318 27.5443C12.4872 27.8354 12.3826 28.0393 12.4447 28.3467C12.5629 28.9316 12.9398 29.3483 13.3844 29.7088C13.7006 29.9649 13.7753 30.3365 13.8935 30.709C14.0105 31.0779 14.094 31.4527 14.2118 31.8212C14.3206 32.1617 14.4501 32.4924 14.5596 32.8322C14.6521 33.1194 14.7563 33.3839 14.9405 33.6136C14.9802 33.7672 15.0336 33.9167 15.1191 34.0615C15.3106 34.3859 15.5793 34.7064 15.8671 34.9488C16.1335 35.1732 16.4545 35.251 16.7384 35.4378C16.8799 35.5308 16.9938 35.6527 17.1455 35.7327C17.3191 35.8243 17.5124 35.8932 17.6958 35.962C18.44 36.2411 19.2373 36.0937 19.9954 35.9542C20.3692 35.8854 20.7524 35.81 21.1144 35.6929C21.3125 35.6289 21.5021 35.5418 21.7006 35.4792C21.8743 35.4243 22.0524 35.4128 22.2091 35.3159C22.2372 35.299 22.2604 35.2753 22.2767 35.2469C22.293 35.2185 22.3018 35.1864 22.3022 35.1537C22.3282 35.4776 22.308 35.8143 22.2482 36.1137C22.1809 36.4502 21.943 36.8665 22.067 37.2123C22.3016 37.8666 22.9877 37.2345 23.2645 36.9803C23.5219 36.7438 23.7817 36.4978 23.9161 36.1689C23.9813 36.0093 24.0258 35.838 24.0564 35.6641C24.3027 36.1822 24.7316 36.8616 25.1636 36.6195C25.5017 36.4301 25.4098 35.8194 25.3695 35.5154C25.3297 35.2121 25.2831 34.9097 25.2299 34.6085C25.3335 34.5886 25.4406 34.5782 25.5402 34.5515C25.7876 34.4851 26.0244 34.3775 26.2709 34.3057C26.7957 34.1528 27.3282 34.0245 27.8546 33.8766C28.8843 33.5876 29.8933 33.2585 30.9306 32.9947C32.0059 32.7213 33.095 32.4737 34.1573 32.154C34.5424 32.0382 34.9843 31.9096 35.2571 31.5936C35.4881 31.3261 35.735 30.8929 35.6776 30.5299C35.6207 30.1701 35.3442 29.8104 35.0586 29.595C34.8714 29.4539 34.574 29.3393 34.3541 29.1772C34.3511 29.1524 34.3406 29.129 34.3239 29.1103C34.313 29.0778 34.2962 29.0476 34.2745 29.021C34.2622 29.0054 34.2561 28.9949 34.2331 28.9591C34.1949 28.9007 34.1584 28.8412 34.1239 28.7805C34.1106 28.7465 34.0913 28.7147 34.0629 28.678C34.0444 28.6543 34.0259 28.6305 34.0067 28.6073C33.9505 28.5387 33.8528 28.5211 33.7673 28.5409C33.7755 28.4048 33.7952 28.2659 33.8263 28.1165C33.982 27.3665 34.3744 26.6993 34.8135 26.0762C35.1762 25.9895 35.5236 25.864 35.8075 25.6028C36.1578 25.2805 36.412 24.8436 36.354 24.3606C36.381 24.2461 36.361 24.12 36.2704 24.0203ZM25.6848 8.31872C26.0986 8.31128 26.4869 8.25638 26.8952 8.18501C27.1156 8.14651 27.3217 8.06272 27.544 8.03489C27.6559 8.02089 27.7576 8.00472 27.8571 7.9739C27.9361 8.15208 27.9431 8.37444 28.0139 8.54999C28.1257 8.82749 28.1172 9.10727 28.208 9.39356C28.2723 9.59629 28.3537 9.79211 28.4386 9.98612C28.1009 9.92383 27.7603 9.90561 27.4249 9.8118C27.078 9.71471 26.8008 9.52434 26.4894 9.35278C26.1771 9.18075 25.8737 9.0526 25.6861 8.72964C25.6088 8.59634 25.5487 8.46063 25.4805 8.33073C25.5484 8.32428 25.6166 8.32027 25.6848 8.31872ZM13.8472 29.3384C13.7669 29.2746 13.682 29.2151 13.596 29.1543C13.3094 28.9521 13.1077 28.6955 13.0038 28.3545C12.8894 27.9792 13.0889 27.9218 13.2422 27.6435C13.3134 27.5142 13.3238 27.3867 13.3017 27.2612C13.4944 26.814 13.6903 26.3672 13.8932 25.9233C13.9812 25.7308 14.0397 25.5182 14.1527 25.3393C14.2752 25.1452 14.441 24.9731 14.5825 24.7923C14.8594 24.4387 15.2166 24.1816 15.5006 23.8365C15.5534 23.7722 15.5258 23.6485 15.4256 23.6553C15.0126 23.6836 14.5862 24.1146 14.3321 24.4128C14.1755 24.5966 14.0172 24.7806 13.8661 24.9689C13.6999 25.176 13.6215 25.3894 13.511 25.6269C13.3517 25.9694 13.1977 26.3133 13.0442 26.6577C12.7733 26.148 12.4708 25.6603 12.2196 25.1377C12.0808 24.8488 11.9052 24.5819 11.7544 24.2999C11.5581 23.9323 11.4543 23.5324 11.3653 23.1277C11.3295 22.965 11.2973 22.7938 11.2439 22.6318C11.3036 22.5842 11.3073 22.4844 11.2649 22.4184C11.314 22.2516 11.3849 22.0968 11.4284 21.9265C11.4828 21.7135 11.4952 21.4937 11.5771 21.288C11.6471 21.1121 11.6962 20.9404 11.7598 20.764C11.8362 20.5521 12.0181 20.3132 12.1324 20.1111C12.3857 19.6631 12.8199 19.2865 13.1889 18.9349C13.553 18.5881 14.0005 18.3375 14.3592 17.9936C14.4345 17.9215 14.3752 17.7965 14.2765 17.7939C13.7155 17.7791 13.2125 18.2169 12.8144 18.5603C12.3921 18.9245 11.8686 19.3016 11.5879 19.7929C11.5058 19.9365 11.4473 20.0745 11.3526 20.2124C11.2785 20.3202 11.2124 20.4172 11.1724 20.5442C11.11 20.7421 11.0513 20.9279 10.9782 21.1233C10.8778 21.392 10.8792 21.6796 10.8148 21.9552C10.8093 21.9787 10.8047 22.001 10.8003 22.0233C10.6899 21.9417 10.5715 21.8687 10.4587 21.7897C10.3373 21.7047 10.2708 21.5995 10.1685 21.499C10.0809 21.4131 9.9397 21.3714 9.863 21.2794C9.6874 21.0684 9.78179 20.6849 9.80125 20.4397C9.81718 20.2399 9.80968 20.0398 9.75115 19.8547C9.87542 19.6435 9.95417 19.4046 10.08 19.1653C10.3728 18.6085 10.722 18.0333 11.0953 17.5262C11.4374 17.0616 12.0593 16.7439 12.5762 16.51C12.8342 16.3934 13.329 16.2424 13.2769 15.8848C13.2581 15.7559 13.0967 15.7537 13.0177 15.8163C12.875 15.9295 12.6567 15.9374 12.4877 15.9938C12.2519 16.0723 12.008 16.169 11.7979 16.3029C11.3556 16.5848 10.9447 16.8243 10.6319 17.2553C10.2843 17.7343 9.96718 18.2687 9.70187 18.7965C9.60636 18.9865 9.52738 19.1746 9.475 19.3788C9.32429 19.1419 9.20845 18.8927 9.0608 18.6438C8.96482 18.4821 8.84049 18.3408 8.74404 18.1801C8.72711 18.152 8.7124 18.123 8.69758 18.0941C8.72682 18.0261 8.7243 17.9428 8.66717 17.8789C8.38217 17.5603 8.48816 17.198 8.37789 16.8254C8.35791 16.7578 8.34836 16.748 8.34438 16.7587L8.34209 16.7175C8.3391 16.6676 8.35205 16.6101 8.35352 16.5606C8.3602 16.3474 8.33254 16.1337 8.32627 15.9209C8.3019 15.101 8.72459 14.3911 8.94361 13.6289C9.15385 12.8973 9.79755 12.2739 10.3681 11.7926C10.6659 11.5415 11.0205 11.3825 11.3567 11.1911C11.4338 11.1471 11.5092 11.1047 11.5843 11.0637C11.5988 11.4938 11.8861 11.9718 12.0652 12.3302C12.1943 12.5881 12.3553 12.8223 12.4974 13.0724C12.6531 13.3463 12.7456 13.6521 12.8765 13.9382C13.1466 14.528 13.5463 15.0444 13.8437 15.6192C13.9752 15.8734 14.0678 16.1325 14.2347 16.367C14.4281 16.6388 14.5985 16.8667 14.7008 17.191C15.1263 18.5398 15.5157 19.9083 15.8923 21.272C16.0807 21.9543 16.2875 22.6312 16.4872 23.3102C16.6706 23.9335 16.8132 24.5839 17.0367 25.1937C17.0774 25.3048 17.1284 25.4089 17.1835 25.5104C16.6654 25.6076 16.2815 25.7219 15.8914 26.1279C15.4995 26.5357 15.1641 26.9806 14.8678 27.4618C14.7087 27.7202 14.569 27.9925 14.405 28.2471C14.2769 28.4459 14.1281 28.6253 14.0309 28.8429C13.951 29.0211 13.8907 29.174 13.8472 29.3384ZM22.2093 34.9823C21.9422 34.8114 21.6169 34.9455 21.3423 35.0428C20.9982 35.1646 20.6577 35.2632 20.2972 35.3249C19.5868 35.4466 18.7335 35.6016 18.0283 35.4003C17.6944 35.305 17.4154 35.169 17.1359 34.9686C16.8626 34.7726 16.5236 34.7142 16.258 34.504C16.0026 34.3018 15.7236 34.0494 15.5199 33.7811C15.6866 33.6819 15.7855 33.4799 15.6452 33.2879C15.4665 33.0433 15.4027 32.7517 15.3007 32.471C15.1892 32.1643 15.0709 31.8628 14.9613 31.5551C14.8448 31.228 14.7842 30.8826 14.6517 30.5613C14.5218 30.2465 14.3407 29.9396 14.152 29.6564C14.1448 29.6454 14.1366 29.6355 14.1291 29.625C14.2207 29.4188 14.3012 29.2046 14.408 29.0019C14.5265 28.7775 14.6959 28.5864 14.8263 28.3695C14.9545 28.1562 15.0728 27.938 15.2048 27.7264C15.4971 27.258 15.8223 26.8393 16.1987 26.4354C16.51 26.1015 16.9155 25.9303 17.2583 25.6439C17.3395 25.7838 17.4247 25.9217 17.4987 26.0684C17.6592 26.3865 17.7553 26.7309 17.9054 27.0536C18.0516 27.3678 18.2135 27.685 18.3852 27.9858C18.5322 28.2434 18.7472 28.3957 18.9301 28.6145C19.0836 28.7983 19.3181 28.5919 19.2892 28.4054C19.2574 28.199 19.1123 28.0435 19.0041 27.8717C18.8357 27.6046 18.6947 27.3214 18.5469 27.0425C18.268 26.5158 18.1099 25.9427 17.788 25.4372C17.4428 24.895 17.341 24.2174 17.1417 23.6122C16.9336 22.98 16.7071 22.3538 16.4922 21.7239C16.0372 20.3906 15.5767 19.0498 15.1985 17.6924C15.1217 17.4167 15.0643 17.1351 14.9578 16.8685C14.8555 16.6126 14.694 16.4121 14.5358 16.1905C14.203 15.724 13.9926 15.1478 13.7015 14.6497C13.5052 14.3138 13.3149 13.977 13.1708 13.6149C13.0556 13.3253 12.9493 13.0403 12.783 12.7753C12.6033 12.4889 12.4365 12.2071 12.281 11.9062C12.2035 11.756 12.133 11.5984 12.0492 11.4517C11.957 11.2906 11.8023 11.1568 11.7518 10.9754C11.9864 10.8592 12.2252 10.7713 12.506 10.7484C13.349 10.6792 14.1494 10.3741 14.9727 10.2062C15.8266 10.0321 16.6953 9.9284 17.5532 9.77477C17.9535 9.70305 18.3506 9.63684 18.754 9.58621C19.194 9.53096 19.6121 9.35852 20.0447 9.26336C20.9338 9.06778 21.824 8.8852 22.7213 8.73157C23.2405 8.64268 23.7575 8.59452 24.2788 8.52725C24.5907 8.48706 24.9051 8.41141 25.2201 8.3629C25.2886 8.61391 25.32 8.87852 25.4754 9.09854C25.6871 9.39848 26.0283 9.54368 26.3335 9.7252C26.9951 10.1185 27.7341 10.4779 28.5331 10.3554C28.5541 10.3523 28.5742 10.3448 28.5921 10.3333C28.7076 10.5972 28.8151 10.8631 28.881 11.1439C28.9375 11.3849 29.0752 11.5753 29.1624 11.802C29.2654 12.0697 29.3153 12.3423 29.4478 12.6017C29.5795 12.8598 29.7587 13.0932 29.8841 13.354C30.0232 13.6429 30.0488 13.9591 30.2081 14.2458C30.3635 14.5251 30.4978 14.7849 30.6069 15.0864C30.7171 15.3913 30.8388 15.6995 31.0216 15.9689C31.2088 16.2452 31.39 16.4584 31.5016 16.7788C31.6017 17.0661 31.7304 17.3275 31.8926 17.5849C32.0558 17.8439 32.2293 18.0942 32.3453 18.3789C32.4732 18.6926 32.5977 19.0022 32.7556 19.3029C33.0648 19.892 33.4163 20.4573 33.7252 21.047C33.9705 21.5153 34.2569 21.9572 34.5196 22.4143C34.5041 22.4231 34.4889 22.4321 34.474 22.4427C34.3235 22.5501 34.2124 22.7228 34.0826 22.8539C33.9558 22.9819 33.8255 23.11 33.7203 23.257C33.5975 23.4286 33.5617 23.6024 33.479 23.791C33.4162 23.9342 33.2947 24.0397 33.2278 24.1823C33.1496 24.3492 33.1068 24.5435 33.0666 24.7218C33.0053 24.9935 32.9004 25.3717 32.9828 25.6595C32.8682 25.696 32.7536 25.7325 32.6374 25.7642C32.3507 25.8423 32.0735 25.8467 31.7808 25.8695C31.22 25.9131 30.6539 26.0891 30.1253 26.2716C29.5812 26.4594 29.0418 26.5384 28.4871 26.6748C28.2192 26.7406 27.9566 26.8258 27.6979 26.921C27.5596 26.972 27.4225 27.0383 27.2805 27.0782C27.116 27.1244 26.9443 27.124 26.7775 27.1598C26.539 27.2108 26.328 27.3451 26.0954 27.4182C25.8271 27.502 25.5542 27.5703 25.278 27.6228C24.7244 27.7287 24.1536 27.8092 23.5957 27.8949C23.296 27.9409 22.9974 27.9635 22.7016 28.0347C22.4003 28.1072 22.1085 28.2134 21.8076 28.2891C21.5734 28.348 21.3456 28.3975 21.1245 28.4821C21.0412 28.4761 20.9577 28.4742 20.8733 28.4856C20.3165 28.5608 19.7421 28.8374 19.2164 29.0313C18.2946 29.3713 17.308 29.853 16.7646 30.723C16.5109 31.1292 16.4801 31.5996 16.4683 32.0646C16.4554 32.5734 16.4593 33.0175 16.6933 33.4818C17.091 34.2707 18.1646 34.5197 18.9775 34.5087C19.0277 34.508 19.0677 34.4915 19.0983 34.4664C19.3267 34.4777 19.5562 34.4853 19.7769 34.4705C20.1919 34.4426 20.591 34.3219 20.991 34.2166C21.2134 34.1581 21.4373 34.103 21.6662 34.0765C21.8173 34.0591 21.9177 34.0525 22.0001 33.9503C22.0761 34.177 22.1518 34.4036 22.2148 34.6335C22.2563 34.7851 22.283 34.9479 22.2983 35.1142C22.2934 35.0872 22.283 35.0616 22.2676 35.0389C22.2523 35.0162 22.2325 34.9969 22.2093 34.9823ZM24.9622 36.225C24.9541 36.2192 24.9316 36.214 24.8991 36.192C24.7948 36.1213 24.7035 36.0148 24.6253 35.9167C24.4187 35.6578 24.2584 35.3985 24.094 35.1126C24.0181 34.9807 23.8486 35.0776 23.8666 35.2085C23.9659 35.93 23.3046 36.3742 22.7867 36.7393C22.7482 36.7665 22.6888 36.798 22.6315 36.8315C22.6425 36.77 22.6514 36.7067 22.6575 36.6825C22.7427 36.3436 22.7919 36.0253 22.7996 35.6761C22.8074 35.3227 22.802 34.9689 22.7103 34.6252C22.6101 34.2494 22.4412 33.894 22.3207 33.5244C22.2189 33.2117 22.111 32.8434 21.9151 32.5744C21.8951 32.5472 21.8735 32.521 21.8507 32.4962C21.9955 32.4624 22.1369 32.4158 22.2735 32.3568C22.5735 32.2277 22.8736 32.1501 23.1817 32.0734C23.186 32.0728 23.1902 32.0721 23.1946 32.0716C23.3927 32.0464 23.5903 32.0189 23.7876 31.99C23.8516 32.0685 23.8755 32.2422 23.9174 32.3325C24.1104 32.7482 24.3388 33.1386 24.5042 33.5688C24.5843 33.7771 24.6377 33.9877 24.6803 34.2008C24.6228 34.2346 24.5678 34.2727 24.5158 34.3145C24.2683 34.5126 24.5225 34.8355 24.7835 34.7963L24.7851 34.8062C24.8478 35.1823 24.9685 35.551 24.9763 35.9351C24.9774 35.9815 24.9866 36.1526 24.9622 36.225ZM34.263 30.1559C34.2738 29.9966 34.1942 29.8324 33.994 29.7702C34.0259 29.7801 33.9524 29.6848 33.9289 29.6206C33.8884 29.5098 33.8681 29.3908 33.8398 29.2766C33.8312 29.2415 33.8242 29.2075 33.817 29.1735C33.8293 29.1856 33.8412 29.198 33.8542 29.2093C33.9206 29.2671 34.0065 29.3226 34.0934 29.3389C34.196 29.4962 34.3401 29.6309 34.4885 29.7499C34.6271 29.861 34.7908 29.9562 34.8998 30.0999C35.0982 30.3612 35.118 30.5989 34.9471 30.8686C34.8032 31.0957 34.699 31.2184 34.4501 31.33C34.1668 31.457 33.8713 31.5628 33.5766 31.6595C32.9426 31.8673 32.2977 32.0432 31.6504 32.2039C31.0245 32.3593 30.3977 32.5159 29.7734 32.6779C29.1588 32.8374 28.5649 33.069 27.9538 33.2418C27.3238 33.42 26.6842 33.5699 26.0572 33.7577C25.7659 33.8449 25.4892 33.968 25.1899 34.0246C25.1646 34.0294 25.1404 34.0346 25.1162 34.0398C25.1073 34.0004 25.0997 33.9601 25.0904 33.921C25.0378 33.6991 24.9633 33.4811 24.8761 33.2668C24.9832 33.2503 25.0971 33.2371 25.1252 33.2303C25.295 33.1896 25.4694 33.2402 25.6305 33.1957C25.9849 33.098 26.3395 32.9991 26.7048 32.9184C27.6115 32.7182 28.5161 32.5007 29.3993 32.212C30.2672 31.9283 31.1133 31.5551 31.9898 31.3028C32.6805 31.104 33.3612 30.8879 34.0063 30.5877C34.093 30.5993 34.1831 30.5659 34.2357 30.4683L34.2639 30.4162C34.3149 30.3214 34.3069 30.2279 34.263 30.1559ZM33.1175 28.4177C33.0396 28.8461 33.1002 29.2603 33.1798 29.6836C33.2166 29.8794 33.2813 30.0814 33.3963 30.2394C33.2688 30.3017 33.1399 30.3638 32.9977 30.4075C32.5906 30.5325 32.185 30.6612 31.7771 30.7828C30.8827 31.0494 30.0178 31.4297 29.1303 31.7217C28.2682 32.0052 27.3862 32.2242 26.5022 32.4267C26.2841 32.4766 26.0642 32.5197 25.8465 32.5713C25.7716 32.5891 25.6827 32.5996 25.6129 32.6333C25.579 32.6496 25.51 32.7165 25.4805 32.7267C25.3569 32.7692 25.2333 32.7424 25.1034 32.8033C24.9842 32.859 24.8705 32.926 24.756 32.9906C24.642 32.7423 24.5165 32.4992 24.3923 32.2627C24.3411 32.1649 24.3 32.0399 24.2511 31.9183C24.3127 31.9084 24.3744 31.8995 24.4363 31.8894C26.1218 31.6133 27.7896 31.2719 29.4253 30.7767C29.5279 30.7456 29.5086 30.5918 29.4 30.5896C29.0265 30.5821 28.661 30.6956 28.3016 30.7853C27.909 30.8831 27.5122 30.9571 27.121 31.0616C26.2789 31.2865 25.4186 31.42 24.5598 31.5649C24.407 31.5907 24.2542 31.6152 24.1015 31.6394C24.0318 31.5511 23.9426 31.4872 23.818 31.474C23.6315 31.4542 23.4398 31.5457 23.2622 31.5883C22.9821 31.6553 22.7035 31.7057 22.4318 31.8053C22.2414 31.8751 22.0584 31.9688 21.8657 32.0327C21.7311 32.0593 21.5964 32.0855 21.4616 32.1112C21.4158 32.1157 21.3721 32.1202 21.33 32.1277C21.2883 32.1052 21.2469 32.083 21.2061 32.0608C21.1395 32.0246 21.0668 32.1124 21.1236 32.1676C21.1268 32.1708 21.1302 32.1738 21.1335 32.1769C21.0542 32.1932 20.9751 32.2104 20.8962 32.2286C20.6793 32.2794 20.4601 32.3262 20.2444 32.3811C20.0437 32.4323 19.8551 32.5421 19.6486 32.5672C19.5644 32.5775 19.5586 32.7038 19.6486 32.7033C19.9985 32.7014 20.3624 32.6133 20.706 32.5494C20.7986 32.5321 20.8911 32.5146 20.9836 32.4971C21.0245 32.6146 21.1545 32.7021 21.2761 32.6115C21.3383 32.5653 21.4154 32.5471 21.4963 32.5376C21.5169 32.5648 21.5365 32.5926 21.5532 32.6218C21.6762 32.8362 21.7381 33.1074 21.806 33.3426C21.8245 33.4068 21.844 33.4707 21.864 33.5345C21.8384 33.5256 21.8112 33.5222 21.7842 33.5245C21.1043 33.591 20.4776 33.8945 19.8019 33.9632C19.4878 33.9952 19.1711 33.9625 18.8568 33.9908C18.8176 33.9943 18.7675 34.0035 18.7119 34.0143C18.411 33.9062 18.1109 33.7882 17.8175 33.6686C17.5234 33.5486 17.3425 33.3669 17.2121 33.0777C17.0399 32.6958 17.0889 32.2593 17.0981 31.8505C17.1077 31.421 17.2177 31.0795 17.5177 30.7684C17.7969 30.4788 18.0841 30.1904 18.4307 29.9814C18.8303 29.7405 19.2877 29.5871 19.7212 29.4188C20.1257 29.2617 20.5253 29.0784 20.9351 28.937C21.128 28.8704 21.3324 28.8529 21.5242 28.7878C21.5713 28.7718 21.6167 28.7483 21.6615 28.7218C21.8102 28.6984 21.9589 28.6759 22.1061 28.645C22.3659 28.5904 22.6164 28.501 22.8776 28.4511C23.1775 28.3939 23.4822 28.3874 23.7837 28.3426C24.3642 28.2565 24.9555 28.1982 25.5317 28.0881C26.0867 27.9821 26.6123 27.736 27.1681 27.6837C27.7657 27.6276 28.3276 27.3398 28.9298 27.2653C29.5409 27.1898 30.0924 27.0399 30.6857 26.8791C30.9639 26.8037 31.2498 26.7514 31.534 26.7037C31.8177 26.656 32.1043 26.6822 32.3898 26.6444C32.978 26.5664 33.5411 26.3397 34.1226 26.2182C34.1805 26.206 34.2388 26.1945 34.2973 26.1832C33.6703 26.7773 33.2774 27.5389 33.1175 28.4177ZM35.5189 24.6866C35.3807 24.8729 35.2422 25.058 35.0231 25.1543C34.5375 25.3681 33.9427 25.4017 33.4277 25.529C33.466 25.3046 33.441 25.0497 33.4823 24.8367C33.5133 24.677 33.5413 24.4937 33.6097 24.3443C33.6677 24.2177 33.7672 24.1182 33.8229 23.9897C33.8889 23.8373 33.9025 23.6715 33.9831 23.5237C34.0717 23.3616 34.2043 23.2333 34.3219 23.0934C34.4306 22.964 34.5098 22.8156 34.6141 22.6849C34.6251 22.6711 34.6369 22.658 34.6489 22.6451C34.6963 22.7319 34.7427 22.8193 34.7872 22.9078C35.0593 23.4494 35.23 24.096 35.6895 24.5023C35.629 24.5609 35.5685 24.6197 35.5189 24.6866Z" fill="white"/>
<path d="M28.3155 15.2943C28.0183 14.8645 27.898 14.3537 27.6629 13.8908C27.4139 13.4004 26.9941 13.0033 26.7218 12.5209C26.5121 12.1493 26.386 11.5977 26.0481 11.321C25.9731 11.2596 25.8798 11.2386 25.7917 11.2879C25.6558 11.3639 25.4843 11.2924 25.3421 11.2892C25.2116 11.2863 25.0805 11.3098 24.9517 11.3283C24.627 11.3747 24.3173 11.4636 23.9994 11.5404C23.3358 11.7006 22.6538 11.7522 21.9838 11.877C20.5925 12.1364 19.2428 12.7075 17.8283 12.7932C17.79 12.7955 17.763 12.8127 17.7468 12.836C17.7249 12.7895 17.6825 12.7516 17.6194 12.7442C17.5062 12.731 17.4917 12.735 17.3806 12.7593C17.319 12.7727 17.2637 12.8431 17.2681 12.9069C17.2824 13.1107 17.3514 13.2639 17.4387 13.4471C17.556 13.6935 17.5703 13.9441 17.6636 14.1949C17.731 14.3761 17.8446 14.5056 17.8824 14.7002C17.9194 14.8906 17.9431 15.0914 18.0106 15.2743C18.0736 15.4448 18.1878 15.5756 18.2823 15.7278C18.4252 15.958 18.4719 16.2267 18.5735 16.4752C18.6546 16.6737 18.774 16.8557 18.8494 17.0562C18.944 17.3074 18.9546 17.5857 19.0155 17.8456C19.0299 17.9073 19.0854 17.9617 19.1466 17.9767C19.2779 18.0089 19.3789 18.0078 19.5103 17.9722C19.6921 17.9229 19.835 17.9242 20.0199 17.914C20.1769 17.9053 20.3279 17.8423 20.4831 17.8201C20.6846 17.7914 20.8897 17.8106 21.0925 17.7846C21.9335 17.676 22.7724 17.5247 23.6082 17.3821C24.4283 17.2422 25.2405 17.0669 26.0431 16.848C26.4537 16.736 26.8647 16.6402 27.2833 16.5637C27.4957 16.5249 27.708 16.4694 27.9242 16.463C28.1264 16.4571 28.3098 16.4785 28.5116 16.4487C28.5893 16.4372 28.6522 16.3577 28.6728 16.2876C28.7802 15.9215 28.5113 15.5775 28.3155 15.2943ZM27.8018 16.0118C27.6285 16.0274 27.4593 16.0678 27.2889 16.1008C26.892 16.1777 26.4988 16.2569 26.1085 16.3633C25.3279 16.576 24.5462 16.7677 23.75 16.9136C22.9686 17.0568 22.1833 17.1822 21.3986 17.3068C21.0134 17.368 20.6104 17.3408 20.2337 17.4372C20.0525 17.4835 19.893 17.4755 19.7114 17.497C19.5953 17.5108 19.473 17.5901 19.3522 17.6124C19.3212 17.4271 19.3045 17.2382 19.2541 17.058C19.202 16.8715 19.1096 16.7034 19.0272 16.5296C18.9223 16.3086 18.8622 16.0734 18.7676 15.8487C18.6795 15.6392 18.5425 15.4889 18.4215 15.3018C18.2177 14.987 18.2539 14.5814 18.0707 14.2572C17.9499 14.0433 17.918 13.8749 17.8528 13.6446C17.7945 13.4387 17.6613 13.2535 17.6024 13.0493L17.6194 13.0487C17.6934 13.0568 17.7389 13.0181 17.7564 12.9658C17.773 12.9838 17.7969 12.9968 17.8283 12.9997C18.1472 13.0289 18.4518 13.0624 18.77 13.0122C19.1466 12.9528 19.5209 12.8719 19.8964 12.8058C20.6612 12.6712 21.4122 12.4691 22.1785 12.3438C22.8933 12.227 23.6165 12.161 24.3189 11.9781C24.6464 11.8927 25.0024 11.7796 25.3422 11.7691C25.5453 11.7628 25.7058 11.7851 25.8671 11.7252C25.963 11.8496 26.0267 12.0616 26.0867 12.1746C26.1927 12.3745 26.2712 12.5888 26.386 12.784C26.6278 13.1954 26.9525 13.5512 27.1991 13.9546C27.4513 14.3672 27.5393 14.8577 27.766 15.2819C27.8655 15.4681 28.1683 15.7651 28.2269 16.0149C28.0855 16.0158 27.943 15.999 27.8018 16.0118ZM28.3165 29.7833C28.1517 29.8593 27.971 29.8616 27.7958 29.8973C27.6197 29.9332 27.4469 29.9854 27.2707 30.0217C26.8949 30.0992 26.5226 30.1396 26.154 30.2513C25.7973 30.3594 25.4286 30.3956 25.0642 30.4682C24.6571 30.5493 24.256 30.642 23.8442 30.6999C23.4904 30.7496 23.1766 30.8633 22.832 30.9477C22.4824 31.0332 22.1217 31.0645 21.7681 31.1288C20.9947 31.2693 20.1902 31.3569 19.4322 31.5642C19.3981 31.5735 19.4125 31.6234 19.4466 31.6167C20.2227 31.4632 21.0313 31.4163 21.8161 31.3029C22.2079 31.2463 22.608 31.219 22.9914 31.1152C23.3635 31.0146 23.7129 30.9325 24.0967 30.8779C24.885 30.7657 25.6759 30.5963 26.4441 30.3934C26.8112 30.2964 27.1936 30.2674 27.5634 30.1793C27.834 30.1149 28.1975 30.0966 28.4088 29.903C28.4766 29.8408 28.3905 29.7493 28.3165 29.7833ZM31.1771 27.911C31.0244 28.0157 30.7175 28.0543 30.5423 28.1147C30.3493 28.1812 30.1535 28.2389 29.9565 28.2922C29.5223 28.4099 29.0845 28.5144 28.6438 28.6054C28.1881 28.6995 27.7456 28.8195 27.2865 28.9033C26.7828 28.9953 26.2828 29.107 25.7803 29.2049C24.7898 29.3979 23.7948 29.569 22.8099 29.7901C22.3302 29.8978 21.8542 30.026 21.3705 30.115C20.9834 30.1863 20.5214 30.1649 20.1667 30.3394C20.0765 30.3837 20.1554 30.5146 20.245 30.4733C20.4677 30.3707 20.827 30.3717 21.0676 30.3423C21.2742 30.317 21.4794 30.287 21.6841 30.2486C22.1702 30.1573 22.6498 30.0317 23.134 29.9308C24.1439 29.7201 25.1627 29.5556 26.1752 29.3585C26.6535 29.2655 27.1301 29.1631 27.6114 29.0868C28.0648 29.0148 28.5005 28.8849 28.9506 28.7957C29.3892 28.7089 29.8285 28.586 30.2568 28.4576C30.5676 28.3644 31.0175 28.2487 31.258 28.0158C31.311 27.9642 31.2407 27.8674 31.1771 27.911ZM31.5024 27.4338C30.5847 27.2785 29.5531 27.5935 28.6692 27.8136C27.6703 28.0624 26.674 28.2923 25.6887 28.5942C25.5986 28.6218 25.6364 28.7623 25.7277 28.7359C26.6765 28.4609 27.6354 28.2491 28.5958 28.0218C29.0556 27.913 29.5125 27.7983 29.9784 27.7183C30.4835 27.6315 30.9998 27.6226 31.5025 27.5282C31.5487 27.5195 31.5496 27.4418 31.5024 27.4338ZM32.8535 28.8943C32.6499 29.0092 32.2948 28.9979 32.0627 29.0467C31.7579 29.1109 31.4551 29.1878 31.1509 29.2551C30.5502 29.3878 29.9434 29.5404 29.3299 29.605C29.1975 29.619 29.1954 29.8279 29.3299 29.8146C29.9884 29.7492 30.6295 29.588 31.2758 29.455C31.6202 29.3842 31.9597 29.2971 32.301 29.2135C32.5017 29.1644 32.7798 29.1471 32.9227 28.9841C32.9645 28.9364 32.9121 28.8613 32.8535 28.8943ZM23.772 28.8229C23.4569 28.7735 23.1749 28.8965 22.8714 28.9646C22.4698 29.0546 22.0737 29.1228 21.6792 29.2468C20.8872 29.4958 20.0049 29.6229 19.2582 29.9866C19.1619 30.0335 19.2461 30.1749 19.342 30.1299C20.0647 29.7901 20.9142 29.6956 21.6739 29.4491C22.0167 29.3379 22.3614 29.2451 22.7164 29.1819C23.0706 29.1187 23.3963 28.9534 23.7579 28.9272C23.8132 28.9231 23.8349 28.8328 23.772 28.8229ZM19.6654 31.0413C19.4056 30.9924 19.154 31.1601 18.9137 31.2375C18.5332 31.36 18.1692 31.546 17.7677 31.5647C17.7341 31.5662 17.7349 31.6133 17.7677 31.6164C17.9084 31.6293 18.0457 31.6579 18.1862 31.6345C18.3533 31.6065 18.5153 31.5212 18.6793 31.4774C18.8392 31.4347 19.0032 31.4035 19.1596 31.3478C19.3235 31.2895 19.4726 31.189 19.6483 31.1669C19.7128 31.1589 19.7432 31.0561 19.6654 31.0413ZM20.4145 32.148C20.0054 32.1523 19.6064 32.2782 19.2141 32.3828C18.7741 32.5001 18.3231 32.5702 17.8867 32.7012C17.7931 32.7293 17.8324 32.8746 17.9273 32.8481C18.7473 32.6194 19.6017 32.4706 20.433 32.2843C20.5099 32.267 20.4922 32.1472 20.4145 32.148ZM20.8016 32.9307C20.6396 33.0394 20.4057 32.9878 20.2211 33.0199C19.9266 33.0708 19.628 33.1445 19.3416 33.2295C19.211 33.2683 19.2671 33.4744 19.3981 33.4341C19.7112 33.3379 20.0408 33.2507 20.3649 33.2024C20.5486 33.1751 20.745 33.1767 20.8758 33.0268C20.9188 32.9775 20.8627 32.8896 20.8016 32.9307ZM9.31768 15.4922C9.2926 15.3491 9.09022 15.3954 9.08149 15.525L9.0785 15.5246C9.06286 15.6549 8.98575 15.7929 8.94784 15.9192C8.89956 16.0803 8.85919 16.2431 8.80663 16.4028C8.72923 16.6384 8.61585 16.8884 8.78682 17.0985C8.81823 17.1372 8.88532 17.1313 8.9176 17.0985C9.10874 16.9045 9.16405 16.5079 9.21831 16.2468C9.26799 16.0081 9.36022 15.735 9.31768 15.4922ZM9.56237 15.9845C9.43223 16.2399 9.30321 16.4926 9.17694 16.7496C9.09092 16.9247 8.9121 17.173 9.05219 17.3577C9.08342 17.3987 9.12854 17.415 9.17694 17.3903C9.35366 17.3004 9.45204 16.9931 9.52457 16.8164C9.62354 16.5752 9.72731 16.3373 9.82856 16.0967C9.89225 15.945 9.63672 15.8387 9.56237 15.9845ZM10.0677 16.7664C9.98893 16.6412 9.84022 16.6449 9.74758 16.7443C9.68254 16.8141 9.7358 16.9293 9.81438 16.9402C9.80729 16.9627 9.7992 16.9849 9.791 17.007C9.77185 17.0578 9.75125 17.108 9.72924 17.1576C9.67639 17.2776 9.57584 17.4692 9.69725 17.5812C9.73645 17.6175 9.80459 17.6142 9.8319 17.5639C9.92641 17.3897 10.0156 17.214 10.0692 17.0218C10.0917 16.9413 10.1155 16.8424 10.0677 16.7664ZM12.5297 21.6998C12.5257 21.5345 12.2983 21.5438 12.2794 21.6998C12.2195 22.1942 11.8391 22.6956 11.9922 23.1995C12.0341 23.3374 12.2128 23.3245 12.2598 23.1995C12.3525 22.9527 12.3853 22.684 12.4456 22.4275C12.5028 22.1843 12.5359 21.9503 12.5297 21.6998ZM13.0663 22.2492L13.0201 22.2269C12.9157 22.1767 12.7967 22.2947 12.8624 22.3881C12.8152 22.5061 12.7395 22.6084 12.6916 22.7275C12.629 22.8828 12.5756 23.0285 12.4952 23.1759C12.3873 23.3736 12.3159 23.5685 12.4408 23.7752C12.4513 23.7925 12.4656 23.8072 12.4825 23.8182C12.4995 23.8293 12.5187 23.8364 12.5388 23.839C12.5589 23.8416 12.5793 23.8396 12.5985 23.8332C12.6177 23.8268 12.6352 23.8162 12.6498 23.8021L12.6731 23.7796C12.7026 23.7509 12.7012 23.7119 12.6863 23.6773C12.6269 23.5389 12.8677 23.232 12.9151 23.0969C12.959 22.9721 12.9679 22.838 13.0115 22.7132C13.0518 22.5978 13.1018 22.51 13.123 22.3886C13.1319 22.3378 13.1181 22.2741 13.0663 22.2492ZM12.9378 23.5108C12.9334 23.678 12.871 23.8367 12.875 24.0028C12.8787 24.1556 12.8973 24.3174 12.9621 24.4568C12.995 24.5274 13.0854 24.4935 13.1087 24.4376C13.1701 24.2915 13.1741 24.1122 13.2161 23.9583C13.2548 23.8166 13.2675 23.6568 13.2642 23.5108C13.2597 23.3007 12.9434 23.3005 12.9378 23.5108ZM15.3271 28.6517C15.2766 28.7549 15.2018 28.8353 15.1699 28.9483C15.1329 29.0793 15.1303 29.2122 15.0816 29.3413C15.0038 29.5479 14.8609 29.7761 15.0129 29.982C15.0675 30.056 15.1769 30.069 15.2291 29.982C15.3232 29.8249 15.3733 29.6125 15.4306 29.4375C15.4579 29.3537 15.4713 29.2708 15.4838 29.184C15.5053 29.034 15.5546 28.9492 15.6114 28.8179C15.6937 28.6278 15.4218 28.4582 15.3271 28.6517ZM15.9794 29.8492C15.9779 29.6399 15.6654 29.6417 15.6556 29.8492C15.6409 30.164 15.5088 30.5097 15.6668 30.802C15.7004 30.8644 15.7945 30.8616 15.8289 30.802C15.9865 30.5291 15.9817 30.1582 15.9794 29.8492ZM24.1516 26.6269C23.8005 26.7701 23.4305 26.7584 23.06 26.8056C22.6561 26.8571 22.2408 26.9361 21.8457 27.0338C21.4445 27.1331 21.0434 27.2329 20.6418 27.3302C20.4214 27.3836 20.1745 27.3916 20.0057 27.5595C19.9268 27.6381 20.0449 27.7534 20.1268 27.6807C20.3265 27.5037 20.8508 27.511 21.107 27.4715C21.509 27.4095 21.9023 27.3106 22.3035 27.2437C22.6955 27.1784 23.085 27.1032 23.479 27.0519C23.7584 27.0157 24.0159 26.9548 24.2402 26.7791C24.3104 26.7243 24.2341 26.5933 24.1516 26.6269ZM31.0017 25.3972C30.2552 25.4684 29.5433 25.6691 28.8099 25.8146C28.4235 25.8912 28.0273 25.8996 27.6425 25.9666C27.2642 26.0323 26.8924 26.1879 26.5241 26.2944C26.4317 26.3211 26.4703 26.4627 26.5639 26.4387C28.0319 26.0609 29.6204 26.15 31.034 25.5163C31.091 25.4907 31.0634 25.3913 31.0017 25.3972ZM32.4551 20.7142C32.3419 20.415 32.227 20.0282 32.0009 19.7951C31.9747 19.7682 31.9243 19.8044 31.9474 19.8364C32.1777 20.1534 32.218 20.6201 32.3593 20.9817C32.4229 21.1444 32.5892 21.4263 32.4763 21.5853C32.4036 21.6878 32.3671 21.6506 32.2597 21.5979C32.201 21.5691 32.1475 21.5282 32.0953 21.4894C31.4776 21.0287 31.1432 20.3105 30.8619 19.6149C30.7308 19.2906 30.5586 18.9781 30.4452 18.6484C30.3804 18.4601 30.3178 18.2689 30.2662 18.0766C30.2473 18.0065 30.1054 17.6281 30.134 17.5831C30.2055 17.4702 30.364 17.7141 30.4052 17.7547C30.5527 17.9008 30.7035 18.0035 30.8245 18.1779C31.0259 18.4681 31.1449 18.814 31.3517 19.093C31.4111 19.1733 31.5475 19.0966 31.4879 19.0133C31.3307 18.7938 31.2351 18.5124 31.0897 18.2793C30.9578 18.068 30.8392 17.8955 30.6529 17.728C30.4599 17.5545 30.249 17.1651 29.9474 17.32C29.9192 17.3345 29.8961 17.3724 29.8989 17.4046C29.9307 17.7723 30.1041 18.1743 30.2403 18.5168C30.3804 18.8692 30.5772 19.1888 30.727 19.5361C31.0344 20.2491 31.3134 20.9408 31.8715 21.4969C32.0421 21.667 32.5044 22.0453 32.6697 21.6751C32.8048 21.3725 32.5581 20.9869 32.4551 20.7142ZM29.2244 13.4233C29.1788 13.3989 29.1024 13.441 29.1264 13.4986C29.2039 13.684 29.2324 13.848 29.2296 14.0495C29.2292 14.0753 29.2351 14.2327 29.2045 14.2457C29.1708 14.26 28.9987 14.0347 28.9798 14.0114C28.6898 13.6511 28.486 13.225 28.3013 12.804C28.2499 12.6869 28.08 12.7882 28.1298 12.9042C28.2813 13.2568 28.4459 13.6066 28.6605 13.926C28.7713 14.0909 28.9827 14.4589 29.2138 14.4747C29.6162 14.5021 29.4744 13.5571 29.2244 13.4233Z" fill="white"/>
</g>
<defs>
<clipPath id="clip0_35_3705">
<rect width="30" height="30" fill="white" transform="translate(7 7.5)"/>
</clipPath>
</defs>
</svg>
