<svg width="37" height="37" viewBox="0 0 37 37" fill="none" xmlns="http://www.w3.org/2000/svg">
<path d="M1.30015 35.9002C0.855754 35.4558 0.855754 34.7352 1.30015 34.2908L34.2909 1.30009C34.7353 0.855698 35.4558 0.855697 35.9002 1.30009C36.3446 1.74449 36.3446 2.465 35.9002 2.9094L2.90946 35.9002C2.46506 36.3446 1.74455 36.3446 1.30015 35.9002Z" fill="white" fill-opacity="0.5"/>
<path d="M35.9001 35.9002C35.4557 36.3446 34.7352 36.3446 34.2908 35.9002L1.30006 2.9094C0.855668 2.46501 0.855667 1.7445 1.30006 1.3001C1.74446 0.855701 2.46497 0.855702 2.90937 1.3001L35.9001 34.2908C36.3445 34.7352 36.3445 35.4558 35.9001 35.9002Z" fill="white" fill-opacity="0.5"/>
</svg>
