<svg width="13" height="18" viewBox="0 0 13 18" fill="none" xmlns="http://www.w3.org/2000/svg">
<path d="M5.82295 13.5328C6.01508 13.6832 6.25387 13.7651 6.5 13.7651C6.74613 13.7651 6.98492 13.6832 7.17705 13.5328L12.5935 9.29753C12.7046 9.21063 12.7971 9.10318 12.8657 8.98134C12.9343 8.85949 12.9777 8.72563 12.9934 8.58739C13.0091 8.44915 12.9968 8.30924 12.9571 8.17565C12.9175 8.04207 12.8514 7.91742 12.7624 7.80882C12.6735 7.70023 12.5636 7.60981 12.4389 7.54274C12.3143 7.47567 12.1773 7.43325 12.0359 7.41791C11.8945 7.40258 11.7513 7.41462 11.6147 7.45335C11.478 7.49208 11.3505 7.55674 11.2394 7.64365L7.58328 10.5025V1.05882C7.58328 0.778006 7.46915 0.50869 7.266 0.310122C7.06284 0.111555 6.78731 0 6.5 0C6.2127 0 5.93716 0.111555 5.73401 0.310122C5.53085 0.50869 5.41672 0.778006 5.41672 1.05882V10.5025L1.76065 7.64365C1.53627 7.46814 1.24974 7.38694 0.964106 7.41791C0.678471 7.44889 0.417124 7.58951 0.237559 7.80882C0.0579944 8.02814 -0.0250795 8.3082 0.00661263 8.58739C0.0383047 8.86657 0.182167 9.12202 0.406551 9.29753L5.82295 13.5328ZM11.9164 15.8824H1.0836C0.796297 15.8824 0.520761 15.9939 0.317607 16.1925C0.114452 16.391 0.000321076 16.6604 0.000321076 16.9412C0.000321076 17.222 0.114452 17.4913 0.317607 17.6899C0.520761 17.8884 0.796297 18 1.0836 18H11.9164C12.2037 18 12.4792 17.8884 12.6824 17.6899C12.8856 17.4913 12.9997 17.222 12.9997 16.9412C12.9997 16.6604 12.8856 16.391 12.6824 16.1925C12.4792 15.9939 12.2037 15.8824 11.9164 15.8824Z" fill="black"/>
</svg>
