<svg width="90" height="62" viewBox="0 0 90 62" fill="none" xmlns="http://www.w3.org/2000/svg">
<g clip-path="url(#clip0_1_2114)">
<path d="M34.8035 44.2385C34.7778 44.0105 34.7637 43.7802 34.724 43.5569C34.6585 43.193 34.544 43.1516 34.2658 43.3865C33.4966 44.0359 32.6573 44.5494 31.6614 44.7912C31.4838 44.8349 31.3224 44.9385 31.1494 45.0168C31.6053 45.4659 32.0542 45.8919 32.482 46.334C32.835 46.6979 33.2465 46.8452 33.7585 46.8844C34.1699 46.9166 34.5674 47.117 34.9742 47.239C35.2383 47.3196 35.5048 47.3979 35.7059 47.4578C35.7667 47.3035 35.7784 47.1561 35.8462 47.1239C36.0215 47.0387 36.2226 47.0041 36.4143 46.9489C36.4143 47.0824 36.4353 47.2206 36.4143 47.3519C36.3885 47.52 36.3558 47.695 36.274 47.84C36.2296 47.9183 36.0706 47.992 35.9794 47.9759C35.762 47.9368 35.5539 47.8446 35.2547 47.7433C35.4978 48.1026 35.2477 48.197 35.0466 48.3328C34.696 48.57 34.3499 48.8164 34.011 49.0697C33.3891 49.5349 33.0945 50.106 33.1202 50.9258C33.1693 52.4203 33.0992 53.9194 33.0665 55.4162C33.0384 56.7011 32.9917 57.9861 32.9496 59.271C32.9449 59.3816 32.9192 59.4898 32.8116 59.6003C32.7976 59.5082 32.7742 59.4161 32.7742 59.324C32.7719 57.7466 32.7906 56.1692 32.7579 54.5941C32.7485 54.1911 32.5802 53.7904 32.489 53.3874C32.4586 53.247 32.4189 53.1065 32.4189 52.9637C32.4119 52.2683 32.4189 51.5705 32.4142 50.8751C32.4142 50.7047 32.4072 50.532 32.3721 50.3662C32.2576 49.8342 32.1103 49.7721 31.5632 49.8642C30.752 50.0023 29.9361 50.1152 29.1179 50.1981C28.87 50.2234 28.6082 50.1106 28.2996 50.0507C28.323 50.5205 28.351 51.0455 28.3744 51.5705C28.4282 52.8209 28.3978 54.046 27.9045 55.2435C27.7035 55.734 27.7268 56.3235 27.6941 56.8715C27.6473 57.6499 27.6427 58.4305 27.6193 59.2112H27.486C27.4346 58.4374 27.3832 57.666 27.3294 56.8923C27.2756 56.883 27.2219 56.8738 27.1681 56.8646C26.5766 57.6729 26.1161 58.5825 25.3072 59.2365C27.2616 56.381 28.0261 53.3137 27.1681 49.9217C26.8338 48.6023 26.1698 47.4762 25.3516 46.4238C25.3095 46.433 25.2674 46.44 25.2253 46.4492C25.1622 46.8061 25.0968 47.1607 25.0336 47.5177C24.9869 47.5177 24.9378 47.5223 24.891 47.5246C24.8653 47.3196 24.8022 47.1124 24.8186 46.912C24.9027 45.885 24.3861 45.1965 23.5678 44.6599C23.3644 44.5263 23.2358 44.5356 23.133 44.7658C23.0254 45.0122 22.9015 45.2517 22.6981 45.5096C22.6981 45.2886 22.6864 45.0675 22.6981 44.8487C22.7426 44.1533 22.3428 43.7204 21.763 43.4763C20.7016 43.0295 19.5794 42.7624 18.4316 42.7118C17.8845 42.6887 17.3281 42.8845 16.6712 42.9973C17.445 43.55 18.1089 43.999 18.7402 44.4872C19.3761 44.9777 20.0423 45.4521 20.5847 46.0324C22.1721 47.7272 24.0494 48.8832 26.3662 49.3092C26.4831 49.3299 26.6351 49.3484 26.6982 49.4244C26.7964 49.5464 26.8501 49.7168 26.8782 49.8734C26.8852 49.9079 26.6912 49.9586 26.6187 50.03C26.5018 50.1428 26.3639 50.2626 26.3124 50.4076C26.2423 50.6057 26.2446 50.8267 26.2166 51.0386L26.0506 51.0639C25.9898 50.9004 25.8963 50.7415 25.8753 50.5757C25.7864 49.8757 25.7724 49.8481 25.0827 49.6615C24.7484 49.5717 24.4164 49.475 24.0845 49.376C23.7548 49.2793 23.5678 49.4128 23.5 49.726C23.4673 49.878 23.4556 50.0369 23.4533 50.1935C23.4439 50.9027 23.4486 51.612 23.4275 52.3212C23.4229 52.5101 23.334 52.6943 23.2919 52.8831C23.2452 53.0858 23.1774 53.2884 23.1751 53.4934C23.1634 54.2026 23.1774 54.9119 23.1751 55.6234C23.1751 55.856 23.147 56.0863 23.1306 56.3189C23.0932 56.3235 23.0558 56.3281 23.0184 56.3327C22.9833 56.1139 22.9226 55.8952 22.9179 55.6764C22.8781 53.7467 22.8314 51.8169 22.8267 49.8872C22.8267 49.2701 22.5508 48.8464 22.109 48.4687C21.777 48.1855 21.4684 47.8792 21.1388 47.5959C21.0079 47.4831 20.8466 47.4048 20.6993 47.3104C20.6315 47.444 20.566 47.5798 20.4982 47.7134C20.4702 47.7687 20.4421 47.8262 20.3696 47.9713C20.2808 47.8032 20.1779 47.6996 20.1849 47.6052C20.2527 46.6426 19.5841 46.106 18.9646 45.5488C18.6396 45.2563 18.2983 44.9846 17.95 44.7198C17.8378 44.6346 17.6157 44.5194 17.5619 44.5632C17.4356 44.6645 17.3164 44.8464 17.3047 45.0053C17.2626 45.6063 17.2697 46.212 17.2439 46.8153C17.2135 47.5453 17.1691 48.273 17.1294 49.0006C17.0967 49.0006 17.0616 49.0006 17.0289 49.0006C17.0102 48.5769 16.9915 48.1532 16.9728 47.7272C16.9283 46.6794 16.926 45.6294 16.8208 44.5885C16.7857 44.2454 16.5426 43.8793 16.2971 43.6121C16.0025 43.2944 15.542 43.3934 15.2077 43.7089C14.1299 44.729 13.4753 45.9541 13.2743 47.4163C13.2252 47.764 13.1083 48.1026 13.0335 48.3996C13.5501 48.798 14.0832 49.1181 14.497 49.551C15.3526 50.4445 16.1732 51.3863 16.6174 52.5538C16.8091 53.0581 16.8068 53.6338 16.9003 54.175C16.9704 54.5872 16.9915 55.0201 17.1434 55.4024C17.5502 56.4248 17.4006 57.438 17.0967 58.4167C16.767 59.4783 16.2971 60.4984 15.8857 61.5347C15.8786 61.5554 15.8459 61.5669 15.722 61.6544C15.7688 61.4126 15.7805 61.2491 15.8295 61.0971C16.1428 60.1645 16.4912 59.2411 16.7764 58.2993C17.0663 57.3413 17.0967 56.3833 16.8091 55.3932C16.5777 54.5918 16.5286 53.7421 16.3532 52.9223C16.2784 52.5699 16.1031 52.2337 15.9464 51.9021C15.8973 51.8008 15.7571 51.7409 15.6589 51.6627C15.5958 51.7663 15.5093 51.863 15.4719 51.9758C15.3924 52.2222 15.3386 52.4778 15.2755 52.7311C15.2404 52.7311 15.203 52.7265 15.1679 52.7265C15.1679 52.3512 15.1492 51.9735 15.1726 51.6005C15.2147 50.8751 14.8687 50.3386 14.3474 49.8895C14.0575 49.6385 13.7535 49.399 13.4403 49.1803C13.2626 49.0559 13.0522 48.9822 12.9259 48.92C12.6501 49.749 12.8465 50.9902 12.0095 51.7317C12.7623 52.5699 13.5361 53.4312 14.3076 54.2947C14.3006 54.3062 14.2959 54.3178 14.2889 54.3316C13.4075 53.6062 12.5238 52.8831 11.6705 52.1808C11.2614 52.4709 10.8312 52.7127 10.4899 53.0443C10.2725 53.2539 10.1088 53.5832 10.0644 53.8779C9.99662 54.327 10.0551 54.7944 10.0551 55.255C10.0551 55.3932 10.0364 55.529 10.027 55.6672L9.86337 55.6925C9.74881 55.1398 9.63426 54.5872 9.51269 54C9.18072 54.1589 9.155 54.4099 9.155 54.6747C9.155 55.7777 9.155 56.883 9.14565 57.9861C9.14565 58.1611 9.11759 58.3338 9.09188 58.6101C8.45832 57.4196 8.65236 56.2291 8.59859 55.0708C8.56352 55.0546 8.52846 55.0385 8.49339 55.0224C8.40455 55.1099 8.29467 55.1836 8.22921 55.2849C7.99777 55.6372 7.78268 56.0011 7.56293 56.3603C6.88028 57.4818 5.77214 58.1381 4.7318 58.868C4.51438 59.02 4.28293 59.1536 4.05616 59.2941C4.02811 59.2549 4.00005 59.2181 3.972 59.1789C4.26189 58.944 4.55178 58.7115 4.83934 58.4743C5.6646 57.7926 6.58571 57.2008 7.13276 56.2475C7.42733 55.734 7.69852 55.2066 7.93932 54.6655C8.4817 53.445 9.52905 52.7173 10.5741 51.985C10.7541 51.8584 10.9715 51.787 11.21 51.6696C11.1375 51.5245 11.03 51.2758 10.8944 51.0409C9.99428 49.4635 9.75349 47.84 10.5811 46.1636C10.8429 45.634 11.1398 45.1159 11.4741 44.63C12.2667 43.4763 13.4216 42.9558 14.8102 42.9144C15.189 42.9029 15.4882 42.8177 15.8295 42.6173C16.3228 42.3272 16.9143 42.2028 17.466 42.0117C17.6086 41.9634 17.7583 41.9357 17.9032 41.8989L17.9149 41.7584C17.6203 41.6755 17.3304 41.5673 17.0312 41.5143C16.393 41.4015 15.7524 41.3048 15.1072 41.2242C14.7915 41.185 14.525 41.2748 14.4339 41.6341C14.4198 41.6916 14.3263 41.7285 14.2398 41.7999C14.0715 41.3439 13.7722 41.4291 13.4169 41.5051C12.4607 41.7123 11.6191 42.143 10.8266 42.6887C10.1603 43.147 9.82129 43.7687 9.7792 44.577C9.75115 45.1089 9.64127 45.6363 9.53139 46.1705C9.50568 45.6179 9.4823 45.0652 9.45658 44.5125C9.42385 44.4918 9.38878 44.4711 9.35605 44.4527C9.25553 44.5632 9.10357 44.6599 9.06148 44.7912C8.78094 45.6639 8.43494 46.5275 8.27831 47.4209C7.89023 49.6592 7.37824 51.8469 6.23503 53.8457C6.18126 53.9424 6.11113 54.0299 6.048 54.1197C6.01527 54.1036 5.98488 54.0898 5.95215 54.0737C6.11113 53.6569 6.30984 53.2493 6.41972 52.8186C6.66519 51.8538 6.88495 50.8843 7.07899 49.9079C7.42967 48.1417 7.41798 46.3547 6.85222 44.6553C6.5109 43.6283 5.82825 42.7118 5.29054 41.7492C5.25781 41.6916 5.16897 41.664 5.06611 41.5926C4.9726 42.6035 4.88376 43.573 4.79492 44.5448L4.59386 44.5678C4.53542 44.3767 4.43489 44.1855 4.42788 43.9921C4.40216 43.0065 4.37177 42.0209 4.39749 41.0353C4.41619 40.2754 4.28527 39.5523 4.08889 38.8247C3.7125 37.4361 3.75224 36.0429 4.1637 34.6658C4.45593 33.6849 4.79258 32.7177 5.08715 31.7367C5.39107 30.7189 5.44718 29.6734 5.39107 28.6188C5.35133 27.9049 5.31392 27.1933 5.27418 26.4818C5.30691 26.4703 5.3373 26.4587 5.37003 26.4449C5.529 26.9032 5.73473 27.3499 5.83994 27.8197C6.20698 29.4547 6.23269 31.1081 5.88903 32.7453C5.58511 34.1823 5.73473 35.5685 6.24438 36.918C6.60207 37.8667 7.3572 38.5391 8.13102 39.1747C8.43494 39.4234 8.75523 39.6514 9.11058 39.8471C8.72484 38.9283 8.02582 38.2651 7.33382 37.5743C7.67748 37.7331 8.01881 37.8943 8.36715 38.0463C8.5004 38.1039 8.64301 38.1499 8.78562 38.1707C9.58516 38.2904 9.88207 38.0694 10.1275 37.3002C10.4829 36.1926 10.1977 35.207 9.60854 34.2675C9.33501 33.8345 8.95628 33.6181 8.42325 33.7839C8.38819 33.7954 8.34377 33.7908 8.30636 33.7839C8.28298 33.7793 8.26428 33.7562 8.18713 33.7033C8.32506 33.5951 8.43728 33.4707 8.57521 33.3993C9.89142 32.7407 10.5998 30.9814 10.3192 29.5951C10.1883 28.955 10.1533 28.2964 10.0714 27.6447C10.0597 27.5457 10.034 27.4466 10.0083 27.3154C9.62724 27.4743 9.27657 27.6193 8.92823 27.7644C8.90719 27.7322 8.88848 27.6976 8.86744 27.6654C8.89316 27.6124 8.90485 27.5411 8.94693 27.5111C9.6927 26.9608 9.7418 26.1824 9.64361 25.3764C9.50801 24.2734 9.02642 23.2924 8.45832 22.3506C8.39754 22.2516 8.27363 22.1894 8.17778 22.1088C8.12167 22.2308 8.03517 22.3483 8.01647 22.4749C7.944 22.9424 7.89256 23.4122 7.83178 23.8796C7.78736 23.8796 7.7406 23.8796 7.69618 23.8796C7.67982 23.6056 7.67047 23.3293 7.64709 23.0552C7.61202 22.6269 7.58163 22.1963 7.52786 21.7703C7.45305 21.167 7.05795 20.8285 6.5109 20.6189C6.27477 20.5291 6.048 20.4186 5.81422 20.3264C5.43549 20.1768 5.21807 20.3103 5.19937 20.7156C5.183 21.114 5.19469 21.5124 5.19469 21.9108C5.15495 21.9108 5.1152 21.9108 5.07546 21.9108C4.99831 21.4318 4.88376 20.9574 4.85337 20.4761C4.82999 20.1054 4.69205 19.9281 4.32501 19.8705C3.46235 19.73 2.60202 19.5711 1.74871 19.3731C3.06959 19.3224 4.35307 19.6264 5.69733 19.8475C5.67395 19.6932 5.65525 19.5965 5.64589 19.4998C5.62485 19.2649 5.51965 18.9954 5.60381 18.8043C5.81889 18.3138 5.62252 17.9362 5.47523 17.4802C5.22742 16.7157 5.13391 15.8982 5.01234 15.0968C4.86038 14.0997 4.75284 13.098 4.61023 12.0986C4.58919 11.9512 4.47931 11.8177 4.41151 11.6772C4.37878 11.6864 4.34372 11.6933 4.31099 11.7025C4.25254 12.0364 4.19409 12.368 4.13565 12.7019C4.08889 12.7043 4.04447 12.7066 3.99771 12.7112C3.96031 12.5914 3.89485 12.4717 3.88784 12.3496C3.87147 12.0618 3.85978 11.7693 3.88784 11.4838C3.97434 10.6271 3.60963 9.92019 3.11868 9.27081C2.70722 8.72275 2.27706 8.1816 1.7978 7.6911C1.33023 7.21443 0.790191 6.80453 0.194041 6.29332C0.45588 6.40846 0.649921 6.45221 0.797205 6.56044C2.39629 7.73716 3.74756 9.14416 4.63828 10.915C5.20638 12.0434 5.34665 13.2961 5.44718 14.5465C5.53368 15.6011 5.64122 16.6581 6.19529 17.6483C6.21165 17.3835 6.26309 17.1141 6.23737 16.8516C6.19996 16.4486 6.07372 16.0502 6.05502 15.6449C6.02229 14.961 6.04567 14.2747 6.04567 13.5908L6.19295 13.5862C6.23503 13.9316 6.27711 14.277 6.32153 14.6202C6.38699 15.1268 6.43609 15.6357 6.52726 16.1377C6.64883 16.8078 6.72832 17.4618 6.36361 18.0904C6.32621 18.1572 6.31919 18.2885 6.35894 18.3438C7.07666 19.2856 7.80373 20.2228 8.53313 21.1577C8.54482 21.1739 8.58223 21.1716 8.70146 21.1992C8.66171 20.7985 8.62665 20.4232 8.58924 20.0501C8.46534 18.8642 8.34611 17.676 8.21285 16.4923C8.0866 15.3755 7.944 14.2747 7.53487 13.1947C7.17952 12.2598 7.10237 11.2259 6.83352 10.2541C6.5483 9.21785 6.19061 8.20232 5.85396 7.17989C5.76045 6.89664 5.56407 6.88053 5.30457 7.15456C5.2882 6.87822 5.30691 6.67788 5.25781 6.49826C5.13157 6.03541 4.98428 5.57946 4.82297 5.12581C4.79959 5.05672 4.664 5.02679 4.57984 4.98073C4.53542 5.06824 4.45593 5.15344 4.45359 5.24095C4.4419 5.7844 4.44658 6.33016 4.44658 6.87362C4.3858 6.87592 4.32735 6.88053 4.26657 6.88283C4.24786 6.64794 4.2315 6.41536 4.20812 6.18048C4.14032 5.50346 4.08421 4.82645 3.9907 4.15173C3.90186 3.50926 3.453 3.08324 2.99478 2.67335C2.81009 2.50755 2.62072 2.55591 2.57864 2.7977C2.52253 3.1316 2.53422 3.47472 2.49214 3.81092C2.47578 3.93527 2.38928 4.05041 2.33551 4.17016C2.27238 4.05732 2.16251 3.94679 2.15315 3.82934C2.12042 3.37109 2.15783 2.90593 2.09471 2.45459C1.99184 1.71079 1.53596 1.16964 0.935138 0.732107C0.638232 0.529463 0.360028 0.292277 0 0.00673232C0.15196 0.00673232 0.215082 -0.0116899 0.247812 0.0113379C1.39569 0.748227 2.62774 1.3884 3.66574 2.25424C4.8183 3.2145 5.83292 4.34747 6.83118 5.47123C7.99075 6.7746 9.12461 8.1056 10.1673 9.49878C11.2661 10.9703 12.2176 12.5408 12.767 14.3093C12.7903 14.3853 12.809 14.4613 12.8231 14.5396C12.8278 14.5603 12.8067 14.5856 12.767 14.6846C12.2433 13.9362 11.722 13.2362 10.8733 12.6743C10.8546 12.9645 10.8032 13.1671 10.8359 13.3536C10.9715 14.1274 11.1281 14.9011 11.2941 15.6702C11.3222 15.7992 11.4204 15.9512 11.5326 16.0156C12.1077 16.3403 12.6781 16.6858 13.2883 16.9345C14.1393 17.2822 15.03 17.2638 15.9137 17.0081C16.1685 16.9345 16.435 16.9045 16.6875 16.8308C17.4403 16.6075 17.611 15.9811 17.7068 15.3294C17.777 14.8458 17.4356 14.5603 17.0896 14.3001C16.5286 13.8787 15.9651 13.4573 15.397 13.0428C15.1095 12.8309 14.9552 12.8839 14.8664 13.2293C14.8313 13.3675 14.8243 13.5148 14.8219 13.6576C14.8173 14.2609 14.8219 14.862 14.8219 15.4653C14.7799 15.4699 14.7354 15.4768 14.6934 15.4814C14.6209 15.136 14.4853 14.7929 14.4829 14.4475C14.4759 12.0595 14.6139 12.5454 12.8278 10.4475C12.5379 10.1067 12.255 9.7567 11.9978 9.39055C11.7944 9.10271 11.6378 8.78262 11.5209 8.41418C11.5887 8.46944 11.6705 8.5155 11.7266 8.58228C12.6548 9.73367 13.9008 10.4544 15.2007 11.113C16.5262 11.7854 17.8331 12.4947 19.1493 13.1832C19.2522 13.2362 19.369 13.2638 19.4789 13.303C19.4976 13.2707 19.5187 13.2408 19.5374 13.2086C19.0745 12.7273 18.6092 12.246 18.1463 11.7647C18.1791 11.7302 18.2141 11.6956 18.2469 11.6611C20.4468 12.3727 22.2843 13.6185 23.7712 15.3985C23.5608 14.7031 23.147 14.1389 22.7238 13.5908C22.2984 13.0382 21.8261 12.5246 21.3726 11.9927C21.3913 11.9628 21.4123 11.9328 21.431 11.9029C21.6975 12.0894 21.9664 12.2713 22.2329 12.4625C23.5047 13.3721 24.5824 14.4382 25.1388 15.9281C25.4194 16.6788 25.742 17.418 25.9735 18.1826C26.3008 19.2649 26.9296 20.1583 27.6006 21.0495C28.4001 22.1134 29.4826 22.8042 30.6 23.4836C31.3552 23.9418 32.129 24.3264 32.9683 24.5981C32.98 24.6027 32.994 24.6119 33.0057 24.6119C33.9502 24.6188 34.904 24.8883 35.8392 24.5336C36.087 24.4392 36.3324 24.3333 36.5499 24.156C36.3932 24.2089 36.2366 24.2642 36.0285 24.3356C36.0005 24.1583 35.9584 24.0109 35.9537 23.8612C35.9163 22.0789 36.0753 20.3034 36.6177 18.6109C36.9496 17.5746 37.5341 16.6029 38.0928 15.6541C39.4231 13.3974 41.5084 12.1286 44.0193 11.5022C44.9942 11.2604 45.9971 11.1268 46.9907 10.961C47.1403 10.9357 47.3063 11.0094 47.4653 11.037C47.4653 11.0762 47.4653 11.113 47.4653 11.1522C47.3086 11.189 47.1496 11.2259 46.9907 11.2627C46.6447 11.341 46.4647 11.5321 46.4834 11.9029C46.5021 12.2805 46.488 12.6582 46.488 13.0382C46.4273 13.0428 46.3665 13.0497 46.3057 13.0543C46.2776 12.8171 46.2262 12.5799 46.2215 12.3404C46.2098 11.4216 46.0859 11.2742 45.1975 11.5529C44.3396 11.8223 43.5213 12.2184 42.7031 12.596C42.3243 12.771 42.1069 13.1026 42.0742 13.5402C42.0602 13.7175 41.976 13.8902 41.9386 14.0191C41.8708 13.8556 41.789 13.6622 41.7071 13.4688C41.5061 13.577 41.2817 13.6576 41.1063 13.7981C39.6802 14.9426 38.7708 16.3933 38.4646 18.2793C39.4044 17.3881 40.1314 16.3265 41.3962 15.9212C42.5955 15.5367 43.8019 15.235 45.083 15.4123C44.9965 15.4261 44.91 15.4469 44.8235 15.4538C44.73 15.4607 44.6365 15.4561 44.543 15.4561C43.9491 15.4607 43.3577 15.5229 42.8714 15.8775C42.682 16.0156 42.502 16.2874 42.4833 16.513C42.3968 17.5838 42.3664 18.6615 42.2636 19.7392C42.1911 18.7421 42.1186 17.7473 42.0415 16.7502C42.0321 16.6236 41.99 16.4969 41.9573 16.3542C41.1905 16.5407 40.8258 17.0081 40.8702 17.8003C40.8351 17.7934 40.7977 17.7888 40.7627 17.7819C40.6832 17.6644 40.6037 17.547 40.4587 17.3305C38.9064 19.182 38.1045 21.2752 37.8193 23.6471C38.2284 23.3776 38.6352 23.1105 39.0443 22.8411C39.063 22.8595 39.0817 22.8756 39.1004 22.894C38.8924 23.0921 38.6913 23.2993 38.4739 23.4859C38.3032 23.6309 38.1092 23.7484 37.9292 23.8865C37.7796 24.0017 37.7258 24.0961 37.7913 24.3379C37.9152 24.7984 37.9058 25.2958 37.9502 25.7771C37.9806 26.1041 38.0063 26.4311 38.0367 26.7581C38.0601 26.9976 38.198 27.1035 38.4388 27.0943C38.6259 27.0874 38.8129 27.0851 38.9999 27.0943C40.2647 27.1381 40.8258 26.6453 41.2349 25.3833C41.4734 24.6442 41.4734 23.8888 41.2536 23.1312L41.3471 23.0944C41.4453 23.2441 41.5622 23.3868 41.6393 23.548C42.4506 25.2843 41.7796 27.396 40.4634 28.5819C40.1244 28.8882 39.8439 29.2566 39.5142 29.5744C39.4535 29.6343 39.2688 29.6366 39.1799 29.5928C38.9251 29.4685 38.6937 29.2935 38.4412 29.1599C38.2331 29.0494 38.0835 29.1599 38.0765 29.3649C38.0531 30.0948 38.0531 30.8248 38.0484 31.5548C38.0484 31.6055 38.0531 31.6699 38.0835 31.7068C38.4669 32.1811 38.3219 32.5427 37.8427 32.8397C37.8076 32.8628 37.7983 32.9249 37.7258 33.0838C38.8222 32.7845 39.8135 32.7453 40.6621 33.5789C40.4985 33.5421 40.3722 33.5099 40.2437 33.4845C39.7247 33.3901 39.4628 33.6089 39.4348 34.127C39.4161 34.4931 39.3716 34.857 39.3249 35.2208C39.3155 35.2945 39.2477 35.359 39.2057 35.4304C39.1542 35.4258 39.1028 35.4189 39.0514 35.4142V33.922C38.4388 34.1731 38.1139 34.5806 38.0788 35.108C38.025 35.9047 38.0648 36.7061 38.0648 37.6088C38.4014 37.4407 38.6703 37.2933 38.9485 37.169C39.2197 37.0492 39.5026 36.9502 39.8112 36.9157C39.1659 37.3946 38.5207 37.8759 37.9666 38.2858C38.2051 38.5737 38.3781 38.7832 38.5978 39.048C38.2939 39.1217 38.1092 39.1678 37.9456 39.2069C38.2729 39.5662 38.5347 39.9668 38.9041 40.2109C39.0817 40.3284 39.4932 40.2178 39.7434 40.0981C40.2179 39.8724 40.3652 39.4004 40.433 38.9191C40.5265 38.2259 40.7767 37.6019 41.2162 37.0515C41.2536 37.0055 41.298 36.964 41.4173 36.9594C41.3518 37.1459 41.2606 37.3279 41.2232 37.5213C41.1344 37.9841 41.0011 38.4539 41.0081 38.9168C41.0245 39.9876 40.5406 40.9294 40.3021 41.9334C40.1829 42.44 40.1408 42.9674 39.9958 43.4648C39.8439 43.9852 39.7013 44.5448 39.3927 44.9731C38.9578 45.5764 38.371 46.0761 37.852 46.6219C37.824 46.6495 37.8006 46.6956 37.7679 46.7048C37.0011 46.9189 36.9613 47.6144 36.7462 48.1947C36.7299 48.2407 36.7065 48.2868 36.6878 48.3328L36.5756 48.3282C36.5943 47.9851 36.5826 47.6374 36.6364 47.3012C36.8024 46.2649 37.0315 45.2402 37.1671 44.1993C37.2793 43.3427 37.0034 42.5644 36.4447 41.8897C36.1423 41.5243 36.0277 41.1175 36.101 40.6692C35.6638 41.208 35.3996 41.7676 35.1448 42.3548C34.8736 42.9789 34.9414 43.6098 34.7965 44.2523L34.8035 44.2385ZM22.0108 37.321C21.9617 37.321 21.9103 37.321 21.8612 37.321C21.8074 37.1644 21.7326 37.0124 21.7022 36.8535C21.6601 36.637 21.6578 36.4114 21.6251 36.1926C21.59 35.9738 21.5736 35.6998 21.237 35.7781C20.7343 35.8955 20.0914 36.6923 20.1499 37.2012C20.2037 37.6871 20.3276 38.1776 20.5029 38.6358C20.9284 39.7504 21.9009 40.4389 22.7238 41.2311C23.1657 41.6548 23.6824 42.0393 24.2318 42.3111C25.3376 42.8545 26.4901 43.3059 27.624 43.7918C27.804 43.8677 27.9934 43.9253 28.178 43.9921C27.9863 43.1654 27.5749 42.5575 26.8992 42.1545C26.5252 41.9311 26.1114 41.7653 25.735 41.5442C25.4077 41.3508 25.1038 41.1136 24.7905 40.8972C24.7975 40.8534 24.8022 40.812 24.8092 40.7682C25.4451 40.706 25.7794 40.3422 25.8332 39.7734C25.8776 39.2921 25.8495 38.8039 25.8612 38.3204C25.8706 37.892 25.894 37.466 25.9127 37.0055C25.202 37.1989 24.5731 37.6618 24.0026 38.2375C23.3551 38.8914 23.4252 39.679 23.5655 40.4919C22.8127 39.1447 23.2592 37.2081 25.9384 35.9255C25.9057 35.7113 25.8589 35.5133 25.8495 35.3129C25.8005 34.1592 25.7958 33.0055 25.6999 31.8565C25.6649 31.4327 25.4755 30.9975 25.2581 30.6222C25.0547 30.2721 24.7227 29.9935 24.4141 29.6458C24.5871 29.5974 24.7274 29.5698 24.8606 29.5214C25.2464 29.381 25.6578 29.2843 26.0038 29.077C26.6982 28.6648 27.3551 28.1904 28.0284 27.7414C28.6409 27.3338 29.043 26.7811 28.9776 26.0373C28.9355 25.5607 28.7765 25.0886 28.6152 24.6326C28.524 24.377 28.3206 24.1606 28.1687 23.928C28.1196 23.9372 28.0705 23.9487 28.0214 23.9579C27.9957 24.1652 27.9676 24.3747 27.9443 24.582C27.9209 24.8054 27.9793 25.0656 27.624 25.206C27.5749 25.031 27.5094 24.8767 27.4954 24.7201C27.4673 24.407 27.4627 24.0915 27.458 23.776C27.451 23.3247 27.2663 23 26.8244 22.825C26.6538 22.7582 26.5018 22.65 26.2704 22.521C26.406 22.5003 26.448 22.4818 26.4808 22.4934C28.0518 22.9746 29.4054 23.7392 30.0273 25.3442C30.4574 26.4541 30.9718 27.5065 31.6474 28.4944C32.295 29.4408 32.9589 30.3435 34.1279 30.7166C34.3687 30.7926 34.392 30.9515 34.226 31.138C33.8754 31.5318 33.5738 31.9877 33.167 32.3124C32.4797 32.8582 31.935 33.5122 31.4604 34.2237C31.1074 34.7557 30.7918 35.3106 30.7427 35.9899C30.6842 36.7959 30.5252 37.5927 30.4083 38.394C30.3686 38.3157 30.3593 38.2375 30.3569 38.1615C30.3335 37.4269 30.3242 36.69 30.2844 35.9577C30.2634 35.5639 30.1091 35.4649 29.7304 35.5916C29.4428 35.6883 29.1576 35.8103 28.8958 35.9623C28.7976 36.0199 28.7181 36.1949 28.7204 36.3146C28.7251 36.7199 28.7625 37.1275 28.8022 37.5305C28.835 37.8552 28.849 38.1891 28.9449 38.4977C29.1085 39.0112 29.1319 39.002 28.669 39.2046C28.6526 39.2115 28.6479 39.2507 28.6316 39.2875C29.0875 39.5431 29.5433 39.8033 30.0062 40.052C30.0951 40.1004 30.2143 40.1096 30.3172 40.1073C30.6678 40.1027 31.0022 40.0981 30.7988 40.6646C30.9671 40.5679 31.077 40.4873 31.1798 40.3998C31.6264 40.006 32.0518 39.5892 32.5194 39.2207C33.4873 38.4608 33.7444 37.4085 33.707 36.2893C33.6907 35.7919 33.4008 35.3014 33.2278 34.7833C33.8426 35.3383 34.2237 36.013 34.4107 36.7913C34.6001 37.5743 34.5533 38.3687 34.3266 39.1309C34.2003 39.5523 33.9595 39.9691 33.6767 40.3123C33.3961 40.6508 32.9893 40.888 32.6457 41.1758C31.9186 41.7837 31.2149 42.4055 31.0816 43.421C31.0396 43.7434 30.8034 43.847 30.4995 43.824C30.2961 43.8079 30.1208 43.8194 30.1769 44.1372C30.3522 44.0635 30.5019 43.9852 30.6608 43.9414C31.3108 43.7595 31.9653 43.5845 32.6176 43.4095C33.7795 43.0986 34.5346 42.318 35.1004 41.3232C35.1682 41.2034 35.1752 41.0491 35.2103 40.911C35.1752 40.8741 35.1378 40.8373 35.1027 40.8004C34.4014 41.0975 33.6977 41.3969 32.9963 41.6939C33.1413 41.4867 33.3166 41.3324 33.492 41.1735C34.2097 40.5241 34.8783 39.8333 34.9274 38.8039C34.9788 37.7447 35.0139 36.6831 34.9858 35.6238C34.9648 34.8639 35.0256 34.0487 34.3196 33.4776C34.2822 33.4477 34.3172 33.2312 34.3687 33.2059C34.9157 32.9434 34.9531 32.4621 34.9414 31.9647C34.9204 31.138 34.8783 30.3136 34.8596 29.4869C34.8456 28.8628 34.7497 28.803 34.1068 28.948C33.7328 29.0333 33.3447 29.0448 32.9613 29.0885C32.9496 29.0425 32.9379 28.9964 32.9262 28.9527C33.0314 28.8859 33.1366 28.8168 33.2418 28.75C34.4949 27.9486 35.4908 26.9561 35.8298 25.4501C35.8625 25.3004 36.0449 25.1669 36.1852 25.0633C36.3605 24.9343 36.5639 24.8445 36.7556 24.7386C36.4026 24.8054 36.08 24.9389 35.748 24.9827C35.0139 25.0817 34.2658 25.2314 33.5364 25.1784C32.8771 25.13 32.6714 25.3189 32.5709 26.0028C32.5428 26.1962 32.5709 26.3966 32.5592 26.5923C32.5545 26.6821 32.5241 26.7696 32.5054 26.8594C32.3675 26.4979 32.2763 26.1433 32.2576 25.784C32.2295 25.2429 31.942 24.932 31.4744 24.6948C30.7286 24.3149 29.9852 23.928 29.2768 23.4882C28.4095 22.9516 27.5421 22.4013 26.7379 21.7795C25.8215 21.0725 25.216 20.0916 24.6783 19.0922C24.2107 18.2217 23.5982 17.5055 22.7776 16.9598C22.6373 16.8654 22.476 16.8009 22.3264 16.7226C22.3054 16.7502 22.2867 16.7779 22.2656 16.8055C22.9576 17.6345 23.7969 18.3599 24.2949 19.3547C23.7642 19.5136 23.7057 19.509 23.6496 20.0248C23.5444 21.0012 23.4977 21.9844 23.4579 22.9654C23.4182 23.9579 23.4182 24.9527 23.4018 25.9475L23.3247 25.9429C23.2592 25.6413 23.1961 25.3419 23.1306 25.0402C23.0839 25.0425 23.0371 25.0448 22.9904 25.0471C22.8454 25.5768 22.7309 26.1156 22.5438 26.6315C22.3334 27.2141 22.5392 27.6493 22.9343 28.0523C23.0886 28.2089 23.2358 28.3701 23.3855 28.5289C23.2522 28.5543 23.161 28.5174 23.0722 28.4806C22.5906 28.2802 22.1043 28.1582 21.6157 28.446C21.5292 28.4967 21.4825 28.6188 21.4193 28.7063C21.5082 28.7477 21.597 28.8191 21.6882 28.8237C22.3334 28.8605 22.8174 29.1852 23.2125 29.655C23.3177 29.7817 23.3738 29.9475 23.4533 30.0971C23.3387 30.1271 23.299 30.1156 23.2779 30.0902C22.7145 29.4478 21.8285 29.7747 21.5573 30.5001C21.4053 30.9031 21.3328 31.336 21.1715 31.7367C20.746 32.7868 20.9681 32.9019 22.0155 33.6158C22.7823 34.1362 23.5678 34.6313 24.337 35.1494C24.4726 35.2415 24.5661 35.3935 24.6783 35.5156C24.6502 35.5501 24.6245 35.5847 24.5965 35.6192C24.4655 35.5777 24.3346 35.5294 24.2014 35.4925C23.8834 35.4004 23.5678 35.2807 23.2428 35.23C22.3872 35.0965 22.0996 35.3613 22.0856 36.2179C22.0809 36.5887 22.0342 36.9571 22.0061 37.3279L22.0108 37.321ZM11.7874 17.1417C11.9698 17.8878 12.1638 18.5579 12.2947 19.2372C12.414 19.8682 12.6314 20.437 13.0101 20.9666C13.6016 21.791 14.151 22.6453 14.7074 23.4928C15.0651 24.0385 15.4789 24.5244 16.0306 24.8929C16.5917 25.2682 17.127 25.685 17.6928 26.0558C17.9897 26.2492 18.317 26.4058 18.649 26.5393C18.9786 26.6706 19.1844 26.5232 19.2521 26.1916C19.5304 24.8307 19.8156 23.4697 20.0984 22.1088C20.3346 20.9735 20.4982 19.8314 20.4164 18.6708C20.407 18.5372 20.3463 18.4059 20.3089 18.2747L20.199 18.2885C20.0634 18.7905 19.9278 19.2925 19.7922 19.7945C19.7431 19.7899 19.6917 19.7853 19.6426 19.7807C19.6847 18.5994 19.6683 17.4342 18.9436 16.5315C18.4947 16.8677 18.1066 17.1924 17.6835 17.4618C17.3819 17.6552 17.2393 17.874 17.2393 18.2309C17.2393 19.1497 17.2159 20.0685 17.1878 20.9873C17.1785 21.2752 17.127 21.5607 17.0943 21.8463C17.0616 21.844 17.0265 21.8417 16.9938 21.8394C16.9424 21.2545 16.8816 20.6696 16.8395 20.0824C16.7951 19.4537 16.7764 18.825 16.732 18.1964C16.7062 17.8279 16.5122 17.699 16.1498 17.7704C15.9675 17.8049 15.7828 17.8348 15.5981 17.8671C15.0043 17.9753 14.8383 18.1734 14.8266 18.7767C14.8243 18.9102 14.8079 19.0438 14.7962 19.1774C14.7612 19.182 14.7237 19.1866 14.6887 19.1912C14.6489 19.076 14.6045 18.9632 14.5741 18.8458C14.4409 18.323 14.2632 17.8694 13.632 17.7174C13.1036 17.5907 12.601 17.3651 12.0867 17.1878C12.0072 17.1601 11.9183 17.1624 11.7804 17.1417H11.7874ZM16.7132 31.9278C16.6688 31.9278 16.6221 31.9301 16.5777 31.9324C16.5286 31.5732 16.4444 31.214 16.4397 30.8547C16.4234 29.7909 16.4023 28.7247 16.4537 27.6631C16.4912 26.8894 16.2176 26.2976 15.6729 25.7679C14.9926 25.1024 14.3474 24.4024 13.6811 23.7207C13.6156 23.654 13.5174 23.6148 13.3327 23.4997C13.494 24.3356 13.7652 25.0057 14.1229 25.6482C14.4993 26.3229 15.1212 26.7259 15.8249 27.1058C15.1937 27.4006 14.5905 27.624 13.971 27.7898C13.5011 27.9164 13.3 28.0707 13.2883 28.5497C13.279 28.9158 13.293 29.2866 13.3538 29.6458C13.494 30.4587 13.6343 31.2762 13.8447 32.0752C14.0388 32.8052 14.2515 33.5467 14.5928 34.2145C14.9926 34.9951 15.5046 35.7274 16.0329 36.4321C16.5028 37.0607 17.0569 37.6295 17.5853 38.2167C17.6531 38.2927 17.7863 38.3111 17.8868 38.3549C17.9219 38.249 17.9827 38.1453 17.9897 38.0394C18.0482 37.1598 17.6928 36.4252 17.1224 35.7827C16.9611 35.6008 16.8629 35.4373 17.0896 35.2508C17.5759 34.8478 17.618 34.2675 17.7162 33.7171C17.8565 32.9457 17.9617 32.165 18.0832 31.3913C18.2118 30.5784 18.1136 29.7978 17.7536 29.0517C17.7022 28.9434 17.6531 28.8329 17.604 28.7224C17.7513 28.7132 17.9172 28.6602 18.0458 28.7063C18.2399 28.7753 18.4129 28.9135 18.5905 29.0263C18.6911 29.0908 18.7846 29.1668 18.9108 29.2566C18.988 28.499 18.6186 27.822 18.0178 27.5457C17.8611 27.4743 17.6951 27.4213 17.5408 27.343C17.0756 27.0989 16.919 27.1657 16.8839 27.6953C16.8114 28.7684 16.7623 29.8415 16.7109 30.9146C16.6945 31.2508 16.7086 31.5916 16.7086 31.9278H16.7132ZM25.8192 44.4365C25.9384 44.6023 26.0436 44.7796 26.1768 44.9339C27.2523 46.2028 27.9256 47.6512 28.1874 49.2839C28.2295 49.5487 28.3557 49.6846 28.6386 49.6592C29.216 49.6086 29.8052 49.6109 30.3733 49.5049C31.444 49.3069 32.5288 49.125 33.4873 48.5562C33.9245 48.2983 34.357 48.0335 34.7895 47.7733C34.7848 47.7134 34.7778 47.6535 34.7731 47.5936C34.2822 47.4647 33.7912 47.3426 33.3026 47.2068C33.015 47.1262 32.7018 47.0709 32.454 46.9189C31.7549 46.4906 31.2757 45.8412 30.8011 45.1182C30.2985 45.6179 30.5837 46.2811 30.3429 46.8913C30.3148 46.5044 30.3031 46.1936 30.2634 45.8827C30.2447 45.733 30.2143 45.5004 30.1208 45.459C29.6649 45.2563 29.8215 44.9616 29.9338 44.653C29.9618 44.5793 29.9618 44.4964 29.9735 44.4158C29.3025 45.3323 29.0875 46.3847 28.9449 47.4716C28.835 46.691 28.7251 45.9126 28.6152 45.1412C27.5398 45.2909 26.7823 44.554 25.8145 44.4342L25.8192 44.4365ZM28.6643 34.5968C30.3756 33.9819 31.2102 32.8075 31.6334 31.2301C31.5095 31.2623 31.3949 31.2785 31.2921 31.3199C30.7941 31.5295 30.5182 31.9371 30.2961 32.3999C30.2424 32.5127 30.1512 32.6072 30.0764 32.7108C30.0343 32.6924 29.9899 32.6739 29.9478 32.6532C30.0343 32.3446 30.1535 32.043 30.2026 31.7275C30.2634 31.3475 30.4083 30.8962 30.2681 30.5853C29.8987 29.7724 29.195 29.1921 28.5989 28.5405C28.5685 28.5543 28.5404 28.5704 28.51 28.5842C28.5614 30.5508 28.6105 32.5197 28.6643 34.5922V34.5968ZM11.7243 45.1941C11.6916 45.178 11.6612 45.1619 11.6284 45.1481C11.5443 45.2563 11.4391 45.3553 11.3783 45.4751C11.1305 45.9518 10.8172 46.4146 10.6793 46.9235C10.5203 47.5038 10.5156 48.1256 10.4525 48.7312C10.4432 48.8164 10.4993 48.9062 10.5273 48.9937C10.6442 49.353 10.7494 49.7191 10.885 50.0714C11.03 50.4445 11.203 50.8083 11.3572 51.1583C12.283 50.3063 12.2877 49.1803 12.4233 48.098C12.4327 48.0289 12.4069 47.9275 12.3602 47.8815C11.8155 47.3657 11.7336 46.7002 11.7243 46.0116C11.722 45.7399 11.7243 45.4682 11.7243 45.1965V45.1941ZM14.6256 37.3348C14.9178 37.7516 15.1422 38.2236 15.5046 38.5414C15.8599 38.85 16.3556 38.9997 16.7904 39.2184C17.597 39.6214 17.9032 39.6721 18.1744 39.4211C17.3421 39.1171 16.7927 38.4931 16.2714 37.8414C15.9418 37.4292 15.6121 37.017 15.2755 36.6117C14.8173 36.0567 14.2118 35.709 13.5291 35.4327C13.8237 36.2456 13.8634 37.1321 14.4315 37.9519C14.5227 37.6618 14.5788 37.4821 14.6232 37.3371L14.6256 37.3348ZM12.3999 47.444C12.6524 46.6748 12.8184 45.9863 13.1036 45.3484C13.3842 44.7221 13.7886 44.1464 14.172 43.4924C13.1644 43.5269 12.6828 44.1855 12.3158 44.8395C11.8669 45.6455 12.0352 46.5228 12.3976 47.4463L12.3999 47.444ZM38.3336 44.1441C37.8684 44.197 37.3728 45.4359 37.6276 45.9748C37.9456 45.3692 38.4295 44.8764 38.3336 44.1441ZM7.23095 20.3863C6.83586 19.8544 6.47583 19.3685 6.11346 18.8803C5.84695 19.3316 6.40569 20.1146 7.23095 20.3863Z" fill="black"/>
<path d="M84.09 53.9402C83.2787 53.0029 82.7854 51.9137 82.4909 50.7508C82.2244 49.7077 82.035 48.6484 81.8222 47.5937C81.523 46.1199 81.1583 44.6945 80.0735 43.5247C79.1337 42.5092 77.9952 41.8966 76.6743 41.5858C75.9659 41.42 75.2295 41.2242 74.5188 41.2588C73.7123 41.2979 72.9197 41.5765 72.1202 41.7516C72.1202 41.7907 72.1179 41.8322 72.1155 41.8713C72.8543 42.12 73.593 42.3687 74.423 42.6473C73.9344 42.9536 73.5159 43.1378 73.0366 42.9881C71.6386 42.5506 70.299 42.8246 68.9688 43.2691C68.7303 43.3497 68.4895 43.4257 68.2557 43.5201C67.5918 43.7872 67.2411 44.2846 67.1406 44.9801C67.0704 45.4521 66.9582 45.9196 66.7876 46.3986C66.7876 46.1153 66.8063 45.8298 66.7829 45.5488C66.7572 45.2725 66.6894 44.9985 66.6379 44.7244C66.3831 44.8695 66.0956 44.98 65.8805 45.1689C64.4076 46.4607 63.3883 48.0589 62.8927 49.9241C62.514 51.3518 62.4602 52.8256 62.7034 54.3017C63.0166 56.1946 63.7694 57.894 64.95 59.4139C64.9874 59.4622 65.0061 59.5267 64.9781 59.6303C64.791 59.4323 64.5993 59.2365 64.4193 59.0339C64.2346 58.8267 64.057 58.6148 63.8863 58.396C63.7086 58.1681 63.5473 57.9309 63.379 57.696C63.3322 57.6914 63.2855 57.6868 63.2387 57.6822C63.1896 57.8733 63.1148 58.0621 63.0984 58.2556C62.9932 59.5037 62.9021 60.7518 62.8039 61.9999L62.6122 61.9953C62.6122 60.5376 62.6753 59.0754 62.5888 57.6223C62.535 56.7334 62.3457 55.8261 62.0511 54.9833C61.6607 53.8596 61.5298 52.7381 61.6279 51.5729C61.6864 50.8683 61.7425 50.1636 61.815 49.459C61.9623 48.0266 62.521 46.7509 63.3767 45.5949C63.6572 45.2172 63.9447 44.8465 64.23 44.4734C64.2113 44.4412 64.1902 44.4113 64.1715 44.379C64.071 44.4067 63.9681 44.4228 63.8723 44.4596C63.2551 44.6991 62.6402 44.9501 62.0184 45.1804C61.9108 45.2195 61.7729 45.1827 61.6466 45.1804C61.6537 45.056 61.6466 44.9294 61.67 44.8073C61.836 43.907 62.6145 43.6767 63.3182 43.3773C64.1481 43.0227 65.0061 42.7256 65.8174 42.3296C67.1453 41.6825 68.1131 40.6301 68.8893 39.4188C69.2774 38.8132 69.5415 38.1293 69.8525 37.4776C70.0418 37.0815 69.8595 36.7499 69.6023 36.469C68.7327 35.5225 67.6549 35.0297 66.3527 35.2324C65.5789 35.3544 64.95 35.7897 64.5105 36.4483C64.3071 36.7522 64.1271 37.07 63.9401 37.3763C63.9073 36.5081 64.7256 35.032 66.1774 34.0971C67.4281 33.2911 68.7724 33.176 70.1961 33.6089L70.2616 33.4777C70.0442 33.3165 69.8244 33.1553 69.6468 33.0217C69.6584 32.9181 69.6514 32.879 69.6655 32.8697C70.2733 32.4437 70.3037 31.8036 70.2639 31.1726C70.2148 30.4104 70.3037 29.6044 69.759 28.9504C69.6655 28.8399 69.5182 28.7731 69.3966 28.6856C69.3218 28.8284 69.2002 28.9619 69.1815 29.1116C69.1348 29.4824 69.1324 29.86 69.1137 30.2354C69.0646 30.24 69.0155 30.2423 68.9664 30.2469C68.9314 30.0028 68.8893 29.7587 68.8612 29.5123C68.8262 29.2129 68.8145 28.9113 68.7701 28.6142C68.721 28.2757 68.4895 28.0777 68.1599 28.1191C67.6315 28.1882 67.1125 28.3241 66.6566 28.4185C66.9839 27.8474 68.3656 26.8203 69.6795 26.9838C70.2032 27.0483 70.2032 27.0184 70.2148 26.498C70.2452 25.2521 70.271 24.004 70.3201 22.7582C70.3341 22.4197 70.4066 22.0812 70.4673 21.745C70.6357 20.8285 70.7946 19.912 70.9863 19.0024C71.2599 17.7105 71.6807 16.4717 72.4568 15.3732C72.5948 15.1798 72.6789 14.9495 72.7187 14.6962C71.4422 15.6404 70.7409 16.976 70.147 18.3899C70.1096 18.3807 70.0722 18.3691 70.0348 18.3599C69.9437 17.9477 69.8805 17.524 69.7496 17.1256C69.6631 16.8608 69.5182 16.5845 69.3218 16.3934C68.7911 15.8752 68.368 15.972 67.8934 16.5315C67.3323 17.1901 67.5894 17.927 67.5637 18.6386C67.531 19.5643 67.5146 20.4923 67.4024 21.4134C67.3019 20.718 67.2177 20.0179 67.0938 19.3271C66.9746 18.6593 67.2762 17.9247 66.7946 17.227C66.2662 17.7036 65.9039 18.2149 65.642 18.7813C65.5088 19.0692 65.469 19.41 65.4316 19.7301C65.3381 20.5338 65.2726 21.342 65.1932 22.1457L65.0856 22.1503C65.0202 21.5378 64.9547 20.9275 64.8799 20.2183C64.0663 20.916 63.4655 21.6115 63.379 22.6408C63.3463 22.6316 63.3159 22.6201 63.2831 22.6109C63.2457 22.551 63.1943 22.4957 63.1733 22.4312C63.0844 22.1641 62.9091 22.1641 62.7034 22.2839C62.5654 22.3645 62.4392 22.4612 62.3059 22.5487C62.0324 22.726 61.7682 22.9471 61.4058 22.7421C61.7448 23.1566 62.0675 23.5849 62.4275 23.9787C62.8951 24.4899 63.1709 25.0794 63.358 25.738C63.5076 26.2631 63.7016 26.795 63.9868 27.2579C64.5152 28.1191 65.088 28.9596 65.7168 29.7495C65.967 30.065 66.4018 30.2584 66.7852 30.438C67.0354 30.5554 67.1289 30.636 66.9302 30.8502C66.3948 31.4282 65.8501 31.9993 65.3077 32.5704C65.1347 32.7523 64.9524 32.9227 64.7794 33.1069C64.4006 33.5076 64.0383 33.9267 63.6432 34.3136C63.1546 34.7926 62.8296 35.3176 62.8039 36.0292C62.7875 36.4598 62.6262 36.8835 62.5514 37.2151C62.5023 36.8582 62.4485 36.3907 62.3761 35.9278C62.341 35.6976 62.2077 35.5732 61.9506 35.663C61.9248 35.6722 61.9015 35.6837 61.8781 35.6929C61.1791 35.9532 61.1884 35.9532 61.1814 36.6739C61.1721 37.4062 61.0505 38.1385 61.31 38.8616C61.3427 38.956 61.0973 39.1471 60.9546 39.329C61.5391 39.5317 62.0067 40.1074 62.7618 40.0913C63.0049 40.0866 63.1475 40.1949 63.026 40.4689C62.9862 40.5587 62.9769 40.6623 62.9254 40.8811C63.1242 40.766 63.234 40.7176 63.3229 40.6439C63.8536 40.2248 64.3843 39.808 64.9033 39.3774C66.002 38.4701 66.3527 37.2911 66.168 35.9255C66.1634 35.8864 66.1306 35.8449 66.14 35.8127C66.1704 35.7091 66.2125 35.61 66.2522 35.5087C66.3481 35.5617 66.5 35.5962 66.5257 35.6722C66.6426 36.0061 66.7619 36.3446 66.8063 36.6923C66.9512 37.7931 66.9091 38.9076 66.2639 39.8426C65.9015 40.3653 65.2913 40.7222 64.7911 41.1482C63.9868 41.8322 63.1312 42.4654 62.3854 43.2046C61.6607 43.9231 61.3755 44.8764 61.289 45.8827C61.2586 46.2305 61.1861 46.5759 61.0692 46.9259C60.9383 46.3272 60.805 45.7285 60.6531 45.0422C60.2089 45.4521 59.8909 45.1689 59.573 45.0261C59.2784 44.8948 59.1498 44.9179 58.9488 45.2218C58.3082 46.1913 57.5741 47.0595 56.2603 47.1815C55.8675 47.2184 55.4911 47.4325 55.0235 47.5937C55.4256 48.0589 55.8792 48.2914 56.3234 48.5355C57.3053 49.079 58.4017 49.2724 59.4818 49.4912C60.0195 49.6017 60.5806 49.6017 61.13 49.6685C61.2329 49.6823 61.3264 49.7813 61.4245 49.8389C61.3357 49.9517 61.2632 50.1406 61.1557 50.1636C60.8985 50.2166 60.625 50.1935 60.3585 50.1958C59.7694 50.2004 59.7132 50.2373 59.5753 50.8061C59.5286 50.9949 59.5145 51.1906 59.4841 51.3841C59.4491 51.391 59.414 51.3979 59.3813 51.4071C59.3345 51.2137 59.2971 51.0156 59.2387 50.8245C59.1709 50.608 59.1171 50.3732 58.9862 50.1958C58.9067 50.0899 58.6542 50.0001 58.5467 50.0462C58.4111 50.106 58.2872 50.3041 58.2591 50.4607C58.2077 50.7416 58.2451 51.0364 58.2217 51.3242C58.1282 52.3927 58.0253 53.4589 57.9201 54.5251C57.9131 54.6057 57.8687 54.6817 57.7518 54.76C57.7237 54.6425 57.677 54.5251 57.6746 54.4076C57.6396 53.1342 57.6069 51.8608 57.5811 50.5873C57.5694 50.007 57.2912 49.6524 56.7793 49.3991C56.0452 49.0352 55.3368 48.6161 54.6284 48.2016C54.4975 48.1256 54.425 47.9552 54.2848 47.7779C53.8827 47.9184 53.3029 47.9115 53.0504 48.3559C52.8306 48.7428 52.8143 49.2425 52.6787 49.8136C52.5291 49.5119 52.4215 49.2955 52.2859 49.0237C51.6547 49.71 51.3929 50.4538 51.3578 51.3334C51.3251 52.2039 51.6477 52.9269 52.1246 53.6224L52.0054 53.6799C51.8183 53.3783 51.6079 53.0858 51.4466 52.7704C51.1006 52.0887 50.8949 51.361 51.0656 50.6057C51.3788 49.2241 52.1456 48.1602 53.5133 47.6121C54.238 47.3197 54.9885 47.0871 55.7296 46.8315C55.8535 46.7877 55.9937 46.7394 56.1176 46.7532C56.667 46.8108 57.0598 46.5598 57.4128 46.1844C57.7752 45.7998 58.1539 45.4291 58.5303 45.0583C58.6191 44.9708 58.7267 44.9064 58.8155 44.8396C58.2264 44.6669 57.5882 44.5195 56.9826 44.2892C56.6717 44.1718 56.4122 43.9162 56.1387 43.7112C55.795 43.451 55.7038 43.4832 55.5916 43.8908C55.5659 43.9876 55.4607 44.0635 55.3929 44.1487C55.3204 44.0566 55.2106 43.976 55.1825 43.8724C55.1077 43.6099 55.075 43.3359 55.0095 43.0687C54.9487 42.827 54.7851 42.7602 54.6051 42.9398C53.8266 43.7158 53.0761 44.7774 53.9177 45.9725C54.0533 46.166 54.1983 46.3617 54.2871 46.5782C54.3526 46.7348 54.383 47.0572 54.3385 47.0756C54.0931 47.17 53.8008 47.3151 53.5951 46.9881C53.3076 46.5298 53.0317 46.0647 52.7301 45.6156C52.1877 44.805 51.6337 44.0014 51.0726 43.2023C50.8411 42.873 50.7359 42.9467 50.4998 43.2438C49.9083 43.9922 50.0392 44.8442 50.0369 45.6847C50.0346 46.7877 50.0369 47.8931 50.0346 48.9961C50.0346 49.0329 50.0159 49.0721 49.9387 49.1204C49.92 48.9938 49.8896 48.8671 49.8873 48.7405C49.8803 47.9253 49.92 47.1078 49.8709 46.2972C49.7891 44.9248 49.7026 43.55 49.5109 42.1914C49.4337 41.6456 49.0807 41.1367 48.8282 40.6209C48.7698 40.5011 48.6085 40.4275 48.4378 40.287C48.4191 41.0124 48.0334 41.4775 47.6546 41.922C47.2292 42.4217 46.7429 42.873 46.266 43.329C45.3308 44.2247 44.7043 45.2794 44.4962 46.5621C44.4682 46.7348 44.4191 46.9052 44.3793 47.0756C44.3256 47.0687 44.2718 47.0618 44.218 47.0549C44.2811 46.2811 44.3583 45.5097 44.4004 44.736C44.4401 44.0428 44.4612 43.3474 44.4448 42.6542C44.4401 42.4562 44.2765 42.2628 44.1736 42.0417C43.6008 42.7556 43.0561 43.4096 42.5394 44.0866C42.0041 44.7889 41.6721 45.5972 41.4664 46.4446C41.2466 47.3427 41.443 48.2224 42.0742 48.8694C42.8597 49.6754 43.9141 50.03 45.0059 49.5925C46.6891 48.9178 47.7014 47.6467 47.9703 45.8436C47.9843 45.7446 48.003 45.6432 48.017 45.5442L48.1246 45.5281C48.1549 45.7169 48.2321 45.9104 48.2087 46.0923C48.017 47.6444 47.4606 49.0191 46.1304 49.9725C45.581 50.3662 44.9474 50.5666 44.2601 50.5781C43.7434 50.5873 43.6639 50.6587 43.6032 51.1561C43.5587 51.5245 43.5213 51.893 43.4699 52.3397C43.353 52.2407 43.2969 52.2154 43.2852 52.1785C43.1426 51.718 42.9953 51.2551 42.8714 50.79C42.7802 50.4491 42.6189 50.1889 42.2659 50.0669C40.4775 49.4474 40.1455 46.744 40.73 45.5304C41.3986 44.1441 42.4085 43.0135 43.4068 41.869C43.5026 41.7608 43.6663 41.7101 43.8019 41.6318C43.3857 40.713 42.1911 40.842 40.6037 41.9726C40.6458 41.8805 40.6692 41.7746 40.7323 41.6986C41.104 41.2519 41.4874 40.8166 41.8615 40.3722C42.3664 39.7758 42.6189 39.1011 42.6119 38.3089C42.6026 37.3118 42.675 36.3147 42.6797 35.3176C42.6821 34.6222 42.5558 33.9567 41.9597 33.4777C41.9924 33.4132 42.0041 33.3464 42.0415 33.3234C42.6821 32.9388 42.6891 32.3102 42.6797 31.6884C42.668 30.9147 42.6376 30.1409 42.5979 29.3672C42.5909 29.2429 42.5067 29.1208 42.4576 28.9988C42.308 29.0632 42.0789 29.0909 42.0275 29.2014C41.9106 29.4524 41.8755 29.7449 41.8147 30.0212C41.7633 30.2676 41.7235 30.5163 41.6791 30.765H41.5248C41.4594 30.4541 41.3518 30.1456 41.3378 29.8324C41.3214 29.5031 41.2653 29.236 40.8001 29.0425C41.2256 28.6626 41.595 28.331 41.9667 28.0017C42.2051 27.7898 42.4506 27.5872 42.6797 27.3707C43.2852 26.7973 43.5891 26.0881 43.6499 25.2706C43.7224 24.2781 43.7201 23.2695 43.8977 22.2954C44.1689 20.8124 44.8165 19.4975 46.1304 18.6063C47.0328 17.9938 47.9726 17.4388 49.0433 17.1625C49.4782 17.0497 49.9387 17.022 50.2169 16.9806C49.5717 17.2868 48.7651 17.6115 48.0217 18.0445C47.3694 18.4244 47.0328 19.0577 47.0234 19.8222C47.0164 20.3703 47.0234 20.9183 47.0234 21.5309C46.2262 21.2683 46.778 20.5338 46.3548 20.1308C46.2683 20.3242 46.1725 20.49 46.1187 20.6673C45.7049 22.0029 45.6628 23.3777 45.7072 24.7594C45.7283 25.4018 45.7727 26.0443 45.7867 26.6868C45.7937 27.0184 45.8849 27.198 46.2613 27.0898C46.3618 27.0621 46.4717 27.0575 46.5792 27.0552C47.7482 27.023 48.7675 26.2907 49.1696 25.213C49.3753 24.658 49.1579 24.1606 48.9825 23.5849C49.5717 24.08 49.7914 24.711 49.9107 25.3558C50.1842 26.8296 49.5249 28.0086 48.5617 29.054C48.4612 29.1646 48.2087 29.1784 48.0287 29.1738C47.4232 29.1554 46.8177 29.0932 46.2122 29.0771C45.9293 29.0702 45.7984 29.2452 45.789 29.5376C45.775 30.0742 45.6885 30.613 45.7142 31.1473C45.7329 31.5433 45.8849 31.9302 45.9784 32.3217C46.0439 32.3424 46.1117 32.3631 46.1771 32.3839C45.9153 32.5566 45.6535 32.727 45.3893 32.8997C45.422 32.9342 45.4547 32.9688 45.4898 33.0033H47.5939C47.6056 33.054 47.6149 33.1046 47.6266 33.1553C47.5144 33.2129 47.4092 33.2958 47.2899 33.3257C46.2239 33.602 45.7516 34.2606 45.7844 35.3636C45.8101 36.1903 45.7516 37.0193 45.8031 37.8414C45.8288 38.2513 46.0205 38.652 46.1444 39.0872C45.9924 39.1149 45.7961 39.154 45.4711 39.2139C45.7049 39.3958 45.8592 39.5156 46.0135 39.6376C47.1497 38.4379 49.3753 38.6704 51.2222 40.2156C51.283 40.1028 51.3391 39.9991 51.456 39.7827C51.8417 40.5219 52.1947 41.1989 52.5828 41.9381C52.7395 41.7446 52.8166 41.6479 52.8938 41.5558C53.4338 41.7377 53.4665 41.7032 53.4993 41.1298C53.518 40.8074 53.6068 40.4896 53.6185 40.1695C53.6395 39.6906 53.3263 39.3636 52.9873 39.0826C52.6109 38.7718 52.2018 38.5 51.7131 38.1454C52.4916 38.1339 52.9195 38.6405 53.4689 38.9629C53.5063 38.8639 53.5577 38.7833 53.5577 38.705C53.5671 37.7862 53.5834 36.8674 53.5647 35.9486C53.553 35.4143 53.2748 35.2531 52.8096 35.5179C51.9352 36.0176 51.0773 36.5496 50.2146 37.0677C50.1281 37.1207 50.0416 37.1736 49.9434 37.2358C49.8639 35.8979 54.6425 32.6233 56.3164 32.8974C56.0288 33.0977 55.7833 33.2704 55.4934 33.4754C55.622 33.5491 55.7038 33.5951 55.8137 33.6573C55.6337 33.9866 55.7693 34.2376 56.0288 34.4771C56.3771 34.7972 56.5291 35.1909 56.501 35.6791C56.4356 36.819 56.3888 37.9589 56.3748 39.1011C56.3655 39.9024 56.5244 40.6692 57.1019 41.291C57.144 41.3371 57.1627 41.4015 57.1814 41.4361C56.6273 41.6617 56.0826 41.8805 55.5449 42.0993C55.8044 42.8454 58.3737 44.0221 59.1639 43.8586C59.0914 43.6974 58.9792 43.5362 58.9511 43.3612C58.8366 42.6335 58.4742 42.0624 57.8944 41.6134C57.6793 41.4476 57.4713 41.2703 57.2118 41.0584C58.1305 40.6923 58.0814 39.9047 58.1726 39.2093C58.2381 38.7165 58.1796 38.2099 58.224 37.7148C58.2451 37.4822 58.3713 37.2565 58.4719 36.971C57.5578 37.572 57.3263 38.5069 57.1346 39.4833C56.5922 38.6773 57.4689 36.4575 58.7851 35.8219C58.189 35.9278 58.2802 35.5847 58.2895 35.3176C58.3129 34.4794 58.3596 33.6389 58.3737 32.8007C58.39 31.7874 58.4251 30.7604 57.4853 29.9383C57.5788 29.8992 57.6256 29.8738 57.677 29.86C58.4344 29.6597 59.0189 29.183 59.6151 28.7155C60.2393 28.225 60.9243 27.8013 61.4994 27.2648C62.5467 26.2861 62.6122 25.4985 61.9295 24.2297C61.3638 23.1773 60.5502 22.4819 59.3158 22.323C59.3252 22.2862 59.3322 22.2516 59.3415 22.2148C59.7623 22.2701 60.1925 22.2885 60.604 22.3898C60.8892 22.4612 61.0622 22.5141 61.2936 22.2263C61.7635 21.646 62.3199 21.1325 62.8343 20.5844C63.4257 19.9535 63.7788 19.1981 64.0453 18.3899C64.4825 17.0658 64.936 15.744 65.7332 14.5765C65.9763 14.2218 66.2499 13.8718 66.5678 13.5817C67.1336 13.0681 67.7461 12.603 68.3843 12.1586C67.6245 13.151 66.832 14.1136 66.2662 15.2235C66.2943 15.2489 66.3223 15.2742 66.3504 15.2995C66.8717 14.7837 67.358 14.2287 67.9214 13.7659C68.5012 13.2915 69.1324 12.8632 69.7847 12.4925C70.4323 12.1263 71.136 11.8592 71.8139 11.5483C71.8467 11.5944 71.8794 11.6427 71.9121 11.6888C71.4562 12.1839 70.998 12.679 70.5421 13.1741C70.5585 13.2017 70.5772 13.2316 70.5936 13.2593C70.6988 13.2178 70.8087 13.1833 70.9092 13.1303C72.5153 12.3082 74.1284 11.4977 75.7251 10.6571C76.6229 10.1851 77.3032 9.45279 77.9578 8.70669C78.3225 8.28988 78.6498 7.84084 78.9981 7.41022C79.0683 7.32272 79.1618 7.25363 79.2904 7.20758C78.6171 9.04289 77.357 10.5305 76.2114 12.2046C76.8076 12.1885 77.2144 11.9881 77.5884 11.7256C78.8438 10.8506 79.807 9.69458 80.7889 8.54549C82.014 7.11086 83.2156 5.64399 84.5599 4.31989C86.1379 2.76321 87.7721 1.24108 89.7966 0.220948C89.8434 0.19792 89.8925 0.177195 89.9977 0.200223C89.8644 0.36372 89.7288 0.524914 89.5956 0.688412C89.2753 1.07067 89.1444 1.50129 89.1514 2.001C89.1607 2.69413 89.1233 3.38727 89.1 4.0804C89.0976 4.1587 89.0438 4.23469 88.9129 4.30608C88.8942 4.17712 88.8615 4.04586 88.8615 3.91691C88.8568 3.28595 88.8708 2.65498 88.8498 2.02402C88.8451 1.87204 88.7329 1.72236 88.6698 1.57268C88.5295 1.63255 88.3682 1.66479 88.256 1.7546C87.6926 2.20134 87.218 2.70334 87.2367 3.48859C87.2367 3.5784 87.1782 3.66821 87.1315 3.79716C87.0497 3.72808 86.9912 3.70505 86.9795 3.6659C86.8346 3.21686 86.7294 3.17771 86.4044 3.51853C85.7639 4.18863 85.3501 4.95546 85.3781 5.91342C85.3945 6.46608 85.4997 7.05099 84.9643 7.58984C84.9409 6.84604 84.9199 6.17824 84.8988 5.51043C84.8404 5.49892 84.7843 5.4897 84.7258 5.47819C84.298 6.04007 83.8608 6.59504 83.4424 7.16613C82.5049 8.44877 81.6983 9.80972 81.1186 11.2858C80.8894 11.8684 80.7632 12.4925 80.5972 13.0981C80.5177 13.3905 80.4429 13.683 80.3891 13.98C80.2652 14.6755 80.1039 15.3686 80.0478 16.0687C79.9309 17.5309 79.8772 19.0001 79.7836 20.4647C79.7603 20.8492 79.6901 21.2338 79.641 21.6184L79.7416 21.6667C79.8304 21.5838 79.9309 21.5101 80.0034 21.4134C80.7048 20.4739 81.3617 19.4952 82.1215 18.604C82.4114 18.2632 82.2758 18.0859 82.1963 17.775C82.0864 17.3398 82.035 16.8654 82.0888 16.421C82.194 15.5413 82.388 14.6732 82.5423 13.8166C82.547 13.8235 82.6148 13.8764 82.6124 13.9294C82.5984 14.5926 82.5797 15.2558 82.547 15.919C82.5236 16.4026 82.4722 16.8862 82.4441 17.3697C82.4394 17.4342 82.4955 17.501 82.568 17.6737C82.6826 17.4135 82.7971 17.25 82.8252 17.075C82.9818 16.0917 83.1572 15.1107 83.2483 14.1205C83.4143 12.2806 83.9567 10.595 85.1817 9.16954C86.0421 8.16784 86.9258 7.18455 88.0713 6.4776C88.1765 6.41312 88.2957 6.36706 88.45 6.37627C87.9614 6.78156 87.4564 7.16843 86.9865 7.59444C86.1847 8.31752 85.689 9.17876 85.6657 10.3002C85.6446 11.2927 85.5044 12.2829 85.4225 13.2754C85.3968 13.5817 85.3828 13.8879 85.3641 14.1965C85.322 14.1988 85.2823 14.2011 85.2402 14.2034C85.2098 13.9939 85.1607 13.7843 85.1513 13.5748C85.1163 12.6859 85.0929 11.797 85.0672 10.9081C85.0648 10.8298 85.0835 10.7446 85.0602 10.6733C85.0228 10.5604 84.9573 10.4568 84.9035 10.3486C84.817 10.42 84.6861 10.4752 84.651 10.5673C84.443 11.1039 84.1718 11.6358 84.0783 12.1954C83.8749 13.409 83.786 14.6432 83.613 15.8637C83.5055 16.6259 83.412 17.4043 82.9421 18.0652C82.9023 18.1204 82.8836 18.2264 82.9117 18.2816C83.1455 18.7629 83.2203 19.2511 82.9538 19.813C84.4243 19.6219 85.8036 19.4422 87.1829 19.2626C87.1923 19.3064 87.204 19.3501 87.2133 19.3939C86.6779 19.5159 86.028 19.4445 85.8433 20.1492C85.7077 19.9834 85.6142 19.7646 85.474 19.7255C85.3103 19.6817 85.0718 19.7508 84.9222 19.8544C84.7983 19.9396 84.7352 20.1377 84.6838 20.2966C84.6206 20.4877 84.5996 20.6926 84.5599 20.8907C84.5038 20.8884 84.45 20.8861 84.3939 20.8815C84.3682 20.7295 84.3378 20.5752 84.3191 20.4232C84.2817 20.1216 84.1367 19.9627 83.8094 20.041C83.0216 20.2344 82.4394 20.3242 82.409 21.4825C82.3833 22.5418 82.2758 23.5988 82.1308 24.6672C82.1168 24.513 82.0934 24.3587 82.0888 24.2044C82.0514 23.2741 82.0233 22.3414 81.9742 21.4111C81.9649 21.2453 81.8643 21.0818 81.8059 20.9183C81.6539 20.9851 81.4809 21.0265 81.357 21.1256C80.2302 22.019 79.5966 23.2119 79.2343 24.5636C79.1618 24.8307 79.094 25.0979 79.0379 25.3673C78.9023 26.0213 79.0893 26.5878 79.5545 27.0621C79.7158 27.2256 79.9099 27.3569 80.1296 27.5365C79.62 27.6655 79.2413 27.4444 78.783 27.2141C78.7223 27.6747 78.6358 28.0961 78.6147 28.5175C78.5867 29.0817 78.603 29.6482 78.61 30.2123C78.6241 31.4282 79.1828 32.3424 80.2208 32.9826C80.5201 33.1668 80.824 33.3487 81.1957 33.5721C80.7118 33.5721 80.319 33.5652 79.9286 33.5721C79.2833 33.5859 79.1501 33.7678 79.129 34.3804C79.1103 34.8801 78.9958 35.3752 78.9186 35.9002C78.8251 35.3268 78.7199 34.7857 78.6521 34.2399C78.6171 33.9613 78.4744 33.8691 78.257 33.9935C77.8689 34.2123 77.4902 34.4564 77.1419 34.7327C77.0343 34.8179 77.0156 35.032 76.9852 35.1932C76.8824 35.7183 76.7959 36.2433 76.7 36.7706C76.6603 36.7752 76.6205 36.7776 76.5831 36.7822C76.5527 36.6601 76.506 36.5404 76.499 36.4183C76.4873 36.1696 76.513 35.9186 76.4896 35.6699C76.4779 35.5525 76.4148 35.3821 76.3283 35.3452C76.2465 35.3107 76.0688 35.3936 75.9917 35.4765C75.3698 36.142 74.7526 36.8121 74.1541 37.4983C73.4995 38.249 72.8356 38.9813 71.8934 39.3981C71.8256 39.4281 71.7789 39.4994 71.662 39.6054C72.2418 39.6514 72.721 39.5386 73.1488 39.2853C74.5422 38.4609 76.0665 38.0211 77.6492 37.7263C78.3459 37.5973 79.0051 37.7355 79.641 37.9934C80.5131 38.348 81.3547 38.3066 82.1823 37.8645C82.2594 37.823 82.3506 37.8046 82.4909 37.8299C81.9228 38.4862 81.3523 39.1448 80.7842 39.8011L80.8824 39.9047C80.9572 39.8725 81.0461 39.8541 81.1045 39.8057C81.7311 39.2784 82.381 38.7741 82.9678 38.2053C83.8258 37.374 84.0666 36.2894 84.1344 35.1472C84.2162 33.7747 83.9801 32.4276 83.8328 31.0713C83.6832 29.6781 83.7323 28.2895 84.263 26.9654C84.4944 26.3897 84.8124 25.8463 85.1373 25.3097C84.5786 26.7927 84.4944 28.3171 84.658 29.86C84.817 31.366 85.1887 32.8191 85.7989 34.2215C86.0163 34.7189 86.1192 35.2877 86.1543 35.8311C86.2384 37.1045 86.187 38.3688 85.7592 39.6054C85.5792 40.1281 85.502 40.7015 85.481 41.2565C85.4202 42.8316 85.4249 44.409 85.3804 45.9841C85.3664 46.4515 85.2823 46.919 85.163 47.3865C85.163 47.0756 85.1958 46.7601 85.1584 46.4515C84.9877 45.1021 84.9082 43.7481 84.9246 42.3871C84.9246 42.249 84.8311 42.1085 84.7796 41.968C84.6674 42.0624 84.5295 42.1407 84.45 42.2559C83.8047 43.1931 83.1759 44.1487 82.9842 45.2909C82.8789 45.9081 82.8883 46.5436 82.8509 47.1723C82.7363 49.0951 83.0566 50.9581 83.6668 52.7773C83.7697 53.0858 83.9286 53.3783 84.0549 53.6799C84.0829 53.749 84.0806 53.8319 84.0923 53.9079L84.09 53.9402ZM72.9384 29.51C73.7879 29.3227 74.257 29.3089 74.3458 29.4685C74.1307 29.6758 73.8408 29.837 73.745 30.0742C73.5206 30.6268 73.3335 31.2048 73.2377 31.792C73.0951 32.6556 73.0249 33.5329 72.9618 34.4057C72.9197 34.986 72.7935 35.5778 73.1068 36.142C73.1512 36.2249 73.0343 36.4367 72.9384 36.5427C72.6485 36.8628 72.2838 37.1276 72.0384 37.4753C71.7765 37.846 71.6176 38.2905 71.4142 38.7004C71.4539 38.7326 71.496 38.7649 71.5357 38.7971C71.6409 38.7649 71.7625 38.7533 71.8443 38.6935C72.1506 38.4655 72.4709 38.2467 72.7397 37.9773C73.551 37.1621 73.9905 36.1305 74.3879 35.085C74.6544 34.3873 74.9186 33.6803 75.0822 32.9549C75.2786 32.0891 75.3791 31.2002 75.4984 30.3183C75.5849 29.6942 75.6761 29.0609 75.4119 28.4553C75.3464 28.3079 75.1617 28.0915 75.0495 28.1007C74.5843 28.1444 74.0676 28.1606 73.6819 28.3793C73.3125 28.5866 73.1068 29.0471 72.9384 29.51ZM73.3265 26.9171C73.3663 26.9309 73.4083 26.9447 73.4481 26.9562C73.4902 26.9286 73.5416 26.9101 73.5743 26.8756C74.9046 25.4203 75.3885 23.6126 75.7251 21.7542C75.8467 21.0841 75.8631 20.3979 75.9659 19.7232C76.0735 19.0001 76.2254 18.2839 76.3587 17.5655C75.6083 17.5056 74.9466 18.0905 74.9794 18.6639C75.0028 19.0577 74.9887 19.4514 74.9747 19.8452C74.9677 20.0755 74.9279 20.3035 74.9046 20.5338C74.8625 20.5291 74.8227 20.5268 74.7807 20.5222C74.7012 19.7738 74.6217 19.0277 74.5422 18.2793C74.4954 18.277 74.4487 18.2747 74.4019 18.2701C74.3318 18.4152 74.2336 18.5557 74.1939 18.71C73.8315 20.1561 73.6865 21.6276 73.6141 23.1106C73.5626 24.1583 73.4995 25.2038 73.4317 26.2493C73.4177 26.4703 73.3592 26.6891 73.3218 26.9101L73.3265 26.9171ZM64.3749 30.9861C63.9821 31.168 63.6502 31.3223 63.3205 31.4743C63.2574 31.2094 63.2224 30.9354 63.1265 30.6867C63.0166 30.4035 62.9161 30.0005 62.5467 30.0534C62.4158 30.0719 62.3363 30.5485 62.2662 30.8249C62.1914 31.1173 62.1563 31.4167 62.1025 31.7137L61.9389 31.7091C61.7869 30.7005 62.3176 29.5722 61.4479 28.6027C61.3988 28.7616 61.3497 28.8537 61.3474 28.9481C61.289 30.6245 61.2282 32.301 61.1931 33.9797C61.1861 34.2859 61.1838 34.5531 60.8939 34.7465C62.68 34.1201 63.7834 32.8674 64.3749 30.9884V30.9861ZM77.4365 14.0998C77.2868 14.1113 77.1886 14.1044 77.0998 14.1297C76.6416 14.2564 76.1834 14.383 75.7322 14.5258C75.627 14.558 75.4914 14.634 75.454 14.7238C75.2132 15.3203 74.9887 15.9213 74.7783 16.5269C74.7058 16.7319 74.8251 16.8862 75.0448 16.8378C75.5451 16.7227 76.0688 16.6352 76.5177 16.4072C76.7211 16.3036 76.7842 15.9052 76.8871 15.6334C77.0717 15.1476 77.2377 14.6571 77.4365 14.0998ZM82.6241 18.7836C82.2664 19.3018 81.9415 19.7715 81.6165 20.2436C82.4184 20.0341 82.8883 19.334 82.6241 18.7836ZM60.3211 44.2178C60.3655 44.1764 60.4099 44.1372 60.4543 44.0958C60.3562 43.9024 60.2603 43.7089 60.1621 43.5155C59.9587 43.6375 59.753 43.7596 59.5496 43.8816C59.5566 43.9346 59.566 43.9876 59.573 44.0382C59.8231 44.0981 60.0709 44.1557 60.3211 44.2155V44.2178Z" fill="black"/>
<path d="M45.9526 17.2134C46.7498 16.4396 47.6125 15.8179 48.7066 15.4563C49.7563 15.1086 50.7429 14.6112 51.9071 14.9083C51.9165 14.8668 51.9282 14.8254 51.9375 14.7839C51.5985 14.6158 51.2595 14.45 50.9229 14.2819C50.9276 14.2382 50.9322 14.1921 50.9393 14.1484C51.0328 14.0977 51.1263 14.047 51.2292 13.9918C51.1707 13.6924 51.1076 13.3861 51.0562 13.0799C50.9533 12.4673 51.0445 11.8755 51.2993 11.3136C51.3671 11.1617 51.47 10.9912 51.6055 10.9106C51.7832 10.8024 52.0264 10.6988 52.2087 10.7379C52.3443 10.7656 52.4705 11.012 52.529 11.1847C52.6038 11.4057 52.5968 11.6498 52.6412 11.8824C52.7394 12.4028 52.8914 12.8565 53.4711 13.1006C53.9598 13.3055 54.1 13.6878 53.9878 14.0908C53.8896 14.4477 53.5553 14.6688 53.0527 14.6895C52.7908 14.701 52.5267 14.6895 52.2648 14.6895C52.2438 14.7287 52.2227 14.7678 52.2017 14.8069C52.3186 14.9014 52.4191 15.028 52.5524 15.0856C53.6278 15.553 54.259 16.3613 54.5769 17.4713C54.7874 18.2082 54.764 18.9197 54.5746 19.6428C54.4881 19.9721 54.5045 20.2599 54.7733 20.5109C54.8388 20.5708 54.8785 20.7527 54.8364 20.8103C54.6494 21.0705 54.3642 21.2755 54.2333 21.5541C53.9644 22.1275 53.7377 22.7262 53.56 23.3341C53.4478 23.7164 53.4595 24.1332 53.4057 24.6444C53.8499 24.7158 54.3104 24.8171 54.7757 24.8563C55.9469 24.953 57.0317 24.6145 58.1258 24.2414C58.8155 24.0065 59.3648 23.5944 59.9493 23.2121C60.4169 22.9058 60.4286 22.9035 60.8424 23.3572C60.5501 23.5805 60.2602 23.8039 59.9657 24.0227C59.5379 24.3428 59.2713 24.7273 59.3087 25.2915C59.3298 25.5909 59.2596 25.8971 59.2316 26.1988C59.1942 26.1988 59.1591 26.1965 59.1217 26.1942C59.0165 25.8442 58.8692 25.5011 58.8155 25.1441C58.764 24.7941 58.5887 24.7849 58.3152 24.8448C57.8873 24.9392 57.4595 25.0474 57.027 25.1096C55.9797 25.2616 54.9323 25.3053 53.892 25.0359C53.8055 25.0129 53.7073 25.0336 53.5132 25.0336C53.5904 25.4964 53.6395 25.9432 53.7423 26.3784C53.906 27.0692 54.0977 27.7578 54.584 28.315C55.3671 29.2131 56.3537 29.4135 57.539 29.0681C57.4268 29.5539 57.0995 29.8303 56.8096 30.1135C56.5758 30.3438 56.2766 30.5096 56.0311 30.7307C55.7318 31.0024 55.456 31.3018 55.1778 31.5965C55.0819 31.6978 55.0118 31.8199 54.8739 32.0133C54.5559 31.2373 53.913 30.9057 53.3192 30.5188C53.2187 30.452 53.0854 30.4336 52.9685 30.3922C52.9334 30.5004 52.889 30.6063 52.8633 30.7168C52.7978 30.9955 52.7417 31.2741 52.681 31.5528C52.6435 31.5551 52.6061 31.5597 52.5711 31.562C52.4846 31.129 52.3864 30.7007 52.3116 30.2655C52.2251 29.7566 52.0123 29.3329 51.5494 29.0105C51.5074 29.0934 51.4676 29.1371 51.4653 29.1809C51.4209 30.809 51.318 32.437 51.3647 34.0605C51.3858 34.7743 51.2292 35.2395 50.6611 35.6839C50.2589 35.9994 49.9878 36.4876 49.6909 36.9228C49.5062 37.1923 49.3706 37.2337 49.0994 37.0172C48.7581 36.7432 48.6201 36.4416 48.6388 35.9994C48.6926 34.7674 48.709 33.5331 48.7183 32.3012C48.7253 31.4652 48.3302 30.8205 47.6569 30.3277C47.5728 30.2655 47.4909 30.1987 47.3577 30.0951C47.5143 30.0099 47.6265 29.9224 47.7575 29.8832C49.1017 29.4756 50.0158 28.5568 50.6914 27.4054C51.1427 26.6363 51.4933 25.8096 51.8627 24.9967C51.9819 24.7342 52.0801 24.5132 52.4448 24.5385C52.0778 24.299 51.7131 24.0595 51.346 23.8177C51.3647 23.7832 51.3858 23.7486 51.4045 23.7141C51.6874 23.8292 51.9679 23.9467 52.3326 24.0964C52.688 23.0187 53.0153 21.9847 53.3683 20.9577C53.7166 19.9467 53.8148 18.9059 53.7493 17.8512C53.7283 17.5196 53.6418 17.1719 53.5015 16.8679C53.2397 16.2991 53.034 16.2876 52.6178 16.815C52.5056 16.5709 52.4261 16.3406 52.2975 16.138C52.2134 16.0067 52.0614 15.9192 51.9399 15.8133C51.9025 15.9514 51.83 16.0896 51.83 16.2278C51.8206 17.4413 51.8253 18.6549 51.7552 19.8708C51.7552 19.2444 51.7552 18.6203 51.7552 17.994C51.7552 17.743 51.7482 17.5219 51.5307 17.317C51.4115 17.2064 51.4185 16.9508 51.3975 16.7574C51.3647 16.4327 51.3834 16.0988 51.318 15.7833C51.2946 15.6797 51.0585 15.5323 50.9393 15.5507C50.1537 15.6659 49.3565 15.7603 48.5944 15.9745C47.6873 16.2301 46.8176 16.61 46.0602 17.1926C46.0368 17.211 45.9877 17.1995 45.9526 17.2041V17.2134Z" fill="black"/>
<path d="M74.3225 61.855C74.1495 61.4819 73.9461 61.1181 73.8106 60.7335C73.4973 59.8562 73.1747 58.9788 72.9315 58.0807C72.6837 57.1688 72.7024 56.2638 73.0344 55.3381C73.2565 54.721 73.2425 54.0232 73.3336 53.36C73.4388 52.5863 73.7241 51.8978 74.2805 51.3198C74.4909 51.1033 74.6802 50.8569 74.8275 50.5944C75.3442 49.6825 76.2302 49.1851 77.0695 48.561C76.803 46.9122 76.3962 45.2704 75.1104 43.9854C75.0823 43.9578 75.0449 43.9394 75.0192 43.9094C74.5891 43.4074 74.5961 43.4258 73.9274 43.6791C73.3126 43.9117 72.7609 44.2019 72.4406 44.7983C72.3564 44.9526 72.2793 45.1322 72.2723 45.3026C72.2138 46.9813 72.1764 48.6601 72.1226 50.3388C72.1133 50.599 72.0525 50.8569 71.973 51.1148C71.973 50.3042 71.9777 49.4937 71.973 48.6831C71.973 48.416 72.0081 48.1534 71.7018 47.96C71.5803 47.884 71.5615 47.6031 71.5522 47.4119C71.5312 46.9537 71.5569 46.4908 71.5312 46.0326C71.5241 45.899 71.4143 45.7701 71.3488 45.6388C71.2459 45.7424 71.094 45.8276 71.0472 45.9497C70.9514 46.2053 70.914 46.4816 70.8462 46.7487C70.7971 46.9422 70.741 47.1333 70.6895 47.3244C70.6545 47.3221 70.6217 47.3175 70.5867 47.3152C70.568 47.1656 70.5399 47.0136 70.5329 46.8639C70.5165 46.5553 70.3622 46.4655 70.1284 46.6612C69.7146 47.009 69.3032 47.3682 68.9361 47.762C68.4335 48.3031 67.8888 48.7683 67.2015 49.0653C66.8227 49.2311 66.6334 49.496 66.6638 49.9312C66.6965 50.3987 66.6708 50.8684 66.6708 51.3382C66.631 51.3474 66.5913 51.3566 66.5515 51.3658C66.4697 51.1194 66.3809 50.8753 66.3131 50.6266C66.2827 50.5161 66.3037 50.3917 66.2944 50.2743C66.2476 49.5236 66.1518 49.4614 65.4317 49.6595C64.8543 49.8183 64.2722 49.9588 63.6877 50.097C63.5521 50.1292 63.4048 50.1246 63.2645 50.1361C63.2037 49.6341 63.2692 49.5075 63.6994 49.443C65.2681 49.2035 66.6287 48.485 67.9192 47.6376C68.4545 47.2853 68.8917 46.781 69.3406 46.3158C70.0232 45.6089 70.7433 44.9549 71.5943 44.4437C71.8982 44.2617 72.1483 43.9946 72.4406 43.792C73.5136 43.0459 74.7013 42.9054 75.9754 43.1196C77.5979 43.3913 78.6031 44.3677 79.3045 45.7632C79.7323 46.6129 79.9661 47.5064 80.0736 48.4344C80.1087 48.7476 80.0619 49.1022 79.9474 49.3969C79.6482 50.1638 79.2905 50.9076 78.9538 51.6629C78.9234 51.732 78.893 51.8033 78.872 51.8517C79.0497 51.8932 79.2414 51.8839 79.3606 51.9714C79.9497 52.3998 80.5646 52.8074 81.0813 53.3117C81.5067 53.7285 81.9275 54.2259 82.1403 54.767C82.837 56.5379 84.1204 57.786 85.6307 58.8683C85.7756 58.9719 85.8925 59.1078 85.9814 59.2966C85.9089 59.2828 85.8224 59.2897 85.7663 59.2505C85.0065 58.7186 84.2327 58.2051 83.5009 57.6386C82.8276 57.1159 82.4465 56.3628 82.0421 55.6352C81.8761 55.3358 81.6797 55.0549 81.481 54.7762C81.4062 54.6703 81.2823 54.5966 81.114 54.4515C81.0696 54.8591 81.0345 55.17 80.9971 55.5269C80.6534 55.3266 80.7469 55.0387 80.6862 54.8016C80.5997 54.4677 80.5015 54.1338 80.3589 53.8206C80.3098 53.7123 80.1157 53.6709 79.9871 53.5995C79.9217 53.7331 79.8071 53.8666 79.7978 54.0025C79.7721 54.4078 79.8071 54.8177 79.7837 55.223C79.7159 56.3191 79.6318 57.4129 79.5476 58.509C79.5429 58.5735 79.4915 58.638 79.3793 58.6933C79.3699 58.5597 79.3512 58.4238 79.3489 58.2903C79.3442 56.8441 79.3349 55.4003 79.3419 53.9541C79.3442 53.3784 79.038 52.9455 78.727 52.508C78.54 52.2455 78.3904 52.3376 78.1823 52.5126C77.3921 53.1758 76.5832 53.8183 75.779 54.4654C75.751 54.4884 75.7112 54.493 75.6224 54.4469C76.1344 53.9426 76.644 53.4337 77.1607 52.934C77.4272 52.6761 77.7194 52.4458 77.9719 52.1764C78.0514 52.0935 78.1052 51.854 78.0537 51.8056C77.6984 51.4602 77.5862 51.0181 77.4927 50.5668C77.3781 50.0187 77.2682 49.4683 77.1537 48.9111C76.6674 49.2956 76.1998 49.6526 75.7486 50.0279C75.599 50.1523 75.4844 50.3204 75.3652 50.4746C75.0496 50.8799 74.7644 51.3082 74.4231 51.6905C73.9906 52.1764 73.8012 52.7337 73.7053 53.3623C73.5698 54.2397 73.3056 55.0986 73.1934 55.9783C73.1185 56.5655 73.1045 57.1988 73.2448 57.7675C73.5347 58.9374 73.9461 60.0772 74.3038 61.2286C74.3623 61.4151 74.395 61.6086 74.4394 61.7974C74.3997 61.8158 74.3599 61.8343 74.3225 61.8527V61.855ZM78.519 45.2635C78.4675 45.2819 78.4161 45.3003 78.3623 45.3187C78.3623 45.7747 78.3974 46.2329 78.353 46.6843C78.3062 47.131 78.2034 47.5801 77.7779 47.8771C77.7779 47.557 77.827 47.2554 77.9088 46.9606C78.2875 45.5858 77.9298 44.6049 76.7258 43.838C76.5388 43.7183 76.2863 43.6999 76.0642 43.6354C76.0385 43.6791 76.0128 43.7229 75.9871 43.7666C76.1577 44.0269 76.3518 44.2733 76.4921 44.5473C76.8217 45.1875 77.2261 45.8138 77.4108 46.4954C77.6516 47.3866 77.7124 48.3262 77.8433 49.245C77.9509 49.9934 78.1332 50.7072 78.7224 51.2599C79.5079 49.8713 79.8773 48.3169 79.5149 47.2277C79.2834 46.5323 78.9187 45.8829 78.519 45.2681V45.2635Z" fill="black"/>
<path d="M47.1265 35.7024C48.2907 36.2689 48.9336 37.4387 48.8658 38.521C48.8448 38.8365 48.6203 38.8111 48.4029 38.795C48.2393 38.7835 47.9985 38.825 48.0616 38.5509C48.3047 37.4824 47.8933 36.6304 47.1872 35.8659C47.1639 35.8406 47.1592 35.7945 47.1288 35.7024H47.1265Z" fill="black"/>
</g>
<defs>
<clipPath id="clip0_1_2114">
<rect width="90" height="62" fill="white"/>
</clipPath>
</defs>
</svg>
